<svg id="2f29396a-a310-491c-b235-db9040dac2ff" data-name="Calque 1" xmlns="http://www.w3.org/2000/svg" width="16" height="16" viewBox="0 0 16 16">
  <title>cat-mobile</title>
  <path d="M13.87,2.86a7.27,7.27,0,0,1,0,10.28l-1-1a5.82,5.82,0,0,0,0-8.24l1-1M11.81,4.92a4.35,4.35,0,0,1,0,6.16l-1-1a2.92,2.92,0,0,0,0-4.12l1-1M8.73,6.55A1.45,1.45,0,1,1,7.27,8,1.45,1.45,0,0,1,8.73,6.55M7.64,0A1.81,1.81,0,0,1,9.45,1.82V5.09H8V2.18H1.45V13.09H8V10.91H9.45v3.27A1.81,1.81,0,0,1,7.64,16H1.82A1.81,1.81,0,0,1,0,14.18V1.82A1.81,1.81,0,0,1,1.82,0Z" style="fill: #99003e"/>
</svg>
