<svg id="b6522776-ab1c-4708-93db-9c1f5911099e" data-name="Calque 1" xmlns="http://www.w3.org/2000/svg" width="11.64" height="16" viewBox="0 0 11.64 16">
  <title>cat-descovery</title>
  <path d="M7.27,16a1.45,1.45,0,0,1-1.45-1.45V13.09h4.36v1.46A1.45,1.45,0,0,1,8.73,16H7.27M8,0A6.08,6.08,0,0,1,9.49.19a10,10,0,0,1,1.42,5.63,21.53,21.53,0,0,1-.73,5.09,1.45,1.45,0,0,1-1.45,1.45H7.27a1.45,1.45,0,0,1-1.45-1.45,21.53,21.53,0,0,1-.73-5.09A10,10,0,0,1,6.51.19,6.08,6.08,0,0,1,8,0m5.82,5.09c0,2.31-1.35,5.76-3.3,6.7a15.17,15.17,0,0,0,1.12-6A11.7,11.7,0,0,0,10.52.57c2,.94,3.3,2.21,3.3,4.52m-11.64,0c0-2.31,1.35-3.58,3.3-4.52A11.7,11.7,0,0,0,4.36,5.82a15.17,15.17,0,0,0,1.12,6C3.53,10.85,2.18,7.4,2.18,5.09Z" transform="translate(-2.18)" style="fill: #99003e"/>
</svg>
