<svg id="Calque_1" data-name="Calque 1" xmlns="http://www.w3.org/2000/svg" width="7.06mm" height="5.73mm" viewBox="0 0 20 16.26"><defs><style>.cls-1{fill:#fff;}</style></defs><path class="cls-1" d="M18.38,4.18A5.68,5.68,0,0,0,18.21,0s-1.31-.39-4.3,1.61A15.36,15.36,0,0,0,10,1.27a15.41,15.41,0,0,0-3.91.38C3.1-.38,1.79,0,1.79,0a5.6,5.6,0,0,0-.16,4.14A5.93,5.93,0,0,0,0,8.37c0,6.44,4.16,7.89,10,7.89s10-1.45,10-7.89a6,6,0,0,0-1.62-4.19M10,15c-4.12,0-7.47-.19-7.47-4.19A3.53,3.53,0,0,1,3.8,8.26C5.14,7,7.43,7.68,10,7.68s4.85-.65,6.2.58a3.55,3.55,0,0,1,1.3,2.58c0,4-3.37,4.19-7.5,4.19M6.86,8.77c-.82,0-1.5,1-1.5,2.22s.68,2.24,1.5,2.24,1.5-1,1.5-2.24-.67-2.22-1.5-2.22m6.28,0c-.83,0-1.5,1-1.5,2.22s.67,2.24,1.5,2.24,1.5-1,1.5-2.24S14,8.77,13.14,8.77Z"/></svg>