<svg xmlns="http://www.w3.org/2000/svg" width="108" height="53" viewBox="0 0 108 53" fill="none"><path d="M-2.39687e-05 6.21424V19.3279C-2.39687e-05 19.8276 0.408574 20.2892 0.91182 20.3548C2.07913 20.5082 2.66318 20.5784 3.83049 20.7065C4.3345 20.7615 4.74233 20.3991 4.74233 19.8993V7.78058C4.74233 7.28085 5.15093 6.91844 5.65418 6.96727C8.17656 7.19463 10.6966 7.37622 13.2252 7.51507C13.7292 7.54025 14.137 7.15267 14.137 6.65294V3.75905C14.137 3.25932 13.7292 2.8374 13.2252 2.81223C9.10148 2.58563 5.00858 2.23162 0.91105 1.72425C0.407035 1.65864 -0.000793457 2.00655 -0.000793457 2.50628V6.21424H-2.39687e-05Z" fill="white"></path><path d="M9.39542 25.9143C10.9282 26.0249 11.6939 26.0707 13.2267 26.1462C13.7307 26.1707 14.1385 25.7838 14.1385 25.2841V13.0746C14.1385 12.5748 13.7299 12.1529 13.2267 12.1277C12.0594 12.0705 11.4753 12.0369 10.308 11.9591C9.80402 11.9255 9.39619 12.3009 9.39619 12.8007V20.3074C9.39619 20.8071 8.98759 21.1825 8.48434 21.1436C7.35319 21.0551 6.78762 21.0055 5.65647 20.8964C5.15246 20.8475 4.74463 21.2099 4.74463 21.7097V24.6036C4.74463 25.1033 5.15246 25.5504 5.65647 25.5992C7.15236 25.7442 7.9003 25.8067 9.39619 25.9151" fill="white"></path><path d="M79.9052 1.12832V3.93142C79.9052 4.43115 79.4966 4.84467 78.9934 4.85688C77.826 4.88587 77.242 4.90342 76.0747 4.94309C75.5707 4.96064 75.1628 5.38103 75.1628 5.88V22.7016C75.1628 23.2013 75.5707 23.5905 76.0747 23.5737C77.2428 23.5332 77.826 23.5157 78.9934 23.4875C79.4974 23.4745 79.906 23.0617 79.906 22.562V5.83117C79.906 5.33144 80.3146 4.91792 80.8178 4.90876C81.949 4.88892 82.5145 4.88129 83.6457 4.87366C84.1497 4.87061 84.5575 5.27422 84.5575 5.77395V22.5963C84.5575 23.0953 84.9661 23.4989 85.4694 23.4997C86.6367 23.5012 87.2207 23.5058 88.388 23.5233C88.8921 23.5309 89.2999 23.1342 89.2999 22.6345V1.10925C89.2999 0.609515 88.8921 0.196757 88.388 0.189128C85.8634 0.16395 83.3417 0.170054 80.817 0.205913C80.313 0.215068 79.9052 0.628589 79.9052 1.12832Z" fill="white"></path><path d="M83.7364 26.5789C81.2117 26.6056 78.6894 26.659 76.1654 26.7368C75.6614 26.7544 75.2536 27.1747 75.2536 27.6737V49.1989C75.2536 49.6987 75.6622 50.0878 76.1654 50.071C77.3328 50.0313 77.9168 50.0138 79.0841 49.9848C79.4489 49.9756 79.6312 49.9718 79.996 49.9642C81.4918 49.9329 82.2398 49.9214 83.7357 49.9123C84.2397 49.9092 84.6483 49.5034 84.6475 49.0036V46.1097C84.6475 45.61 84.2389 45.2056 83.7357 45.2094C82.6045 45.2163 82.0389 45.2232 80.9078 45.243C80.4038 45.2522 79.996 44.8562 79.996 44.3565V32.2369C79.996 31.7372 80.4038 31.3237 80.9078 31.3145C82.0389 31.2947 82.6045 31.2878 83.7357 31.281C84.2397 31.2779 84.6475 31.6823 84.6475 32.1812V44.3008C84.6475 44.8005 85.0561 45.2041 85.5594 45.2049C86.7274 45.2072 87.3107 45.2117 88.478 45.23C88.982 45.2377 89.3899 44.8409 89.3899 44.342V32.1324C89.3899 31.6327 88.9813 31.2199 88.478 31.2115C87.3107 31.1932 86.7267 31.1886 85.5594 31.1871C85.0553 31.1864 84.6475 30.7828 84.6475 30.283V27.4792C84.6475 26.9794 84.2389 26.5758 83.7357 26.5789" fill="#87E191"></path><path d="M22.6214 33.968C21.4541 33.9673 20.8701 33.9627 19.7027 33.9459C19.1987 33.9383 18.7909 34.3358 18.7909 34.8348V51.6571C18.7909 52.1569 19.1995 52.5696 19.7027 52.5765C20.8701 52.5933 21.4541 52.5978 22.6214 52.5986C23.1254 52.5986 23.5332 52.1927 23.5332 51.693V34.9614C23.5332 34.4617 23.9418 34.0558 24.4451 34.052C25.5762 34.0443 26.1418 34.0367 27.273 34.0161C27.777 34.007 28.1856 34.4029 28.1856 34.9027V51.725C28.1856 52.2248 28.5934 52.6207 29.0974 52.6085C30.2647 52.5795 30.8488 52.5612 32.0161 52.5208C32.5201 52.5032 32.9279 52.0829 32.9279 51.5839V30.0579C32.9279 29.5582 32.5201 29.1691 32.0161 29.1866C29.4922 29.266 26.9698 29.3217 24.4451 29.3499C23.9411 29.3537 23.5332 29.7596 23.5332 30.2593V33.0632C23.5332 33.5629 23.1247 33.9688 22.6214 33.9688" fill="#87E191"></path><path d="M37.6726 7.23882V25.1461C37.6726 25.6458 38.0812 26.0304 38.5845 26.0037C39.7887 25.9411 40.3904 25.9068 41.5947 25.8373C41.9233 25.8183 42.0872 25.8084 42.4157 25.7893C45.2444 25.6191 48.0715 25.4337 50.8986 25.2392C51.4026 25.2049 51.8104 24.7715 51.8104 24.2725V21.3786C51.8104 20.8789 51.4018 20.5028 50.8986 20.5371C48.3754 20.7088 45.8523 20.8743 43.3276 21.0323C42.8236 21.0628 42.4157 20.6828 42.4157 20.1831V17.2892C42.4157 16.7895 42.8243 16.3607 43.3276 16.3294C44.4949 16.2585 45.0789 16.2211 46.2462 16.1455C46.7503 16.1127 47.1581 15.6809 47.1581 15.1812V12.2873C47.1581 11.7876 46.7495 11.4099 46.2462 11.4427C45.0789 11.5182 44.4949 11.5549 43.3276 11.6266C42.8236 11.6571 42.4157 11.2764 42.4157 10.7774V7.97354C42.4157 7.47381 42.8243 7.04503 43.3276 7.01375C45.8515 6.85658 48.3754 6.69026 50.8986 6.51859C51.4026 6.48426 51.8104 6.0509 51.8104 5.55193V2.65728C51.8104 2.15755 51.4026 1.78065 50.8986 1.81574C46.7949 2.09422 42.6912 2.35744 38.5845 2.58022C38.0804 2.60616 37.6726 3.03189 37.6726 3.53086V7.23882Z" fill="white"></path><path d="M37.581 33.4714V51.3787C37.581 51.8784 37.9896 52.2629 38.4928 52.237C40.0257 52.1576 40.7913 52.1141 42.3241 52.0226V51.9318C45.1528 51.7624 47.9799 51.577 50.807 51.3825C51.311 51.3481 51.7188 50.9148 51.7188 50.4158C51.7188 49.2584 51.7188 48.6793 51.7188 47.5219C51.7188 47.0222 51.311 46.6461 50.807 46.6804C48.2838 46.8513 45.7599 47.0176 43.236 47.1748C42.7319 47.2053 42.3241 46.8246 42.3241 46.3249V43.521C42.3241 43.0213 42.7327 42.5925 43.236 42.562C44.4033 42.491 44.9873 42.4536 46.1546 42.3781C46.6586 42.3453 47.0665 41.9134 47.0665 41.4145V38.5198C47.0665 38.0201 46.6579 37.6424 46.1546 37.6752C44.9873 37.7508 44.4033 37.7874 43.236 37.8591C42.7319 37.8896 42.3241 37.5089 42.3241 37.0092V34.2053C42.3241 33.7056 42.7327 33.2768 43.236 33.2463C45.7599 33.0891 48.2838 32.9236 50.807 32.7519C51.311 32.7176 51.7188 32.2842 51.7188 31.7852V28.8913C51.7188 28.3916 51.3102 28.0147 50.807 28.049C46.7033 28.3275 42.5996 28.59 38.4928 28.812C37.9888 28.8379 37.581 29.2637 37.581 29.7626V33.4706V33.4714Z" fill="#87E191"></path><path d="M61.1143 24.5426C63.9406 24.358 66.7685 24.1832 69.5971 24.0375C70.1011 24.0116 70.509 23.5866 70.509 23.0869V20.1922C70.509 19.6925 70.1011 19.308 69.5971 19.3339C67.0724 19.4705 64.5493 19.62 62.0261 19.7795C61.5221 19.8115 61.1143 19.4338 61.1143 18.9341V16.0402C61.1143 15.5405 61.5229 15.1087 62.0261 15.0766C63.1934 15.0011 63.7775 14.9645 64.9448 14.8935C65.4488 14.863 65.8566 14.4342 65.8566 13.9345V11.0406C65.8566 10.5409 65.448 10.1601 64.9448 10.1907C63.7775 10.2616 63.1934 10.2982 62.0261 10.3738C61.5221 10.4058 61.1143 10.0282 61.1143 9.52842V6.72456C61.1143 6.22483 61.5229 5.79299 62.0261 5.76095C64.5493 5.60149 67.0724 5.45195 69.5971 5.31538C70.1011 5.28944 70.509 4.86372 70.509 4.36474V1.47162C70.509 0.971888 70.1004 0.587359 69.5971 0.6133C65.4904 0.834556 61.3867 1.09701 57.283 1.37473C56.779 1.40906 56.3712 1.84242 56.3712 2.34139V23.9582C56.3712 24.4579 56.7798 24.834 57.283 24.7997C58.4872 24.7173 59.089 24.6769 60.2932 24.5968C60.6218 24.5746 60.7857 24.5639 61.1143 24.5426Z" fill="white"></path><path d="M93.8614 31.2795V35.1683C93.8614 35.668 94.27 36.0899 94.7733 36.1151C95.9406 36.1723 96.5246 36.2059 97.6919 36.2837C98.1959 36.3173 98.6038 36.7522 98.6038 37.2519V40.0558C98.6038 40.5555 99.0124 40.9896 99.5156 41.0293C100.647 41.1178 101.212 41.1666 102.343 41.2765C102.848 41.3253 103.255 41.7732 103.255 42.2722V45.076C103.255 45.575 102.847 45.9381 102.343 45.8886C99.8211 45.6612 97.301 45.4796 94.7725 45.3408C94.2685 45.3156 93.8607 45.7032 93.8607 46.2029V49.0968C93.8607 49.5965 94.2693 50.0192 94.7725 50.0436C97.6042 50.1863 100.435 50.3862 103.255 50.683C104.788 50.8417 105.554 50.9309 107.087 51.1316C107.591 51.198 107.998 50.8493 107.998 50.3503V38.1408C107.998 37.641 107.59 37.1794 107.087 37.1138C105.554 36.9132 104.788 36.8239 103.255 36.6652C101.759 36.5103 101.012 36.4432 99.5156 36.3265C99.0116 36.2868 98.6038 35.8527 98.6038 35.3529V32.5491C98.6038 32.0493 99.0124 31.674 99.5156 31.7129C102.046 31.928 104.566 32.189 107.087 32.5002C107.591 32.5666 107.998 32.2179 107.998 31.719V28.8251C107.998 28.3254 107.59 27.8638 107.087 27.7974C102.988 27.29 98.8954 26.936 94.7725 26.7094C94.2685 26.6842 93.8607 27.0718 93.8607 27.5716V31.2795H93.8614Z" fill="#87E191"></path><path d="M27.2737 17.0139C26.1425 17.0345 25.577 17.0421 24.4458 17.0498C23.9418 17.0536 23.534 16.6492 23.534 16.1502V8.64353C23.534 8.1438 23.9426 7.73791 24.4458 7.73409C25.577 7.72646 26.1425 7.71883 27.2737 7.69823C27.7777 7.68908 28.1855 8.08505 28.1855 8.58479V16.0915C28.1855 16.5912 27.7769 17.0047 27.2737 17.0139ZM18.7908 7.61202V25.5193C18.7908 26.0191 19.1994 26.4318 19.7027 26.4387C20.87 26.4555 21.454 26.46 22.6214 26.4608C23.1254 26.4608 23.5332 26.0549 23.5332 25.5552V22.6613C23.5332 22.1616 23.9418 21.7557 24.445 21.7518C25.5762 21.7442 26.1418 21.7366 27.2729 21.716C27.7769 21.7068 28.1848 22.1028 28.1848 22.6018V25.4056C28.1848 25.9054 28.5934 26.3013 29.0966 26.2891C30.2639 26.2601 30.848 26.2418 32.0153 26.2014C32.5193 26.1838 32.9271 25.7635 32.9271 25.2645V22.3706C32.9271 21.8709 32.5185 21.4818 32.0153 21.4993C30.8841 21.5382 30.3186 21.5558 29.1874 21.5848C28.6834 21.5977 28.2756 21.2018 28.2756 20.702V17.8982C28.2756 17.3984 28.6842 16.9849 29.1874 16.9719C30.3186 16.9429 30.8841 16.9262 32.0153 16.8865C32.5193 16.8689 32.9271 16.4486 32.9271 15.9488V3.74003C32.9271 3.24029 32.5185 2.85119 32.0153 2.86873C27.9093 2.99844 23.8094 3.05566 19.7012 3.01522C19.1971 3.00759 18.7893 3.40509 18.7893 3.90406V7.61202H18.7908Z" fill="white"></path><path d="M64.9456 41.2131C63.8144 41.2817 63.2488 41.3168 62.1177 41.3901C61.6137 41.4221 61.2058 41.0444 61.2058 40.5447V33.038C61.2058 32.5383 61.6144 32.1064 62.1177 32.0744C63.2488 32.0019 63.8144 31.9661 64.9456 31.8974C65.4496 31.8669 65.8574 32.2476 65.8574 32.7473V40.254C65.8574 40.7538 65.4496 41.1825 64.9456 41.2131ZM56.4627 32.3628V50.2701C56.4627 50.7698 56.8713 51.146 57.3746 51.1116C58.5426 51.0323 59.1259 50.9926 60.2932 50.9148C60.7972 50.8812 61.2051 50.4501 61.2051 49.9504V47.0565C61.2051 46.5568 61.6137 46.125 62.1169 46.0929C63.2481 46.0197 63.8136 45.9846 64.9448 45.9159C65.4488 45.8854 65.8566 46.2661 65.8566 46.7658V49.5697C65.8566 50.0694 66.2652 50.4501 66.7685 50.4212C67.9358 50.354 68.5198 50.322 69.6871 50.2617C70.1912 50.2358 70.599 49.8108 70.599 49.3111V46.4172C70.599 45.9174 70.1904 45.5329 69.6871 45.5588C68.556 45.6168 67.9904 45.6481 66.8593 45.713C66.3553 45.742 65.9474 45.3612 65.9474 44.8615V42.0576C65.9474 41.5587 66.356 41.1291 66.8593 41.1001C67.9904 41.0353 68.556 41.004 69.6871 40.946C70.1912 40.9201 70.599 40.4951 70.599 39.9954C70.599 37.1915 70.599 34.3877 70.599 31.5846V27.7858C70.599 27.2861 70.1904 26.9016 69.6871 26.9275C65.5804 27.148 61.4767 27.4097 57.373 27.6874C56.869 27.7217 56.4612 28.1543 56.4612 28.6541V32.362L56.4627 32.3628Z" fill="#87E191"></path></svg>