<svg id="Calque_1" data-name="Calque 1" xmlns="http://www.w3.org/2000/svg" width="6.52mm" height="6.52mm" viewBox="0 0 18.48 18.48"><defs><style>.cls-1{fill:#ef7918;}</style></defs><path class="cls-1" d="M7.83,10.65a1,1,0,0,1,0,1.42,1,1,0,0,1-1.42,0A5,5,0,0,1,6.41,5h0L10,1.46A5,5,0,0,1,17,8.53L15.53,10a6.91,6.91,0,0,0-.4-2.42l.47-.48a3,3,0,1,0-4.24-4.24L7.83,6.41a3,3,0,0,0,0,4.24m2.82-4.24a1,1,0,0,1,1.42,0,5,5,0,0,1,0,7.07h0L8.53,17A5,5,0,0,1,1.46,10L3,8.46a7,7,0,0,0,.4,2.43l-.47.47A3,3,0,0,0,7.12,15.6l3.53-3.53a3,3,0,0,0,0-4.24A1,1,0,0,1,10.65,6.41Z"/></svg>