<svg id="Calque_1" data-name="Calque 1" xmlns="http://www.w3.org/2000/svg" width="82.4" height="100" viewBox="0 0 82.4 100"><defs><style>.cls-1{fill:#e6147c;}.cls-2{fill:#03b7d5;}.cls-3{fill:#f07f25;}</style></defs><path class="cls-1" d="M52.73,55.23C56.25,38.47,67.57,4.85,49,.17L48.87,0C35,14.17,39.27,43.31,52.73,55.23" transform="translate(-7.8 0)"/><path class="cls-2" d="M58.63,57.26c-2.45-25.17,41.48-41.81,29.5-10.07-8.14-10-22.83,4.08-29.5,10.07" transform="translate(-7.8 0)"/><path class="cls-2" d="M42.47,55.28c.84-20.91-31.3-30.18-34.67-5.94,11.16-7.24,24.67.54,34.52,6.82" transform="translate(-7.8 0)"/><path class="cls-2" d="M48.91,69.6C47,74.94,36.34,95.94,33.23,85.85" transform="translate(-7.8 0)"/><path class="cls-2" d="M56.05,70.7C53.53,76,61.58,91,65.58,81.89" transform="translate(-7.8 0)"/><path class="cls-3" d="M37.06,61.69,35,67.24q7.34-.15,14.68-.65c5.33-.35,10.74-.85,15.92-.34a3,3,0,0,0,1.3,0,1.24,1.24,0,0,0,.66-.58,10.86,10.86,0,0,0,1.73-5.54.37.37,0,0,0-.18-.39,1.53,1.53,0,0,0-.73-.09l-28.49.86a7,7,0,0,0-1.8.21c-.55.18-1,.55-.79.88" transform="translate(-7.8 0)"/><path class="cls-1" d="M51.86,70.68s-5,24.86-.74,28.4C59.59,106.11,51.86,70.68,51.86,70.68Z" transform="translate(-7.8 0)"/></svg>