<?xml version="1.0" encoding="UTF-8"?><svg id="a" xmlns="http://www.w3.org/2000/svg" width="150" height="150" viewBox="0 0 150 150"><defs><style>.b{opacity:.03;}.b,.c{fill:#EF7918;}</style></defs><path class="c" d="M25,34.97c.02-2.73,2.23-4.94,4.96-4.96H120.04c2.74,0,4.96,2.22,4.96,4.96V115.03c-.02,2.73-2.23,4.94-4.96,4.96H29.96c-2.74,0-4.96-2.22-4.96-4.96V34.97Zm10,5.03V110H115V40H35Zm33.11,17.07l24.39,16.26c.92,.61,1.17,1.85,.56,2.77-.15,.22-.34,.41-.56,.56l-24.4,16.26c-.92,.61-2.16,.36-2.77-.56-.22-.33-.33-.71-.33-1.1V58.74c0-1.1,.9-2,2-2,.39,0,.78,.12,1.11,.34Z"/></svg>