<?xml version="1.0" encoding="UTF-8"?><svg id="Calque_1" xmlns="http://www.w3.org/2000/svg" width="251.96" height="273.63" viewBox="0 0 251.96 273.63"><rect width="251.96" height="273.63" style="fill:#fff; opacity:0; stroke-width:0px;"/><path d="M88.79,32.28v36.43c-33.83,0-61.15,27.89-60.22,61.94.9,32.81,28.65,58.55,61.47,58.55h0c32.58,0,58.99-26.41,58.99-58.99V32.28h-60.24ZM94.78,150.73c-15.34,2.52-28.42-10.56-25.9-25.9,1.52-9.29,9.02-16.78,18.31-18.31,15.34-2.52,28.42,10.56,25.9,25.9-1.52,9.29-9.02,16.78-18.31,18.31Z" style="fill:#000; stroke-width:0px;"/><path d="M161.49,32.28h58.84v156.91h0c-32.48,0-58.84-26.37-58.84-58.84V32.28h0Z" style="fill:#000; opacity:.5; stroke-width:0px;"/><path d="M45.92,205.73v8.27c-7.55,0-13.67,6.12-13.67,13.67s6.12,13.67,13.67,13.67h13.67v-35.62h-13.67ZM46.42,232.69c-2.81,0-5.09-2.28-5.09-5.09s2.28-5.09,5.09-5.09,5.09,2.28,5.09,5.09-2.28,5.09-5.09,5.09Z" style="fill:#000; opacity:.5; stroke-width:0px;"/><polygon points="86.94 213.92 100.11 213.92 104.53 221.75 108.81 213.92 122.12 213.92 104.53 241.35 86.94 213.92" style="fill:#000; opacity:.5; stroke-width:0px;"/><path d="M75.95,228.94h13.61v-3.05c-.87-6.71-6.61-11.89-13.55-11.89-7.55,0-13.67,6.12-13.67,13.67s6.12,13.67,13.67,13.67c2.87,0,5.52-.88,7.72-2.39l-4.49-6.87-.11-.4c-.86.67-1.94,1.07-3.12,1.07-2.81,0-5.09-2.28-5.09-5.09s2.28-5.09,5.09-5.09c2.18,0,4.04,1.38,4.76,3.31h-4.82v3.05Z" style="fill:#000; opacity:.5; stroke-width:0px;"/><path d="M207,228.94h13.61v-3.05c-.87-6.71-6.61-11.89-13.55-11.89-7.55,0-13.67,6.12-13.67,13.67s6.12,13.67,13.67,13.67c2.87,0,5.52-.88,7.72-2.39l-4.49-6.87-.11-.4c-.86.67-1.94,1.07-3.12,1.07-2.81,0-5.09-2.28-5.09-5.09s2.28-5.09,5.09-5.09c2.18,0,4.04,1.38,4.76,3.31h-4.82v3.05Z" style="fill:#000; stroke-width:0px;"/><rect x="142.29" y="219.32" width="13.48" height="22.03" style="fill:#000; stroke-width:0px;"/><circle cx="149.04" cy="210.82" r="5.09" style="fill:#000; stroke-width:0px;"/><path d="M159.17,205.73h13.36v35.62h0c-7.37,0-13.36-5.98-13.36-13.36v-22.26h0Z" style="fill:#000; stroke-width:0px;"/><path d="M125.06,205.73h13.36v35.62h0c-7.37,0-13.36-5.98-13.36-13.36v-22.26h0Z" style="fill:#000; stroke-width:0px;"/><path d="M176.38,205.73h13.36v35.62h0c-7.37,0-13.36-5.98-13.36-13.36v-22.26h0Z" style="fill:#000; stroke-width:0px;"/></svg>