<?xml version="1.0" encoding="UTF-8"?><svg id="Calque_1" xmlns="http://www.w3.org/2000/svg" width="342.89" height="346.38" viewBox="0 0 342.89 346.38"><rect x="28.21" y="27.66" width="286.47" height="291.06" transform="translate(41.75 -33.13) rotate(12.56)" style="fill:#ffb226; stroke-width:0px;"/><rect x="27.21" y="27.66" width="286.47" height="291.06" style="fill:#00a6e8; stroke-width:0px;"/><path d="M133.65,68.66v36.43c-33.83,0-61.15,27.89-60.22,61.94.9,32.81,28.65,58.55,61.47,58.55h0c32.58,0,58.99-26.41,58.99-58.99v-97.92h-60.24ZM139.64,187.1c-15.34,2.52-28.42-10.56-25.9-25.9,1.52-9.29,9.02-16.78,18.31-18.31,15.34-2.52,28.42,10.56,25.9,25.9-1.52,9.29-9.02,16.78-18.31,18.31Z" style="fill:#fff; stroke-width:0px;"/><path d="M206.35,68.66h58.84v156.91h0c-32.48,0-58.84-26.37-58.84-58.84v-98.07h0Z" style="fill:#ffb226; stroke-width:0px;"/><path d="M90.79,242.11v8.27c-7.55,0-13.67,6.12-13.67,13.67s6.12,13.67,13.67,13.67h13.67v-35.62h-13.67ZM91.29,269.06c-2.81,0-5.09-2.28-5.09-5.09s2.28-5.09,5.09-5.09,5.09,2.28,5.09,5.09-2.28,5.09-5.09,5.09Z" style="fill:#ffb226; stroke-width:0px;"/><polygon points="131.8 250.3 144.98 250.3 149.39 258.13 153.68 250.3 166.98 250.3 149.39 277.72 131.8 250.3" style="fill:#ffb226; stroke-width:0px;"/><path d="M120.82,265.32h13.61v-3.05c-.87-6.71-6.61-11.89-13.55-11.89-7.55,0-13.67,6.12-13.67,13.67s6.12,13.67,13.67,13.67c2.87,0,5.52-.88,7.72-2.39l-4.49-6.87-.11-.4c-.86.67-1.94,1.07-3.12,1.07-2.81,0-5.09-2.28-5.09-5.09s2.28-5.09,5.09-5.09c2.18,0,4.04,1.38,4.76,3.31h-4.82v3.05Z" style="fill:#ffb226; stroke-width:0px;"/><path d="M251.87,265.32h13.61v-3.05c-.87-6.71-6.61-11.89-13.55-11.89-7.55,0-13.67,6.12-13.67,13.67s6.12,13.67,13.67,13.67c2.87,0,5.52-.88,7.72-2.39l-4.49-6.87-.11-.4c-.86.67-1.94,1.07-3.12,1.07-2.81,0-5.09-2.28-5.09-5.09s2.28-5.09,5.09-5.09c2.18,0,4.04,1.38,4.76,3.31h-4.82v3.05Z" style="fill:#fff; stroke-width:0px;"/><rect x="187.16" y="255.7" width="13.48" height="22.03" style="fill:#fff; stroke-width:0px;"/><circle cx="193.9" cy="247.19" r="5.09" style="fill:#fff; stroke-width:0px;"/><path d="M204.04,242.11h13.36v35.62h0c-7.37,0-13.36-5.98-13.36-13.36v-22.26h0Z" style="fill:#fff; stroke-width:0px;"/><path d="M169.92,242.11h13.36v35.62h0c-7.37,0-13.36-5.98-13.36-13.36v-22.26h0Z" style="fill:#fff; stroke-width:0px;"/><path d="M221.25,242.11h13.36v35.62h0c-7.37,0-13.36-5.98-13.36-13.36v-22.26h0Z" style="fill:#fff; stroke-width:0px;"/></svg>