<?xml version="1.0" encoding="UTF-8"?><svg id="Calque_1" xmlns="http://www.w3.org/2000/svg" width="1808.16" height="1186.96" viewBox="0 0 1808.16 1186.96"><g style="opacity:.1;"><path d="M11.48,1011.54l465.6-468.88c18.57-18.57,33.61-35.78,45.08-51.64,11.48-15.83,19.67-30.86,24.59-45.08,4.92-14.19,7.38-28.94,7.38-44.26,0-38.24-12.3-68.58-36.89-90.99-24.59-22.38-57.66-33.61-99.19-33.61-37.17,0-71.6,11.22-103.28,33.61-31.72,22.42-65.58,60.4-101.65,113.94L0,232.81C48.08,156.31,110.09,98.36,186.07,59.02,262.03,19.67,348.63,0,445.93,0c88.53,0,164.77,15.57,228.7,46.72,63.94,31.15,113.12,75.69,147.56,133.62,34.43,57.94,51.64,126.8,51.64,206.57,0,44.83-6.02,86.89-18.03,126.24-12.04,39.35-31.15,77.87-57.39,115.58-26.23,37.7-60.12,76.23-101.65,115.58l-293.46,278.7-391.83-11.48h.01ZM11.48,1186.96v-175.42l272.15-93.45h614.79v268.87H11.48Z" style="fill:#fff;"/></g><g style="opacity:.1;"><path d="M1355.67,1186.96c-85.25,0-162.05-18.03-230.34-54.1-68.32-36.07-122.42-84.97-162.31-146.73-39.91-61.73-59.84-131.41-59.84-209.03,0-91.81,31.69-184.16,95.09-277.07L1337.64,0h363.96l-391.83,541.02-122.96-26.23c18.57-27.31,36.32-50.82,53.28-70.5,16.93-19.67,37.71-34.97,62.3-45.9,24.59-10.91,57.1-16.4,97.55-16.4,76.49,0,145.35,17.78,206.57,53.28,61.2,35.53,110.1,83.07,146.73,142.63,36.61,59.58,54.92,125.98,54.92,199.19,0,77.62-19.95,147.29-59.84,209.03-39.91,61.76-93.73,110.66-161.49,146.73-67.78,36.07-144.84,54.1-231.16,54.1ZM1355.67,914.81c27.31,0,51.64-6.28,72.96-18.85,21.31-12.55,37.96-30.05,50-52.46,12.01-22.39,18.03-47.8,18.03-76.23s-6.02-53.82-18.03-76.23c-12.04-22.39-28.69-39.88-50-52.46-21.31-12.55-45.65-18.85-72.96-18.85s-51.64,6.3-72.96,18.85c-21.31,12.58-37.99,30.07-50,52.46-12.04,22.41-18.03,47.83-18.03,76.23s5.99,53.85,18.03,76.23c12.01,22.41,28.69,39.91,50,52.46,21.31,12.58,45.62,18.85,72.96,18.85Z" style="fill:#fff;"/></g></svg>