<?xml version="1.0" encoding="UTF-8"?><svg id="Calque_1" xmlns="http://www.w3.org/2000/svg" width="1808.16" height="1186.96" viewBox="0 0 1808.16 1186.96"><g style="opacity:.1;"><path d="M11.29,995.05l458.01-461.24c18.27-18.27,33.06-35.2,44.35-50.8,11.29-15.57,19.35-30.36,24.19-44.35,4.84-13.96,7.26-28.47,7.26-43.54,0-37.62-12.1-67.46-36.29-89.51-24.19-22.02-56.72-33.06-97.57-33.06-36.56,0-70.43,11.04-101.6,33.06-31.2,22.05-64.51,59.42-99.99,112.08L0,229.01C47.3,153.76,108.3,96.76,183.04,58.06,257.76,19.35,342.95,0,438.66,0c87.09,0,162.08,15.32,224.97,45.96,62.9,30.64,111.28,74.46,145.15,131.44,33.87,57,50.8,124.73,50.8,203.2,0,44.1-5.92,85.47-17.74,124.18-11.84,38.71-30.64,76.6-56.45,113.7-25.8,37.09-59.14,74.99-99.99,113.7l-288.68,274.16-385.44-11.29ZM11.29,1167.61v-172.56l267.71-91.93h604.77v264.49H11.29Z" style="fill:#fff; stroke-width:0px;"/><path d="M1337.25,1186.96c-78.5,0-155.1-13.71-229.81-41.13-74.74-27.42-136.28-66.37-184.66-116.92l203.2-198.36c18.27,25.8,45.96,47.05,83.06,63.7,37.09,16.68,75.52,25,115.31,25,34.39,0,63.95-5.9,88.7-17.74,24.72-11.82,44.07-28.75,58.06-50.8,13.96-22.02,20.97-47.58,20.97-76.6s-7.26-55.08-21.77-78.22c-14.52-23.11-35.76-41.38-63.7-54.83-27.97-13.43-62.37-20.16-103.21-20.16-34.42,0-66.67,5.39-96.76,16.13-30.11,10.76-55.92,24.19-77.41,40.32l35.48-206.43c32.25-16.13,59.67-29.56,82.25-40.32,22.58-10.74,45.69-18.55,69.35-23.38,23.64-4.84,51.61-7.26,83.86-7.26,89.23,0,163.94,17.74,224.17,53.22,60.2,35.48,105.89,82.53,137.08,141.11,31.17,58.61,46.77,122.31,46.77,191.11,0,78.49-19.1,148.12-57.25,208.85-38.18,60.75-92.2,108.05-162.08,141.92-69.9,33.87-153.76,50.8-251.58,50.8ZM1129.21,677.34l-117.73-103.21,59.67-554.77h287.06l-59.67,524.13-169.33,133.85ZM1106.63,283.84l-35.48-264.49h674.12v264.49h-638.64Z" style="fill:#fff; stroke-width:0px;"/></g></svg>