<?xml version="1.0" encoding="UTF-8"?><svg id="Calque_1" xmlns="http://www.w3.org/2000/svg" width="319.98" height="451.25" viewBox="0 0 319.98 451.25"><path d="M177.76,34.78v8.52C108.26,59.9,56.35,123.42,56.35,199.04c0,88.2,70.62,159.96,157.42,159.96,40.9,0,78.19-15.94,106.21-42.02v11.11c-28.78,24.46-65.83,39.22-106.21,39.22-91.38,0-165.72-75.48-165.72-168.27,0-80.23,55.59-147.51,129.71-164.25Z" style="fill:#80abb9; opacity:.7;"/><path d="M14.7,451.25l3.13-3.25C-2.93,415.8.36,372.24,28.15,343.37c32.42-33.67,86.08-34.78,119.63-2.47,15.81,15.22,24.36,35.19,25.6,55.57l4.08-4.24c-2.13-20.05-11.02-39.47-26.63-54.5-35.32-34.01-91.79-32.86-125.89,2.55-29.49,30.62-32.73,76.99-10.24,110.97Z" style="fill:#f9c3e6; opacity:.7;"/><path d="M223.36,121.2v5.79c-47.22,11.27-82.47,54.43-82.47,105.79,0,59.92,47.97,108.67,106.94,108.67,27.78,0,53.12-10.83,72.15-28.55v7.54c-19.55,16.62-44.72,26.64-72.15,26.64-62.08,0-112.58-51.28-112.58-114.31,0-54.5,37.76-100.21,88.12-111.58Z" style="fill:#fff2bd; opacity:.5;"/><rect x="173.08" y="71.4" width="16.85" height="16.85" transform="translate(378.95 97.99) rotate(161.52)" style="fill:#fff; opacity:.4;"/><circle cx="88.73" cy="285.66" r="11.51" style="fill:#ffbb3d; opacity:.5;"/><path d="M121.49,0l2.79,6.54c-47.88,35.49-66.9,101.22-42.13,159.23,28.89,67.67,106.56,99.59,173.15,71.16,29.06-12.41,51.27-34.3,64.68-60.65v14.03c-14.35,22.86-35.44,41.68-61.96,53-70.1,29.93-151.86-3.63-182.24-74.81C49.5,106.94,70.11,37.12,121.49,0Z" style="fill:#ffbb3d; opacity:.5;"/></svg>