<?xml version="1.0" encoding="UTF-8"?><svg id="Calque_1" xmlns="http://www.w3.org/2000/svg" width="512" height="470.65" viewBox="0 0 512 470.65"><path d="M216.87,240.29h-10.01l64.05-76.01c5.61-5.23,10.59-11.13,14.81-17.57l.09-.11h-.02c9.71-14.89,15.37-32.65,15.37-51.74C301.16,42.47,258.69,0,206.31,0s-94.86,42.47-94.86,94.86c0,28.65,12.72,54.31,32.79,71.7l36.21-44.59c-5.71-6.34-9.89-17.91-9.89-27.11,0-19.74,16.01-35.75,35.75-35.75s35.75,16.01,35.75,35.75c0,17.86-13.11,32.61-30.22,35.28l-93.08,110.16v77.01h176.65s-2.56-70.67-78.54-77.01Z" style="fill:#fff; opacity:.5;"/><path d="M375.82,176.24v65.23c14.65,3.33,25.6,16.42,25.6,32.08,0,18.18-14.74,32.92-32.92,32.92s-32.92-14.74-32.92-32.92c0-10.09,4.55-19.11,11.7-25.15v-123.06c-6.34-75.97-77.01-78.54-77.01-78.54v223.69c0,52.41,42.49,94.9,94.9,94.9s94.9-42.49,94.9-94.9c0-48.8-36.86-88.95-84.25-94.25Z" style="fill:#fff; opacity:.5;"/><g style="opacity:.5;"><circle cx="79.85" cy="100.93" r="19.61" style="fill:#f9c3e6;"/><path d="M156.25,92.36c-5.33-4.46-10.73-8.41-16.21-11.87l15.28-28.5-10.22-5.48-15.12,28.2c-5.09-2.61-10.23-4.8-15.42-6.58l7.66-31.52-11.27-2.74-7.56,31.12c-5.27-1.17-10.58-1.93-15.94-2.25V29.64h-11.59v33.06c-5.23.27-10.51.94-15.81,2.01l-7.49-30.83-11.27,2.74,7.52,30.95c-5.69,1.75-10.99,3.86-15.84,6.11l-14.56-27.15-10.22,5.48,14.48,27c-8.96,5.12-15.58,10.22-19.19,13.23h0C1.3,94.04.03,96.7,0,99.53c-.03,2.82,1.17,5.5,3.3,7.35,7.74,6.75,28.73,23.15,56.37,29.64,7.93,1.86,15.74,2.79,23.41,2.79,26.27,0,50.96-10.91,73.64-32.58,1.98-1.89,3.06-4.55,2.97-7.29-.09-2.74-1.35-5.32-3.45-7.08ZM12.69,99.66c18.14-14.51,73.29-49.49,134.42.2-58.37,54.11-115.56,15.61-134.42-.2Z" style="fill:#f9c3e6;"/></g><polygon points="306.03 391.25 306.03 195.01 270.27 195.01 270.27 391.25 225.98 391.25 288.15 470.65 350.32 391.25 306.03 391.25" style="fill:#00a6e8; opacity:.5;"/><rect x="56.02" y="265.81" width="86.88" height="86.88" transform="translate(117.64 -15.09) rotate(21.04)" style="fill:#ffbb3d; opacity:.5;"/><g style="opacity:.5;"><path d="M432.66,80.33c-43.82,0-79.34,35.52-79.34,79.34s35.52,79.34,79.34,79.34,79.34-35.52,79.34-79.34-35.52-79.34-79.34-79.34ZM432.66,227.55c-37.49,0-67.88-30.39-67.88-67.88s30.39-67.88,67.88-67.88,67.88,30.39,67.88,67.88-30.39,67.88-67.88,67.88Z" style="fill:#fff2bd;"/><path d="M432.66,112.13c-26.26,0-47.54,21.29-47.54,47.54s21.29,47.54,47.54,47.54,47.54-21.29,47.54-47.54-21.29-47.54-47.54-47.54ZM432.66,197.44c-20.86,0-37.77-16.91-37.77-37.77s16.91-37.77,37.77-37.77,37.77,16.91,37.77,37.77-16.91,37.77-37.77,37.77Z" style="fill:#fff2bd;"/><circle cx="432.66" cy="159.67" r="16.1" style="fill:#fff2bd;"/></g></svg>