<?xml version="1.0" encoding="UTF-8"?><svg id="Calque_1" xmlns="http://www.w3.org/2000/svg" width="791.39" height="611.88" viewBox="0 0 791.39 611.88"><path d="M111.81,0l493.91,110.04-111.81,501.84L0,501.84,111.81,0Z" style="fill:#ffb226;"/><path d="M48.11,48.85h506.02v514.14H48.11V48.85Z" style="fill:#005772;"/><path d="M236.12,121.28v64.34c-59.76,0-108.02,49.27-106.37,109.4,1.59,57.96,50.6,103.42,108.59,103.42s104.2-46.65,104.2-104.2V121.28h-106.42ZM246.71,330.5c-27.1,4.44-50.19-18.65-45.75-45.75,2.69-16.41,15.93-29.65,32.34-32.34,27.1-4.45,50.2,18.65,45.75,45.75-2.69,16.41-15.93,29.65-32.34,32.34h0Z" style="fill:#ffb226;"/><path d="M364.54,121.28h103.94v277.17c-57.36,0-103.94-46.57-103.94-103.94V121.28ZM160.41,427.66v14.6c-13.34,0-24.15,10.81-24.15,24.15s10.81,24.15,24.15,24.15h24.15v-62.91h-24.15ZM161.29,475.27c-4.96,0-8.99-4.02-8.99-8.99s4.02-8.99,8.99-8.99,8.99,4.02,8.99,8.99-4.02,8.99-8.99,8.99ZM232.86,442.13h23.27l7.8,13.83,7.57-13.83h23.5l-31.07,48.44-31.07-48.44h0ZM213.45,468.66h24.05v-5.39c-1.54-11.85-11.67-21.01-23.94-21.01-13.34,0-24.15,10.81-24.15,24.15s10.81,24.15,24.15,24.15c5.06,0,9.76-1.56,13.64-4.22l-7.94-12.14-.2-.7c-1.57,1.23-3.51,1.9-5.51,1.9-4.96,0-8.99-4.02-8.99-8.99s4.02-8.99,8.99-8.99c3.86,0,7.13,2.43,8.41,5.84h-8.52v5.39h0Z" style="fill:#00a6e8;"/><path d="M444.94,468.66h24.05v-5.39c-1.54-11.85-11.67-21.01-23.94-21.01-13.34,0-24.15,10.81-24.15,24.15s10.81,24.15,24.15,24.15c5.06,0,9.76-1.56,13.64-4.22l-7.94-12.14-.2-.7c-1.57,1.23-3.51,1.9-5.51,1.9-4.96,0-8.99-4.02-8.99-8.99s4.02-8.99,8.99-8.99c3.86,0,7.13,2.43,8.41,5.84h-8.52v5.39h.01ZM330.64,451.66h23.82v38.91h-23.82v-38.91Z" style="fill:#ffb226;"/><circle cx="342.55" cy="436.65" r="8.99" style="fill:#ffb226;"/><path d="M360.46,427.66h23.59v62.91c-13.02,0-23.59-10.57-23.59-23.59v-39.32ZM300.19,427.66h23.59v62.91c-13.02,0-23.59-10.57-23.59-23.59v-39.32ZM390.86,427.66h23.59v62.91c-13.02,0-23.59-10.57-23.59-23.59v-39.32Z" style="fill:#ffb226;"/><path d="M630.78,136.71l40.19-40.47c1.6-1.6,2.9-3.09,3.89-4.46.99-1.37,1.7-2.66,2.12-3.89.42-1.23.64-2.5.64-3.82,0-3.3-1.06-5.92-3.18-7.85-2.12-1.93-4.98-2.9-8.56-2.9-3.21,0-6.18.97-8.92,2.9-2.74,1.93-5.66,5.21-8.77,9.83l-18.4-16.56c4.15-6.6,9.5-11.6,16.06-15,6.56-3.4,14.03-5.09,22.43-5.09,7.64,0,14.22,1.34,19.74,4.03,5.52,2.69,9.76,6.53,12.74,11.53,2.97,5,4.46,10.94,4.46,17.83,0,3.87-.52,7.5-1.56,10.9-1.04,3.4-2.69,6.72-4.95,9.98-2.26,3.25-5.19,6.58-8.77,9.98l-25.33,24.06-33.82-.99ZM630.78,151.85v-15.14l23.49-8.07h53.07v23.21h-76.56Z" style="fill:#53bced;"/><path d="M752.33,153.55c-7.36,0-13.99-1.56-19.88-4.67-5.9-3.11-10.57-7.33-14.01-12.67-3.45-5.33-5.17-11.34-5.17-18.04,0-7.92,2.74-15.9,8.21-23.92l29.29-43.16h31.42l-33.82,46.7-10.61-2.26c1.6-2.36,3.14-4.39,4.6-6.08,1.46-1.7,3.25-3.02,5.38-3.96,2.12-.94,4.93-1.42,8.42-1.42,6.6,0,12.54,1.53,17.83,4.6,5.28,3.07,9.5,7.17,12.67,12.31,3.16,5.14,4.74,10.87,4.74,17.19,0,6.7-1.72,12.71-5.17,18.04-3.45,5.33-8.09,9.55-13.94,12.67-5.85,3.11-12.5,4.67-19.95,4.67ZM752.33,130.06c2.36,0,4.46-.54,6.3-1.63,1.84-1.08,3.28-2.59,4.32-4.53,1.04-1.93,1.56-4.13,1.56-6.58s-.52-4.65-1.56-6.58c-1.04-1.93-2.48-3.44-4.32-4.53-1.84-1.08-3.94-1.63-6.3-1.63s-4.46.54-6.3,1.63c-1.84,1.09-3.28,2.6-4.32,4.53-1.04,1.93-1.56,4.13-1.56,6.58s.52,4.65,1.56,6.58c1.04,1.93,2.48,3.44,4.32,4.53,1.84,1.09,3.94,1.63,6.3,1.63Z" style="fill:#53bced;"/></svg>