<?xml version="1.0" encoding="UTF-8"?>
<svg id="Calque_1" xmlns="http://www.w3.org/2000/svg" version="1.1" viewBox="0 0 1920 1080">
  <!-- Generator: Adobe Illustrator 29.4.0, SVG Export Plug-In . SVG Version: 2.1.0 Build 152)  -->
  <defs>
    <style>
      .st0 {
        fill: #fff;
      }
    </style>
  </defs>
  <g>
    <rect class="st0" x="54.9" y="149.3" width="1811" height="620.8"/>
    <path class="st0" d="M119.1,862.8c-3.5-3.5-7.8-6.3-12.9-8.4-5.2-2-11.2-3.1-18.1-3.1h-27.8v77.7h27.8c6.9,0,13-1.1,18.1-3.3,5.2-2.2,9.5-5.1,12.9-8.7,3.5-3.6,6.1-7.7,7.8-12.2,1.7-4.5,2.6-9.1,2.6-13.7v-2.3c0-4.8-.9-9.5-2.6-14-1.7-4.5-4.3-8.6-7.8-12.1ZM112.6,900.3c-1.2,3.1-2.8,5.7-5.1,7.9-2.2,2.2-4.9,4-8,5.2-3.1,1.2-6.6,1.8-10.6,1.8h-13.8v-50h13.8c3.9,0,7.4.6,10.6,1.7,3.1,1.2,5.8,2.8,8,5,2.2,2.2,3.9,4.8,5.1,7.8,1.2,3.1,1.7,6.5,1.7,10.3s-.6,7.1-1.7,10.2Z"/>
    <polygon class="st0" points="165.3 896 195.3 896 195.3 883.4 165.3 883.4 165.3 864.6 197.1 864.6 197.1 851.9 165.3 851.9 163.2 851.9 150.7 851.9 150.7 928.7 163.2 928.7 165.3 928.7 198 928.7 198 916.1 165.3 916.1 165.3 896"/>
    <path class="st0" d="M264.7,887c-4.1-1.9-8.9-3.1-14.5-3.5l-6.6-.6c-3.8-.3-6.6-1.3-8.3-3.1-1.8-1.8-2.6-3.9-2.6-6.3s.5-3.8,1.5-5.4c1-1.6,2.4-3,4.4-4,1.9-1,4.4-1.5,7.3-1.5s5.6.6,7.7,1.7c2,1.1,3.5,2.6,4.5,4.4,1,1.8,1.5,3.7,1.5,5.7h14.6c0-5-1.1-9.3-3.4-13-2.3-3.7-5.5-6.5-9.8-8.6-4.2-2-9.3-3-15.1-3s-10.5,1-14.7,2.9c-4.2,1.9-7.4,4.7-9.7,8.2-2.3,3.5-3.5,7.8-3.5,12.7s2.2,11.8,6.6,15.7c4.4,4,10.3,6.3,17.6,6.9l6.7.6c4.9.4,8.5,1.5,10.8,3.1,2.3,1.6,3.5,3.8,3.5,6.5s-.6,4.1-1.8,5.8c-1.2,1.7-3.1,3.1-5.5,4.2-2.4,1.1-5.5,1.6-9.2,1.6s-7.2-.6-9.7-1.8c-2.5-1.2-4.3-2.8-5.4-4.7-1.1-1.9-1.7-3.9-1.7-5.9h-14.6c0,4.8,1.2,9.2,3.6,13,2.4,3.8,6,6.8,10.7,9,4.7,2.2,10.4,3.3,17.1,3.3s11.9-1,16.6-3.1,8.3-4.9,10.8-8.6c2.5-3.7,3.8-7.9,3.8-12.8s-1.2-8.5-3.5-11.7c-2.3-3.2-5.5-5.8-9.6-7.7Z"/>
    <rect class="st0" x="299.6" y="851.9" width="14.9" height="76.8"/>
    <path class="st0" d="M374.9,900.9h21.7v8.5c-1.6,1.8-3.5,3.3-5.8,4.6-3.8,2.1-8.3,3.2-13.5,3.2s-7.2-.6-10.3-1.8c-3.1-1.2-5.7-3-7.9-5.4-2.2-2.3-3.9-5.2-5.1-8.6-1.2-3.4-1.8-7.1-1.8-11.4s.5-7.5,1.6-10.7c1.1-3.2,2.6-6,4.7-8.4,2-2.3,4.5-4.2,7.4-5.4,2.9-1.3,6.1-1.9,9.6-1.9s7,.6,9.9,1.9,5.5,3.1,7.4,5.4c2,2.3,3.2,5.2,3.6,8.5h15.1c-.6-5.8-2.4-11-5.6-15.4-3.2-4.4-7.3-7.9-12.5-10.5-5.2-2.5-11.2-3.8-18-3.8s-11.8,1.1-16.6,3.3c-4.8,2.2-8.8,5.2-12.1,8.9-3.3,3.8-5.7,7.9-7.4,12.6-1.6,4.6-2.5,9.4-2.5,14.2v2.3c0,5,.9,9.9,2.6,14.7,1.7,4.7,4.3,9,7.6,12.7,3.4,3.8,7.6,6.7,12.6,8.9,5,2.2,10.8,3.3,17.4,3.3s14-1.4,19.7-4.2c5.7-2.8,10.2-6.6,13.5-11.6v-14.1h6.4v-11.1h-41.9v11.1Z"/>
    <polygon class="st0" points="495.1 916.3 493.7 916.3 461.5 851.9 437 851.9 437 928.7 450.9 928.7 450.9 864.4 452.3 864.4 484.5 928.7 509.2 928.7 509.2 851.9 495.1 851.9 495.1 916.3"/>
    <rect class="st0" x="562.6" y="883.2" width="42.6" height="13"/>
    <path class="st0" d="M717.3,862.8c-3.5-3.5-7.8-6.3-12.9-8.4-5.2-2-11.2-3.1-18.1-3.1h-27.8v77.7h27.8c6.9,0,13-1.1,18.1-3.3,5.2-2.2,9.5-5.1,12.9-8.7,3.5-3.6,6.1-7.7,7.8-12.2,1.7-4.5,2.6-9.1,2.6-13.7v-2.3c0-4.8-.9-9.5-2.6-14-1.7-4.5-4.3-8.6-7.8-12.1ZM710.8,900.3c-1.2,3.1-2.8,5.7-5.1,7.9s-4.9,4-8,5.2c-3.1,1.2-6.6,1.8-10.6,1.8h-13.8v-50h13.8c3.9,0,7.4.6,10.6,1.7,3.1,1.2,5.8,2.8,8,5,2.2,2.2,3.9,4.8,5.1,7.8,1.2,3.1,1.7,6.5,1.7,10.3s-.6,7.1-1.7,10.2Z"/>
    <rect class="st0" x="749.1" y="851.9" width="14.9" height="76.8"/>
    <path class="st0" d="M824.4,900.9h21.7v8.5c-1.6,1.8-3.5,3.3-5.8,4.6-3.8,2.1-8.3,3.2-13.5,3.2s-7.2-.6-10.3-1.8c-3.1-1.2-5.7-3-7.9-5.4-2.2-2.3-3.9-5.2-5.1-8.6-1.2-3.4-1.8-7.1-1.8-11.4s.5-7.5,1.6-10.7c1.1-3.2,2.6-6,4.7-8.4,2-2.3,4.5-4.2,7.4-5.4,2.9-1.3,6.1-1.9,9.6-1.9s7,.6,9.9,1.9c3,1.3,5.5,3.1,7.4,5.4,2,2.3,3.2,5.2,3.6,8.5h15.1c-.6-5.8-2.4-11-5.6-15.4-3.2-4.4-7.3-7.9-12.5-10.5-5.2-2.5-11.2-3.8-18-3.8s-11.8,1.1-16.6,3.3c-4.8,2.2-8.8,5.2-12.1,8.9-3.3,3.8-5.7,7.9-7.4,12.6-1.6,4.6-2.5,9.4-2.5,14.2v2.3c0,5,.9,9.9,2.6,14.7,1.7,4.7,4.3,9,7.6,12.7,3.4,3.8,7.6,6.7,12.6,8.9,5,2.2,10.8,3.3,17.4,3.3s14-1.4,19.7-4.2c5.7-2.8,10.2-6.6,13.5-11.6v-14.1h6.4v-11.1h-41.9v11.1Z"/>
    <rect class="st0" x="886.6" y="851.9" width="14.9" height="76.8"/>
    <polygon class="st0" points="921.6 865.1 943.8 865.1 943.8 928.7 958.7 928.7 958.7 865.1 980.9 865.1 980.9 851.9 921.6 851.9 921.6 865.1"/>
    <path class="st0" d="M1012.7,851.9l-26.1,76.8h14.9l6.7-20.3h33.5l6.9,20.3h15.5l-26.9-76.8h-24.5ZM1012.5,895.7l10.4-31.2h3.9l10.7,31.2h-24.9Z"/>
    <polygon class="st0" points="1098.3 851.9 1083.3 851.9 1083.3 928.7 1096.2 928.7 1098.3 928.7 1129.3 928.7 1129.3 915.6 1098.3 915.6 1098.3 851.9"/>
    <rect class="st0" x="1175.9" y="883.2" width="42.6" height="13"/>
    <path class="st0" d="M1321,912.6c-3.9,2.8-8.8,4.3-14.5,4.3s-7.4-.7-10.4-2c-3-1.3-5.5-3.2-7.5-5.6-2-2.4-3.6-5.2-4.6-8.5-1-3.2-1.5-6.7-1.5-10.5s.5-7.4,1.5-10.6c1-3.2,2.5-6,4.5-8.4,2-2.4,4.4-4.2,7.4-5.6,2.9-1.3,6.3-2,10-2s7.1.6,10,1.9,5.4,3.1,7.4,5.5c1.9,2.4,3.1,5.3,3.6,8.8h15.1c-.6-6-2.5-11.3-5.6-15.8-3.1-4.5-7.2-8-12.4-10.5-5.2-2.5-11.3-3.8-18.2-3.8s-12.4,1.1-17.3,3.4c-4.9,2.3-8.9,5.3-12,9.1-3.1,3.8-5.4,8-6.9,12.6-1.5,4.6-2.3,9.3-2.3,14.1v2.3c0,4.3.7,8.8,2.2,13.4,1.5,4.6,3.8,8.9,6.9,12.8,3.1,4,7.1,7.2,12.1,9.6,4.9,2.4,10.9,3.6,17.9,3.6s13.6-1.4,18.8-4.1c5.3-2.7,9.4-6.4,12.4-10.9,3-4.6,4.9-9.6,5.6-15h-15.1c-.8,5.1-3.2,9.1-7.2,11.9Z"/>
    <path class="st0" d="M1430.2,862.3c-3.4-3.8-7.6-6.8-12.7-9.1-5.1-2.3-11-3.4-17.7-3.4s-12.6,1.1-17.7,3.4c-5.1,2.3-9.3,5.3-12.7,9.1-3.4,3.8-5.9,8-7.6,12.7-1.7,4.7-2.5,9.3-2.5,14v2.3c0,4.3.8,8.7,2.4,13.3,1.6,4.6,4.1,8.9,7.4,12.9,3.3,4,7.5,7.2,12.6,9.6,5.1,2.4,11.1,3.6,18,3.6s13-1.2,18-3.6c5.1-2.4,9.3-5.6,12.6-9.6,3.3-4,5.8-8.3,7.5-12.9,1.6-4.6,2.5-9,2.5-13.3v-2.3c0-4.7-.8-9.4-2.5-14s-4.2-8.9-7.6-12.7ZM1423.5,900.4c-1.2,3.2-2.8,6-5.1,8.5-2.2,2.5-4.9,4.4-8,5.8-3.2,1.4-6.7,2.1-10.6,2.1s-7.4-.7-10.5-2.1c-3.2-1.4-5.8-3.4-8-5.8-2.2-2.5-3.9-5.3-5.1-8.5-1.2-3.2-1.7-6.6-1.7-10.2s.6-7.3,1.7-10.5c1.2-3.2,2.8-6,5.1-8.5,2.2-2.4,4.9-4.3,8-5.6,3.2-1.3,6.7-2,10.5-2s7.5.7,10.6,2c3.1,1.3,5.8,3.2,8,5.6,2.2,2.4,3.9,5.2,5.1,8.5,1.2,3.2,1.8,6.7,1.8,10.5s-.6,7-1.7,10.2Z"/>
    <polygon class="st0" points="1520.7 916.3 1519.2 916.3 1487 851.9 1462.5 851.9 1462.5 928.7 1476.4 928.7 1476.4 864.4 1477.9 864.4 1510.1 928.7 1534.8 928.7 1534.8 851.9 1520.7 851.9 1520.7 916.3"/>
    <polygon class="st0" points="1554.6 865.1 1576.8 865.1 1576.8 928.7 1591.7 928.7 1591.7 865.1 1613.9 865.1 1613.9 851.9 1554.6 851.9 1554.6 865.1"/>
    <polygon class="st0" points="1648.3 896 1678.3 896 1678.3 883.4 1648.3 883.4 1648.3 864.6 1680.2 864.6 1680.2 851.9 1648.3 851.9 1646.2 851.9 1633.7 851.9 1633.7 928.7 1646.2 928.7 1648.3 928.7 1681 928.7 1681 916.1 1648.3 916.1 1648.3 896"/>
    <polygon class="st0" points="1762.4 916.3 1761 916.3 1728.8 851.9 1704.3 851.9 1704.3 928.7 1718.1 928.7 1718.1 864.4 1719.6 864.4 1751.8 928.7 1776.5 928.7 1776.5 851.9 1762.4 851.9 1762.4 916.3"/>
    <polygon class="st0" points="1796.3 865.1 1818.5 865.1 1818.5 928.7 1833.4 928.7 1833.4 865.1 1855.6 865.1 1855.6 851.9 1796.3 851.9 1796.3 865.1"/>
  </g>
  <g>
    <path d="M1596.6,439.9c0-6.3,5.1-11,11.3-11s11.3,4.8,11.3,11-4.5,11-11.3,11-11.3-4.5-11.3-11Z"/>
    <path d="M1655.7,374.3h-26v-18.2h73.2v18.2h-26.1v74.9h-21.2v-74.9Z"/>
    <path d="M1711,356.1h23.4l21.4,64.7h1.1l21.6-64.7h23.2l-34.6,93.2h-21.7l-34.3-93.2Z"/>
  </g>
  <g>
    <path d="M423,351.1h72v233.4h-72l-179.4-138.4v138.4h-72v-233.4h72l179.4,137.4v-137.4Z"/>
    <path d="M739.1,522.2c12.2,0,22.9-3.6,32-10.8,9.1-7.2,15.4-16.3,19-27.2h76c-3.6,31.6-17,56.9-40.3,75.9-23.3,19-52.2,28.5-86.7,28.5h-89.4c-36.9,0-67.5-11.2-91.7-33.5-24.2-22.3-36.3-51.4-36.3-87.2s11.9-64.9,35.8-87.2c23.9-22.3,54.6-33.5,92.2-33.5h89.4c34.5,0,63.4,9.5,86.7,28.5,23.3,19,36.8,44.3,40.3,75.9h-76c-3.6-10.4-9.9-19.1-19-25.8-9.1-6.8-19.8-10.2-32-10.2h-89.4c-15.6,0-28.3,5-38.3,14.8-10,9.9-15,22.4-15,37.5s4.9,29.1,14.8,39.2c9.9,10.1,22.7,15.2,38.5,15.2h89.4Z"/>
    <path d="M966.2,520.2h198.7v64.4h-272.1v-233.4h73.4v169.1Z"/>
    <path d="M1468.3,437.1c26.9,0,47.6,6.4,62.2,19.2,14.6,12.8,21.8,29.8,21.8,51.2s-9.2,44.5-27.7,58.7c-18.5,14.2-46.7,21.7-84.7,22.3h-138c-17.8,0-33.5-1.9-47-5.8-13.6-3.9-24.1-8.7-31.7-14.3-7.6-5.7-13.7-12.4-18.5-20.3-4.8-7.9-7.9-15.2-9.3-22-1.4-6.8-2.2-13.7-2.2-20.8h73.7c2,12,15.2,18,39.7,18h133.4c24.9,0,37.3-4.8,37.3-14.3s-7.6-12.3-22.7-12.3h-170.4c-28.5,0-50.1-6.1-65-18.2-14.9-12.1-22.3-28.7-22.3-49.8s1.9-20.6,5.7-29.8c3.8-9.2,9.7-17.8,17.7-25.7,8-7.9,19.3-14.1,33.8-18.7,14.6-4.6,31.7-6.9,51.5-7.2h135.7c17.8,0,33.5,2.1,47,6.3,13.6,4.2,23.9,9.4,31.2,15.5,7.2,6.1,13.1,13.2,17.5,21.2,4.4,8,7.3,15,8.5,20.8,1.2,5.9,1.8,11.6,1.8,17.2h-73.7c-1.6-12-13-18-34.3-18h-133.7c-22.7,0-34,4.9-34,14.7s6.9,12.3,20.7,12.3h176.1Z"/>
  </g>
</svg>