<!-- SVG DEFINITIONS -->
<svg xmlns="http://www.w3.org/2000/svg" class="svg-library">
  <defs>
    <g id="ic-home">
      <rect width="20" height="20" style="opacity:0;"/>
      <polygon points=".89 5.43 19.11 5.43 10 0 .89 5.43"/>
      <polygon points="17.53 6.67 2.47 6.67 2.47 18.75 7.33 18.75 7.33 10.86 12.67 10.86 12.67 18.75 17.53 18.75 17.53 6.67"/>
      <rect x="7.33" y="18.75" width="5.34" height="1.25"/>
    </g>
    <g id="ic-agenda">
      <rect width="20" height="20" style="opacity:0;"/>
      <polygon points="15.84 2.36 15.84 3.87 14.05 3.87 14.05 2.36 5.95 2.36 5.95 3.87 4.16 3.87 4.16 2.36 .74 2.36 .74 5.39 19.26 5.39 19.26 2.36 15.84 2.36"/>
      <rect x="4.16" width="1.8" height="2.36"/>
      <rect x="14.05" width="1.8" height="2.36"/>
      <path d="M.74,6.51v13.49h18.51V6.51H.74ZM5.95,16.35h-2.43v-2.43h2.43v2.43ZM5.95,11.74h-2.43v-2.43h2.43v2.43ZM16.32,16.35h-8.18v-2.43h8.18v2.43ZM16.32,11.74h-8.18v-2.43h8.18v2.43Z"/>
    </g>
    <g id="ic-faq">
      <rect width="20" height="20" style="opacity:0;"/>
      <path d="M8.53,12.33l-.4-5.03h1.53c.3,0,.56-.05.79-.15.23-.1.41-.24.53-.44.12-.19.19-.42.19-.69s-.06-.49-.19-.67c-.12-.19-.29-.33-.49-.42-.2-.1-.45-.15-.73-.15-.55,0-1.06.18-1.55.53s-.89.77-1.2,1.24l-3.07-3.09c.53-.95,1.3-1.77,2.31-2.45,1.01-.68,2.26-1.02,3.74-1.02,1.18,0,2.23.26,3.13.78.91.52,1.62,1.21,2.13,2.06.51.86.77,1.79.77,2.82,0,1.13-.22,2.06-.65,2.8-.43.74-1,1.33-1.69,1.76-.7.43-1.44.75-2.24.94l1.14-1.83-.21,2.99h-3.86ZM10.46,20c-.83,0-1.52-.28-2.06-.85-.55-.56-.82-1.25-.82-2.06s.27-1.53.82-2.09c.55-.56,1.23-.85,2.06-.85s1.51.28,2.05.85.81,1.26.81,2.09-.27,1.5-.81,2.06c-.54.56-1.22.85-2.05.85Z"/>
    </g>
    <g id="ic-twitter">
      <rect width="20" height="20" style="opacity:0;"/>
      <path d="M18.2048 2.25H21.5128L14.2858 10.51L22.7878 21.75H16.1308L10.9168 14.933L4.95084 21.75H1.64084L9.37084 12.915L1.21484 2.25H8.04084L12.7538 8.481L18.2048 2.25ZM17.0438 19.77H18.8768L7.04484 4.126H5.07784L17.0438 19.77Z"></path>
    </g>
    <g id="ic-linkedin">
      <rect width="20" height="20" style="opacity:0;"/>
      <path d="M6.94048 4.99993C6.94011 5.81424 6.44608 6.54702 5.69134 6.85273C4.9366 7.15845 4.07187 6.97605 3.5049 6.39155C2.93793 5.80704 2.78195 4.93715 3.1105 4.19207C3.43906 3.44699 4.18654 2.9755 5.00048 2.99993C6.08155 3.03238 6.94097 3.91837 6.94048 4.99993ZM7.00048 8.47993H3.00048V20.9999H7.00048V8.47993ZM13.3205 8.47993H9.34048V20.9999H13.2805V14.4299C13.2805 10.7699 18.0505 10.4299 18.0505 14.4299V20.9999H22.0005V13.0699C22.0005 6.89993 14.9405 7.12993 13.2805 10.1599L13.3205 8.47993Z"></path>
    </g>
    <g id="ic-bluesky">
      <path d="M12 11.3884C11.0942 9.62673 8.62833 6.34423 6.335 4.7259C4.13833 3.17506 3.30083 3.4434 2.75167 3.69256C2.11583 3.9784 2 4.95506 2 5.52839C2 6.10339 2.315 10.2367 2.52 10.9276C3.19917 13.2076 5.61417 13.9776 7.83917 13.7309C4.57917 14.2142 1.68333 15.4017 5.48083 19.6292C9.65833 23.9542 11.2058 18.7017 12 16.0392C12.7942 18.7017 13.7083 23.7651 18.4442 19.6292C22 16.0392 19.4208 14.2142 16.1608 13.7309C18.3858 13.9784 20.8008 13.2076 21.48 10.9276C21.685 10.2376 22 6.10256 22 5.52923C22 4.95423 21.8842 3.97839 21.2483 3.6909C20.6992 3.44256 19.8617 3.17423 17.665 4.72423C15.3717 6.34506 12.9058 9.62756 12 11.3884Z"></path>
    </g>
    <g id="ic-mastodon">
      <path d="M21.2595 13.9898C20.9852 15.4006 18.8033 16.9446 16.2974 17.2439C14.9907 17.3998 13.7041 17.5431 12.3321 17.4802C10.0885 17.3774 8.31809 16.9446 8.31809 16.9446C8.31809 17.163 8.33156 17.371 8.3585 17.5655C8.65019 19.7797 10.5541 19.9124 12.3576 19.9742C14.1779 20.0365 15.7987 19.5254 15.7987 19.5254L15.8735 21.1711C15.8735 21.1711 14.6003 21.8548 12.3321 21.9805C11.0814 22.0493 9.52849 21.9491 7.71973 21.4703C3.79684 20.432 3.12219 16.2504 3.01896 12.0074C2.98749 10.7477 3.00689 9.55981 3.00689 8.56632C3.00689 4.22771 5.84955 2.95599 5.84955 2.95599C7.2829 2.29772 9.74238 2.0209 12.2993 2H12.3621C14.919 2.0209 17.3801 2.29772 18.8133 2.95599C18.8133 2.95599 21.6559 4.22771 21.6559 8.56632C21.6559 8.56632 21.6916 11.7674 21.2595 13.9898ZM18.3029 8.9029C18.3029 7.82924 18.0295 6.97604 17.4805 6.34482C16.9142 5.71359 16.1726 5.39001 15.2522 5.39001C14.187 5.39001 13.3805 5.79937 12.8473 6.61819L12.3288 7.48723L11.8104 6.61819C11.2771 5.79937 10.4706 5.39001 9.40554 5.39001C8.485 5.39001 7.74344 5.71359 7.17719 6.34482C6.62807 6.97604 6.3547 7.82924 6.3547 8.9029V14.1562H8.43597V9.05731C8.43597 7.98246 8.88822 7.4369 9.79281 7.4369C10.793 7.4369 11.2944 8.08408 11.2944 9.36376V12.1547H13.3634V9.36376C13.3634 8.08408 13.8646 7.4369 14.8648 7.4369C15.7694 7.4369 16.2216 7.98246 16.2216 9.05731V14.1562H18.3029V8.9029Z"></path>
    </g>
    <g id="ic-youtube">
      <path d="M12.2439 4C12.778 4.00294 14.1143 4.01586 15.5341 4.07273L16.0375 4.09468C17.467 4.16236 18.8953 4.27798 19.6037 4.4755C20.5486 4.74095 21.2913 5.5155 21.5423 6.49732C21.942 8.05641 21.992 11.0994 21.9982 11.8358L21.9991 11.9884L21.9991 11.9991C21.9991 11.9991 21.9991 12.0028 21.9991 12.0099L21.9982 12.1625C21.992 12.8989 21.942 15.9419 21.5423 17.501C21.2878 18.4864 20.5451 19.261 19.6037 19.5228C18.8953 19.7203 17.467 19.8359 16.0375 19.9036L15.5341 19.9255C14.1143 19.9824 12.778 19.9953 12.2439 19.9983L12.0095 19.9991L11.9991 19.9991C11.9991 19.9991 11.9956 19.9991 11.9887 19.9991L11.7545 19.9983C10.6241 19.9921 5.89772 19.941 4.39451 19.5228C3.4496 19.2573 2.70692 18.4828 2.45587 17.501C2.0562 15.9419 2.00624 12.8989 2 12.1625V11.8358C2.00624 11.0994 2.0562 8.05641 2.45587 6.49732C2.7104 5.51186 3.45308 4.73732 4.39451 4.4755C5.89772 4.05723 10.6241 4.00622 11.7545 4H12.2439ZM9.99911 8.49914V15.4991L15.9991 11.9991L9.99911 8.49914Z"></path>
    </g>
  </defs>
</svg>
