<!-- SVG DEFINITIONS -->
<svg xmlns="http://www.w3.org/2000/svg" class="svg-library">
  <defs>
    <g id="ic-home">
      <rect width="20" height="20" style="opacity:0;"/>
      <polygon points=".89 5.43 19.11 5.43 10 0 .89 5.43"/>
      <polygon points="17.53 6.67 2.47 6.67 2.47 18.75 7.33 18.75 7.33 10.86 12.67 10.86 12.67 18.75 17.53 18.75 17.53 6.67"/>
      <rect x="7.33" y="18.75" width="5.34" height="1.25"/>
    </g>
    <g id="ic-agenda">
      <rect width="20" height="20" style="opacity:0;"/>
      <polygon points="15.84 2.36 15.84 3.87 14.05 3.87 14.05 2.36 5.95 2.36 5.95 3.87 4.16 3.87 4.16 2.36 .74 2.36 .74 5.39 19.26 5.39 19.26 2.36 15.84 2.36"/>
      <rect x="4.16" width="1.8" height="2.36"/>
      <rect x="14.05" width="1.8" height="2.36"/>
      <path d="M.74,6.51v13.49h18.51V6.51H.74ZM5.95,16.35h-2.43v-2.43h2.43v2.43ZM5.95,11.74h-2.43v-2.43h2.43v2.43ZM16.32,16.35h-8.18v-2.43h8.18v2.43ZM16.32,11.74h-8.18v-2.43h8.18v2.43Z"/>
    </g>
    <g id="ic-faq">
      <rect width="20" height="20" style="opacity:0;"/>
      <path d="M8.53,12.33l-.4-5.03h1.53c.3,0,.56-.05.79-.15.23-.1.41-.24.53-.44.12-.19.19-.42.19-.69s-.06-.49-.19-.67c-.12-.19-.29-.33-.49-.42-.2-.1-.45-.15-.73-.15-.55,0-1.06.18-1.55.53s-.89.77-1.2,1.24l-3.07-3.09c.53-.95,1.3-1.77,2.31-2.45,1.01-.68,2.26-1.02,3.74-1.02,1.18,0,2.23.26,3.13.78.91.52,1.62,1.21,2.13,2.06.51.86.77,1.79.77,2.82,0,1.13-.22,2.06-.65,2.8-.43.74-1,1.33-1.69,1.76-.7.43-1.44.75-2.24.94l1.14-1.83-.21,2.99h-3.86ZM10.46,20c-.83,0-1.52-.28-2.06-.85-.55-.56-.82-1.25-.82-2.06s.27-1.53.82-2.09c.55-.56,1.23-.85,2.06-.85s1.51.28,2.05.85.81,1.26.81,2.09-.27,1.5-.81,2.06c-.54.56-1.22.85-2.05.85Z"/>
    </g>
    <g id="ic-twitter">
      <rect width="20" height="20" style="opacity:0;"/>
      <path d="M18.2048 2.25H21.5128L14.2858 10.51L22.7878 21.75H16.1308L10.9168 14.933L4.95084 21.75H1.64084L9.37084 12.915L1.21484 2.25H8.04084L12.7538 8.481L18.2048 2.25ZM17.0438 19.77H18.8768L7.04484 4.126H5.07784L17.0438 19.77Z"></path>
    </g>
    <g id="ic-linkedin">
      <rect width="20" height="20" style="opacity:0;"/>
      <path d="M6.94048 4.99993C6.94011 5.81424 6.44608 6.54702 5.69134 6.85273C4.9366 7.15845 4.07187 6.97605 3.5049 6.39155C2.93793 5.80704 2.78195 4.93715 3.1105 4.19207C3.43906 3.44699 4.18654 2.9755 5.00048 2.99993C6.08155 3.03238 6.94097 3.91837 6.94048 4.99993ZM7.00048 8.47993H3.00048V20.9999H7.00048V8.47993ZM13.3205 8.47993H9.34048V20.9999H13.2805V14.4299C13.2805 10.7699 18.0505 10.4299 18.0505 14.4299V20.9999H22.0005V13.0699C22.0005 6.89993 14.9405 7.12993 13.2805 10.1599L13.3205 8.47993Z"></path>
    </g>
    <g id="ic-bluesky">
      <path d="M12 11.3884C11.0942 9.62673 8.62833 6.34423 6.335 4.7259C4.13833 3.17506 3.30083 3.4434 2.75167 3.69256C2.11583 3.9784 2 4.95506 2 5.52839C2 6.10339 2.315 10.2367 2.52 10.9276C3.19917 13.2076 5.61417 13.9776 7.83917 13.7309C4.57917 14.2142 1.68333 15.4017 5.48083 19.6292C9.65833 23.9542 11.2058 18.7017 12 16.0392C12.7942 18.7017 13.7083 23.7651 18.4442 19.6292C22 16.0392 19.4208 14.2142 16.1608 13.7309C18.3858 13.9784 20.8008 13.2076 21.48 10.9276C21.685 10.2376 22 6.10256 22 5.52923C22 4.95423 21.8842 3.97839 21.2483 3.6909C20.6992 3.44256 19.8617 3.17423 17.665 4.72423C15.3717 6.34506 12.9058 9.62756 12 11.3884Z"></path>
    </g>
    <g id="ic-mastodon">
      <path d="M21.2595 13.9898C20.9852 15.4006 18.8033 16.9446 16.2974 17.2439C14.9907 17.3998 13.7041 17.5431 12.3321 17.4802C10.0885 17.3774 8.31809 16.9446 8.31809 16.9446C8.31809 17.163 8.33156 17.371 8.3585 17.5655C8.65019 19.7797 10.5541 19.9124 12.3576 19.9742C14.1779 20.0365 15.7987 19.5254 15.7987 19.5254L15.8735 21.1711C15.8735 21.1711 14.6003 21.8548 12.3321 21.9805C11.0814 22.0493 9.52849 21.9491 7.71973 21.4703C3.79684 20.432 3.12219 16.2504 3.01896 12.0074C2.98749 10.7477 3.00689 9.55981 3.00689 8.56632C3.00689 4.22771 5.84955 2.95599 5.84955 2.95599C7.2829 2.29772 9.74238 2.0209 12.2993 2H12.3621C14.919 2.0209 17.3801 2.29772 18.8133 2.95599C18.8133 2.95599 21.6559 4.22771 21.6559 8.56632C21.6559 8.56632 21.6916 11.7674 21.2595 13.9898ZM18.3029 8.9029C18.3029 7.82924 18.0295 6.97604 17.4805 6.34482C16.9142 5.71359 16.1726 5.39001 15.2522 5.39001C14.187 5.39001 13.3805 5.79937 12.8473 6.61819L12.3288 7.48723L11.8104 6.61819C11.2771 5.79937 10.4706 5.39001 9.40554 5.39001C8.485 5.39001 7.74344 5.71359 7.17719 6.34482C6.62807 6.97604 6.3547 7.82924 6.3547 8.9029V14.1562H8.43597V9.05731C8.43597 7.98246 8.88822 7.4369 9.79281 7.4369C10.793 7.4369 11.2944 8.08408 11.2944 9.36376V12.1547H13.3634V9.36376C13.3634 8.08408 13.8646 7.4369 14.8648 7.4369C15.7694 7.4369 16.2216 7.98246 16.2216 9.05731V14.1562H18.3029V8.9029Z"></path>
    </g>
    <g id="ic-youtube">
      <path d="M12.2439 4C12.778 4.00294 14.1143 4.01586 15.5341 4.07273L16.0375 4.09468C17.467 4.16236 18.8953 4.27798 19.6037 4.4755C20.5486 4.74095 21.2913 5.5155 21.5423 6.49732C21.942 8.05641 21.992 11.0994 21.9982 11.8358L21.9991 11.9884L21.9991 11.9991C21.9991 11.9991 21.9991 12.0028 21.9991 12.0099L21.9982 12.1625C21.992 12.8989 21.942 15.9419 21.5423 17.501C21.2878 18.4864 20.5451 19.261 19.6037 19.5228C18.8953 19.7203 17.467 19.8359 16.0375 19.9036L15.5341 19.9255C14.1143 19.9824 12.778 19.9953 12.2439 19.9983L12.0095 19.9991L11.9991 19.9991C11.9991 19.9991 11.9956 19.9991 11.9887 19.9991L11.7545 19.9983C10.6241 19.9921 5.89772 19.941 4.39451 19.5228C3.4496 19.2573 2.70692 18.4828 2.45587 17.501C2.0562 15.9419 2.00624 12.8989 2 12.1625V11.8358C2.00624 11.0994 2.0562 8.05641 2.45587 6.49732C2.7104 5.51186 3.45308 4.73732 4.39451 4.4755C5.89772 4.05723 10.6241 4.00622 11.7545 4H12.2439ZM9.99911 8.49914V15.4991L15.9991 11.9991L9.99911 8.49914Z"></path>
    </g>
    <g id="ic-fb">
      <path d="M12.001 2C6.47813 2 2.00098 6.47715 2.00098 12C2.00098 16.9913 5.65783 21.1283 10.4385 21.8785V14.8906H7.89941V12H10.4385V9.79688C10.4385 7.29063 11.9314 5.90625 14.2156 5.90625C15.3097 5.90625 16.4541 6.10156 16.4541 6.10156V8.5625H15.1931C13.9509 8.5625 13.5635 9.33334 13.5635 10.1242V12H16.3369L15.8936 14.8906H13.5635V21.8785C18.3441 21.1283 22.001 16.9913 22.001 12C22.001 6.47715 17.5238 2 12.001 2Z"></path>
    </g>
    <g id="ic-insta">
      <path d="M13.0281 2.00073C14.1535 2.00259 14.7238 2.00855 15.2166 2.02322L15.4107 2.02956C15.6349 2.03753 15.8561 2.04753 16.1228 2.06003C17.1869 2.1092 17.9128 2.27753 18.5503 2.52503C19.2094 2.7792 19.7661 3.12253 20.3219 3.67837C20.8769 4.2342 21.2203 4.79253 21.4753 5.45003C21.7219 6.0867 21.8903 6.81337 21.9403 7.87753C21.9522 8.1442 21.9618 8.3654 21.9697 8.58964L21.976 8.78373C21.9906 9.27647 21.9973 9.84686 21.9994 10.9723L22.0002 11.7179C22.0003 11.809 22.0003 11.903 22.0003 12L22.0002 12.2821L21.9996 13.0278C21.9977 14.1532 21.9918 14.7236 21.9771 15.2163L21.9707 15.4104C21.9628 15.6347 21.9528 15.8559 21.9403 16.1225C21.8911 17.1867 21.7219 17.9125 21.4753 18.55C21.2211 19.2092 20.8769 19.7659 20.3219 20.3217C19.7661 20.8767 19.2069 21.22 18.5503 21.475C17.9128 21.7217 17.1869 21.89 16.1228 21.94C15.8561 21.9519 15.6349 21.9616 15.4107 21.9694L15.2166 21.9757C14.7238 21.9904 14.1535 21.997 13.0281 21.9992L12.2824 22C12.1913 22 12.0973 22 12.0003 22L11.7182 22L10.9725 21.9993C9.8471 21.9975 9.27672 21.9915 8.78397 21.9768L8.58989 21.9705C8.36564 21.9625 8.14444 21.9525 7.87778 21.94C6.81361 21.8909 6.08861 21.7217 5.45028 21.475C4.79194 21.2209 4.23444 20.8767 3.67861 20.3217C3.12278 19.7659 2.78028 19.2067 2.52528 18.55C2.27778 17.9125 2.11028 17.1867 2.06028 16.1225C2.0484 15.8559 2.03871 15.6347 2.03086 15.4104L2.02457 15.2163C2.00994 14.7236 2.00327 14.1532 2.00111 13.0278L2.00098 10.9723C2.00284 9.84686 2.00879 9.27647 2.02346 8.78373L2.02981 8.58964C2.03778 8.3654 2.04778 8.1442 2.06028 7.87753C2.10944 6.81253 2.27778 6.08753 2.52528 5.45003C2.77944 4.7917 3.12278 4.2342 3.67861 3.67837C4.23444 3.12253 4.79278 2.78003 5.45028 2.52503C6.08778 2.27753 6.81278 2.11003 7.87778 2.06003C8.14444 2.04816 8.36564 2.03847 8.58989 2.03062L8.78397 2.02433C9.27672 2.00969 9.8471 2.00302 10.9725 2.00086L13.0281 2.00073ZM12.0003 7.00003C9.23738 7.00003 7.00028 9.23956 7.00028 12C7.00028 14.7629 9.23981 17 12.0003 17C14.7632 17 17.0003 14.7605 17.0003 12C17.0003 9.23713 14.7607 7.00003 12.0003 7.00003ZM12.0003 9.00003C13.6572 9.00003 15.0003 10.3427 15.0003 12C15.0003 13.6569 13.6576 15 12.0003 15C10.3434 15 9.00028 13.6574 9.00028 12C9.00028 10.3431 10.3429 9.00003 12.0003 9.00003ZM17.2503 5.50003C16.561 5.50003 16.0003 6.05994 16.0003 6.74918C16.0003 7.43843 16.5602 7.9992 17.2503 7.9992C17.9395 7.9992 18.5003 7.4393 18.5003 6.74918C18.5003 6.05994 17.9386 5.49917 17.2503 5.50003Z"></path>
    </g>
    <g id="ic-github">
      <path d="M12.001 2C6.47598 2 2.00098 6.475 2.00098 12C2.00098 16.425 4.86348 20.1625 8.83848 21.4875C9.33848 21.575 9.52598 21.275 9.52598 21.0125C9.52598 20.775 9.51348 19.9875 9.51348 19.15C7.00098 19.6125 6.35098 18.5375 6.15098 17.975C6.03848 17.6875 5.55098 16.8 5.12598 16.5625C4.77598 16.375 4.27598 15.9125 5.11348 15.9C5.90098 15.8875 6.46348 16.625 6.65098 16.925C7.55098 18.4375 8.98848 18.0125 9.56348 17.75C9.65098 17.1 9.91348 16.6625 10.201 16.4125C7.97598 16.1625 5.65098 15.3 5.65098 11.475C5.65098 10.3875 6.03848 9.4875 6.67598 8.7875C6.57598 8.5375 6.22598 7.5125 6.77598 6.1375C6.77598 6.1375 7.61348 5.875 9.52598 7.1625C10.326 6.9375 11.176 6.825 12.026 6.825C12.876 6.825 13.726 6.9375 14.526 7.1625C16.4385 5.8625 17.276 6.1375 17.276 6.1375C17.826 7.5125 17.476 8.5375 17.376 8.7875C18.0135 9.4875 18.401 10.375 18.401 11.475C18.401 15.3125 16.0635 16.1625 13.8385 16.4125C14.201 16.725 14.5135 17.325 14.5135 18.2625C14.5135 19.6 14.501 20.675 14.501 21.0125C14.501 21.275 14.6885 21.5875 15.1885 21.4875C19.259 20.1133 21.9999 16.2963 22.001 12C22.001 6.475 17.526 2 12.001 2Z"></path>
    </g>
    <g id="ic-website">
      <path d="M3 3H21C21.5523 3 22 3.44772 22 4V20C22 20.5523 21.5523 21 21 21H3C2.44772 21 2 20.5523 2 20V4C2 3.44772 2.44772 3 3 3ZM20 10H4V19H20V10ZM15 6V8H19V6H15Z"></path>
    </g>
    <g id="bullhorn">
      <path d="M9 17C9 17 16 18 19 21H20C20.5523 21 21 20.5523 21 20V13.937C21.8626 13.715 22.5 12.9319 22.5 12C22.5 11.0681 21.8626 10.285 21 10.063V4C21 3.44772 20.5523 3 20 3H19C16 6 9 7 9 7H5C3.89543 7 3 7.89543 3 9V15C3 16.1046 3.89543 17 5 17H6L7 22H9V17ZM11 8.6612C11.6833 8.5146 12.5275 8.31193 13.4393 8.04373C15.1175 7.55014 17.25 6.77262 19 5.57458V18.4254C17.25 17.2274 15.1175 16.4499 13.4393 15.9563C12.5275 15.6881 11.6833 15.4854 11 15.3388V8.6612ZM5 9H9V15H5V9Z"></path>
    </g>
    <g id="favorite">
      <path d="M12.0006 18.26L4.94715 22.2082L6.52248 14.2799L0.587891 8.7918L8.61493 7.84006L12.0006 0.5L15.3862 7.84006L23.4132 8.7918L17.4787 14.2799L19.054 22.2082L12.0006 18.26Z"></path>
    </g>
  </defs>
</svg>
