<svg xmlns="http://www.w3.org/2000/svg" xml:space="preserve" id="Calque_1" x="0" y="0" style="enable-background:new 0 0 1920 1080" version="1.1" viewBox="0 0 1920 1080"><style>.st0{fill:#220bad}</style><g id="Page-1_1_"><g id="Group-54-Copy_1_" transform="translate(10 10)"><g id="Group-52_1_"><path id="Stroke-1_1_" d="M1419.23 656.83h-192.64c-28.63 0-51.83-23.21-51.83-51.83 0-28.63 23.21-51.83 51.83-51.83h192.64c86.73 0 147.31-55.83 147.31-135.78 0-81.22-60.57-137.94-147.31-137.94h-104.92c-28.63 0-51.83-23.21-51.83-51.83s23.21-51.83 51.83-51.83h104.92c143.08 0 250.97 103.87 250.97 241.61 0 136.49-107.89 239.43-250.97 239.43z" class="st0"/><path id="Stroke-3_1_" d="M405.72 659.54c-.31 0-.62-.01-.93-.01-21.95-.39-41.28-14.57-48.24-35.4l-120.07-359.3c-9.07-27.15 5.58-56.51 32.73-65.59 27.14-9.09 56.51 5.58 65.59 32.73l73.67 220.44 81.75-218.52c7.57-20.25 26.93-33.67 48.55-33.67 21.62 0 40.97 13.42 48.55 33.67l82.88 221.54 53.35-152.42c21.01-61.5 65.47-105.8 121.87-121.17 39.73-10.85 82.13-7.03 119.38 10.74a172.35 172.35 0 0 1 16.79 9.18c27.16-16.72 58.67-25.9 90.66-25.9 46.03 0 91.04 18.99 123.51 52.09 32.74 33.31 50.77 77.62 50.75 124.74-.05 47.13-18.14 91.4-50.95 124.71l-151.17 154.46c-16.87 17.13-39.2 26.5-62.98 26.5h-.01c-23.79 0-46.11-9.38-62.87-26.4l-37.03-37.89-61.89-63.23c-20.02-20.46-19.67-53.28.78-73.3 20.45-20.02 53.27-19.68 73.3.78l87.75 89.64 140.14-143.19c13.53-13.74 21.24-32.71 21.26-52.17.01-19.43-7.67-38.41-21.06-52.03-13.33-13.59-30.91-21.05-49.54-21.05-18.64 0-36.22 7.46-49.51 21.01l-4.23 4.32c-9.75 9.96-23.1 15.57-37.04 15.57s-27.29-5.61-37.04-15.57l-4.26-4.35c-5.86-5.99-12.6-10.82-20.04-14.38-14.82-7.07-31.68-8.59-47.44-4.29-32.23 8.78-46.53 41.42-51.18 55.04L720.75 624.82c-7.21 20.6-26.55 34.48-48.37 34.71-.18.01-.37.01-.56.01-21.6 0-40.96-13.4-48.54-33.67l-84.51-225.88-84.51 225.88c-7.58 20.27-26.95 33.67-48.54 33.67z" class="st0"/></g></g></g><path d="m280.05 918.55-22.31-64.37c-.51-1.53-1.19-4.09-1.19-6.3 0-5.96 4.77-11.75 12.43-11.75 6.47 0 10.73 4.09 12.6 10.05l13.96 46.32 14.3-46.15c1.87-6.13 6.64-10.39 13.28-10.39h1.53c6.64 0 11.41 4.26 13.28 10.39l14.48 46.32L366.74 846c1.7-5.45 5.62-9.88 12.43-9.88 7.15 0 12.09 5.45 12.09 11.92 0 1.7-.51 4.09-.85 5.28l-22.99 65.22c-2.73 8-8 11.58-14.31 11.58h-.85c-6.3 0-11.58-3.58-13.96-11.07l-14.47-45.98-14.65 45.98c-2.38 7.49-7.66 11.07-13.96 11.07h-.85c-6.31.01-11.59-3.57-14.32-11.57zm166.73 11.92c-27.42 0-47.68-19.24-47.68-47.17v-.34c0-26.06 18.56-47.51 45.13-47.51 30.48 0 43.94 25.03 43.94 43.94 0 7.49-5.28 12.43-12.09 12.43h-51.26c2.55 11.75 10.73 17.88 22.31 17.88 7.15 0 13.11-2.21 18.39-6.13 1.87-1.36 3.58-2.04 6.3-2.04 5.79 0 10.05 4.43 10.05 10.22 0 3.41-1.53 5.96-3.41 7.66-8.01 6.8-18.4 11.06-31.68 11.06zm16.69-54.83c-1.53-11.58-8.34-19.41-19.24-19.41-10.73 0-17.71 7.66-19.76 19.41h39zm43.59-59.61c0-7.15 5.79-12.94 12.94-12.94 7.15 0 12.94 5.79 12.94 12.94v100.48c0 7.15-5.79 12.94-12.94 12.94-7.15 0-12.94-5.79-12.94-12.94V816.03zm43.76 67.27v-.34c0-26.23 21.12-47.51 49.56-47.51 28.27 0 49.22 20.95 49.22 47.17v.34c0 26.23-21.12 47.51-49.56 47.51-28.27 0-49.22-20.95-49.22-47.17zm73.23 0v-.34c0-13.45-9.71-25.2-24.01-25.2-14.82 0-23.67 11.41-23.67 24.86v.34c0 13.45 9.71 25.2 24.01 25.2 14.82 0 23.67-11.41 23.67-24.86zm78.34 47h-1.36c-6.98 0-11.75-4.43-14.65-11.24l-27.93-64.54c-.68-1.7-1.36-3.92-1.36-6.3 0-6.13 5.62-12.09 12.6-12.09 6.98 0 10.73 3.92 12.6 9.2l19.58 52.96 19.92-53.3c1.7-4.43 5.28-8.85 12.09-8.85s12.43 5.28 12.43 12.26c0 2.21-.85 4.94-1.36 6.13l-27.93 64.54c-2.88 6.63-7.65 11.23-14.63 11.23zm99.11.17c-27.42 0-47.68-19.24-47.68-47.17v-.34c0-26.06 18.56-47.51 45.13-47.51 30.48 0 43.94 25.03 43.94 43.94 0 7.49-5.28 12.43-12.09 12.43h-51.26c2.55 11.75 10.73 17.88 22.31 17.88 7.15 0 13.11-2.21 18.39-6.13 1.87-1.36 3.58-2.04 6.3-2.04 5.79 0 10.05 4.43 10.05 10.22 0 3.41-1.53 5.96-3.41 7.66-8.01 6.8-18.4 11.06-31.68 11.06zm16.69-54.83c-1.53-11.58-8.34-19.41-19.24-19.41-10.73 0-17.71 7.66-19.76 19.41h39zm134.19 40.87c0 7.15-5.79 12.94-12.94 12.94-7.15 0-12.94-5.79-12.94-12.94v-1.19c-6.3 8.51-14.99 14.82-28.44 14.82-21.29 0-41.55-16.69-41.55-47.17v-.34c0-30.48 19.92-47.17 41.55-47.17 13.79 0 22.31 6.3 28.44 13.62v-33.04c0-7.15 5.79-12.94 12.94-12.94 7.15 0 12.94 5.79 12.94 12.94v100.47zm-69.99-33.89v.34c0 15.16 10.22 25.2 22.31 25.2s22.14-10.05 22.14-25.2v-.34c0-15.16-10.05-25.2-22.14-25.2s-22.31 9.87-22.31 25.2zm134.36 47.85c-27.42 0-47.68-19.24-47.68-47.17v-.34c0-26.06 18.56-47.51 45.13-47.51 30.48 0 43.94 25.03 43.94 43.94 0 7.49-5.28 12.43-12.09 12.43h-51.26c2.55 11.75 10.73 17.88 22.31 17.88 7.15 0 13.11-2.21 18.39-6.13 1.87-1.36 3.58-2.04 6.3-2.04 5.79 0 10.05 4.43 10.05 10.22 0 3.41-1.53 5.96-3.41 7.66-8.01 6.8-18.4 11.06-31.68 11.06zm16.69-54.83c-1.53-11.58-8.34-19.41-19.24-19.41-10.73 0-17.71 7.66-19.76 19.41h39zm78.17 54.66h-1.36c-6.98 0-11.75-4.43-14.65-11.24l-27.93-64.54c-.68-1.7-1.36-3.92-1.36-6.3 0-6.13 5.62-12.09 12.6-12.09 6.98 0 10.73 3.92 12.6 9.2l19.58 52.96 19.92-53.3c1.7-4.43 5.28-8.85 12.09-8.85s12.43 5.28 12.43 12.26c0 2.21-.85 4.94-1.36 6.13l-27.93 64.54c-2.88 6.63-7.65 11.23-14.63 11.23zm54.83-10.56c-2.72-1.7-4.94-4.77-4.94-8.85 0-5.79 4.43-10.22 10.22-10.22 1.87 0 3.75.51 5.11 1.36 8.69 5.45 17.37 8.17 24.69 8.17 7.49 0 10.9-2.72 10.9-6.81v-.34c0-5.62-8.85-7.49-18.9-10.56-12.77-3.75-27.25-9.71-27.25-27.42v-.34c0-18.56 14.99-28.95 33.38-28.95 9.54 0 19.41 2.56 28.27 6.98 3.75 1.87 6.13 5.28 6.13 9.71 0 5.79-4.6 10.22-10.39 10.22-1.87 0-3.07-.34-4.77-1.19-7.32-3.58-14.31-5.79-19.75-5.79-6.3 0-9.54 2.72-9.54 6.3v.34c0 5.11 8.69 7.49 18.56 10.9 12.77 4.26 27.59 10.39 27.59 27.08v.34c0 20.27-15.16 29.46-34.91 29.46-11.24 0-23.33-3.23-34.4-10.39z" class="st0"/><path d="M1285.94 900.16c8.52 0 14.82 6.3 14.82 14.48v.34c0 8.17-6.3 14.47-14.82 14.47-8.51 0-14.82-6.3-14.82-14.47v-.34c.01-8.18 6.31-14.48 14.82-14.48zM1312 883.3v-.34c0-26.06 19.92-47.51 47.85-47.51 13.79 0 23.5 3.75 31.16 10.22 1.7 1.36 4.09 4.43 4.09 8.86 0 6.47-5.28 11.58-11.75 11.58-3.41 0-5.96-1.36-7.49-2.55-4.6-3.58-9.37-5.79-16.18-5.79-12.94 0-22.14 11.41-22.14 24.86v.34c0 13.96 9.03 25.2 23.16 25.2 6.81 0 12.09-2.38 17.03-6.3 1.36-1.02 3.92-2.38 6.98-2.38 6.13 0 10.9 4.94 10.9 11.07 0 3.41-1.53 6.13-3.75 8.17-7.66 6.98-17.37 11.75-32.36 11.75-27.41-.01-47.5-21.12-47.5-47.18zm92.64 0v-.34c0-26.23 21.12-47.51 49.56-47.51 28.27 0 49.22 20.95 49.22 47.17v.34c0 26.23-21.12 47.51-49.56 47.51-28.28 0-49.22-20.95-49.22-47.17zm73.23 0v-.34c0-13.45-9.71-25.2-24.01-25.2-14.82 0-23.67 11.41-23.67 24.86v.34c0 13.45 9.71 25.2 24.01 25.2 14.81 0 23.67-11.41 23.67-24.86zm42.23-34.23c0-7.15 5.79-12.94 12.94-12.94s12.94 5.79 12.94 12.94v1.02c5.96-7.66 13.79-14.65 26.91-14.65 11.92 0 20.95 5.28 25.71 14.48 8-9.37 17.54-14.48 29.97-14.48 19.24 0 30.82 11.58 30.82 33.55v47.51c0 7.15-5.79 12.94-12.94 12.94s-12.94-5.79-12.94-12.94v-39c0-12.26-5.45-18.56-15.16-18.56s-15.67 6.3-15.67 18.56v39c0 7.15-5.79 12.94-12.94 12.94-7.15 0-12.94-5.79-12.94-12.94v-39c0-12.26-5.45-18.56-15.16-18.56s-15.67 6.3-15.67 18.56v39c0 7.15-5.79 12.94-12.94 12.94s-12.94-5.79-12.94-12.94v-67.43z" style="fill:#d4d1f3"/></svg>