<svg xmlns="http://www.w3.org/2000/svg" id="Calque_1" data-name="Calque 1" viewBox="0 0 1493.44 455.41"><defs><linearGradient id="Dégradé_sans_nom_48" x1="161.56" x2="616.96" y1="391.56" y2="391.56" gradientUnits="userSpaceOnUse"><stop offset="0" stop-color="#fb1626"/><stop offset="1" stop-color="#bb0d5a"/></linearGradient><style>.cls-1{fill:#020203}</style></defs><path d="M670.28 313.77H595.6l82.9-109.8c1.75-2.26 2.68-5.35 2.68-9.36q0-13.8-13.8-13.8H567.24q-13.8 0-13.8 13.8t13.8 13.8h74.92l-83.14 109.73c-1.75 2.26-2.68 5.34-2.68 9.36q0 13.8 13.79 13.79h100.15q13.8 0 13.8-13.79t-13.8-13.73M826.75 189.73q-16.44-10.11-39.31-10.12-23.19 0-41.09 10.42a74 74 0 0 0-28 28.77q-10.19 18.34-10.2 42.42 0 23.78 10.72 42.13a76.16 76.16 0 0 0 29.65 28.79q18.93 10.42 43.3 10.42a88.7 88.7 0 0 0 28.33-5q14.82-5 24.8-12.92 5-3.81 4.7-9.1t-5.28-9.69a12.9 12.9 0 0 0-9-3.08 16.63 16.63 0 0 0-9.54 3.38 57.7 57.7 0 0 1-15.39 7.76 55.5 55.5 0 0 1-18.64 3.38q-16.74 0-29.65-7.34a52.91 52.91 0 0 1-26.71-38.45h111.53a13.46 13.46 0 0 0 9.69-3.67 12.3 12.3 0 0 0 3.81-9.25q0-23.19-8.66-40.95a66 66 0 0 0-25.06-27.9m-68 22.47q11.89-7.33 28.62-7.35 14.68 0 25 6.76a44.6 44.6 0 0 1 15.85 18.34 59.4 59.4 0 0 1 5.22 18.06h-97.65a60.7 60.7 0 0 1 4.95-15.71 47.23 47.23 0 0 1 18.05-20.1ZM1014.78 187.97q-16-8.65-36.26-8.66a71.5 71.5 0 0 0-34.93 8.52 66.7 66.7 0 0 0-15 11.16v-3.24a14.7 14.7 0 0 0-4.11-10.86c-2.75-2.74-6.36-4.11-10.87-4.11a14.8 14.8 0 0 0-10.71 4.11 14.43 14.43 0 0 0-4.26 10.86v130.94a15.26 15.26 0 0 0 25.84 10.71 14.8 14.8 0 0 0 4.11-10.71V243.9a32.6 32.6 0 0 1 5.87-19.23 41.64 41.64 0 0 1 15.85-13.36 49.3 49.3 0 0 1 22.31-5 53.54 53.54 0 0 1 23.93 5.14 39 39 0 0 1 16.62 15.69q6.15 10.56 6.16 27.3v72.22a15 15 0 1 0 29.94 0v-72.19q0-24.37-9.24-41.1a62.6 62.6 0 0 0-25.25-25.4M1116.79 180.78a14.77 14.77 0 0 0-10.71 4.11 14.43 14.43 0 0 0-4.26 10.86v130.64a15.27 15.27 0 0 0 25.84 10.75 14.85 14.85 0 0 0 4.1-10.72V195.75a14.11 14.11 0 0 0-15-15ZM1116.79 115.9a19.57 19.57 0 1 0 13.65 5.73 18.64 18.64 0 0 0-13.65-5.73M1251.97 250.3l53.88-48.09a13.62 13.62 0 0 0 4.69-9.39 14.63 14.63 0 0 0-13.1-14.39 13 13 0 0 0-9.83 3.82l-71.34 63.67V126.47a14.39 14.39 0 1 0-28.77 0v200.51a14.39 14.39 0 1 0 28.77 0v-44.84l14.61-13.05 55.89 69.05a13.17 13.17 0 0 0 9.54 5.13 14.27 14.27 0 0 0 10.42-3.37c3.32-2.74 5.14-5.92 5.43-9.54a13.87 13.87 0 0 0-3.38-10.13ZM1482.72 219.53a79.65 79.65 0 0 0-28.91-29.21q-18.21-10.71-41.1-10.71t-41.27 10.71a79.3 79.3 0 0 0-29 29.21q-10.73 18.5-10.72 41.69t9.84 41.54a76.1 76.1 0 0 0 26.86 29.06q17 10.72 38.46 10.72t38.45-10.72a74.8 74.8 0 0 0 18.2-16.06v10.93a15 15 0 1 0 30 0v-65.47q-.09-23.19-10.81-41.69m-43.3 89.4a52.95 52.95 0 0 1-53.28 0 51.87 51.87 0 0 1-18.79-19.67 57 57 0 0 1-6.9-28 57.55 57.55 0 0 1 6.9-28.33 51.87 51.87 0 0 1 18.79-19.67 52.95 52.95 0 0 1 53.28 0 51.2 51.2 0 0 1 18.5 19.67 58.6 58.6 0 0 1 6.75 28.33 58 58 0 0 1-6.75 28 51.2 51.2 0 0 1-18.48 19.67Z" class="cls-1"/><path d="M617 391.56c0 5.76-.21 11.48-.63 17.13a226.6 226.6 0 0 1-12.3 58.7c-31.24 88.48-115.6 151.88-214.77 151.88-125.76 0-227.7-102-227.7-227.71 0-5.6.21-11.16.6-16.67 0-.33.05-.67.08-1a226.7 226.7 0 0 1 11.52-56l.81-2.33C205.9 227.2 290.22 163.9 389.3 163.9 515 163.86 617 265.81 617 391.56" style="fill:url(#Dégradé_sans_nom_48)" transform="translate(-161.56 -163.86)"/><path d="M616.33 408.69a226.6 226.6 0 0 1-12.3 58.7L321.05 519l-6 1.1a34.7 34.7 0 0 1-6.11.56 29 29 0 0 1-5.57-.52h-.07a35.5 35.5 0 0 1-18.38-9.65 35.19 35.19 0 0 1-7.22-39.82 36.7 36.7 0 0 1 2.9-5.11l138-138-256.06 46.27-.3.06a226.7 226.7 0 0 1 11.52-56l.81-2.33 292.68-53.4 8.64-1.57a29 29 0 0 1 5.1-.46 28.3 28.3 0 0 1 4.86.42 35.86 35.86 0 0 1 28.91 28.71 35.6 35.6 0 0 1-9.44 31.1l-1.35 1.34-133 131.72Z" style="fill:#fff" transform="translate(-161.56 -163.86)"/></svg>