<?xml version="1.0" encoding="UTF-8"?> <svg xmlns="http://www.w3.org/2000/svg" width="528" height="100" viewBox="0 0 528 100"><defs><linearGradient id="prefix__a" x1="0%" x2="100%" y1="50%" y2="50%"><stop offset="0%" stop-color="#5903CF"></stop><stop offset="100%" stop-color="#DA00FD"></stop></linearGradient><linearGradient id="prefix__b" x1="-99.864%" x2="100%" y1="50%" y2="50%"><stop offset="0%" stop-color="#5903CF"></stop><stop offset="100%" stop-color="#DA00FD"></stop></linearGradient><linearGradient id="prefix__c" x1="28.922%" x2="94.58%" y1="28.926%" y2="94.543%"><stop offset="0%" stop-color="#91DCFD"></stop><stop offset="100%" stop-color="#03A7FD"></stop></linearGradient><linearGradient id="prefix__d" x1="-99.864%" x2="100%" y1="50%" y2="50%"><stop offset="0%" stop-color="#5903CF"></stop><stop offset="100%" stop-color="#DA00FD"></stop></linearGradient><linearGradient id="prefix__e" x1="28.901%" x2="94.514%" y1="71.045%" y2="5.519%"><stop offset="0%" stop-color="#91DCFD"></stop><stop offset="100%" stop-color="#03A7FD"></stop></linearGradient><linearGradient id="prefix__f" x1="0%" x2="100%" y1="50%" y2="50%"><stop offset="0%" stop-color="#5903CF"></stop><stop offset="100%" stop-color="#DA00FD"></stop></linearGradient><linearGradient id="prefix__g" x1="0%" x2="100%" y1="50%" y2="50%"><stop offset="0%" stop-color="#91DCFD"></stop><stop offset="100%" stop-color="#03A7FD"></stop></linearGradient></defs><g fill="none"><path fill="#1E2C3D" d="M204.77 33c12.84 0 26.43 7.44 26.39 27.64v1.21H186.3c.78 10.06 9.72 15.45 18 15.45 5.31 0 12.57-1.76 15.73-8.65h9.87c-4.65 11.73-15.55 16.47-25.13 16.47-18.99 0-28.29-12-28.29-26.06C176.48 45 185.77 33 204.77 33zm148.67 0c12.83 0 26.44 7.44 26.41 27.64v1.21h-44.87c.78 10.06 9.71 15.45 18 15.45 5.3 0 12.56-1.76 15.73-8.65h9.86c-4.65 11.73-15.54 16.47-25.13 16.47-18.99 0-28.29-12-28.29-26.06C325.15 45 334.44 33 353.44 33zM104.063 16.867c1.473-.881 3.311-.881 4.784 0 1.473.88 2.342 2.5 2.263 4.215v20.94h.19c3.72-5.87 11.26-8.47 18.52-8.47 14.7 0 26.49 9.4 26.49 25.78 0 16.38-11.82 25.78-26.52 25.78-7.17 0-14.89-2.79-18.52-7.91h-.16v6.24h-9.31V21.08c-.08-1.715.79-3.334 2.263-4.215zM282.27 33c11.75 0 20.5 5 20.47 17.21v33.23h-9.31V52.07c0-7.17-4.43-11.26-14.43-11.26-8.46 0-16 4.93-16 14.52v28.09h-9.31V39.3c.115-2.487 2.165-4.444 4.655-4.444s4.54 1.957 4.655 4.444V42h.19c4.37-6.77 12.08-9 19.08-9zm170.68-17.69c1.442-.073 2.807.655 3.55 1.893.743 1.238.743 2.785 0 4.024-.743 1.238-2.108 1.966-3.55 1.893h-30.006c-5.814.028-8.234.823-8.234 4.75v6.8h10.14c2.005 0 3.63 1.625 3.63 3.63s-1.625 3.63-3.63 3.63H414.7v41.51h-9.31V41.93h-10v-7.26h10v-7.26c0-9.03 5.6-12.1 15-12.1zm-.75 19.36c2.57 0 4.654 2.08 4.66 4.65v44.12h-9.31V39.32c0-2.568 2.082-4.65 4.65-4.65zm70.04 0c1.035-.003 2.029.407 2.76 1.14.733.731 1.143 1.725 1.14 2.76v1.65c.003 1.086-.45 2.124-1.25 2.86l-35.14 32.54h33.88c2.16 0 3.91 1.75 3.91 3.91s-1.75 3.91-3.91 3.91h-46.26v-7.63l35.9-33.33h-34.13v-7.81zm-393.63 6.62c-10.89 0-18.06 6.83-18.06 18 0 9.26 5.4 18 18.06 18 12.56 0 17.87-8.74 17.87-18 0-11.21-6.98-18-17.87-18zm75.69-.47c-8.56 0-16.28 5.02-17.68 13.77h34.68c-1.36-8.84-8.25-13.77-17-13.77zm148.66-.01c-8.57 0-16.29 5.02-17.69 13.77h34.69c-1.37-8.84-8.25-13.77-17-13.77z"></path><path fill="url(#prefix__a)" d="M43.93 6.07C47.81 2.179 53.083-.005 58.58 0H20.71C9.272 0 0 9.274 0 20.71V50L43.93 6.07zM29.27 79.29L0 50v29.29C0 90.73 9.272 100 20.71 100h37.87c-5.497.008-10.77-2.177-14.65-6.07L29.27 79.29z"></path><path fill="url(#prefix__b)" d="M29.27 79.29l14.64 14.64c3.886 3.898 9.167 6.083 14.67 6.07V50L29.27 79.29z"></path><path fill="url(#prefix__c)" d="M73.27 64.64L58.58 50 29.27 79.29l14.64 14.64c3.883 3.888 9.151 6.072 14.645 6.072S69.317 97.818 73.2 93.93c3.894-3.875 6.089-9.138 6.102-14.63.013-5.494-2.157-10.767-6.032-14.66z"></path><path fill="url(#prefix__d)" d="M29.27 20.71L58.58 50V0c-5.497-.006-10.77 2.178-14.65 6.07L29.27 20.71z"></path><path fill="url(#prefix__e)" d="M73.27 6.07C69.387 2.185 64.119 0 58.625 0S47.863 2.184 43.98 6.07L29.27 20.71 58.58 50l14.69-14.64c3.884-3.883 6.067-9.151 6.067-14.644S77.154 9.955 73.27 6.07z"></path><path fill="url(#prefix__f)" d="M58.58 50.001L29.29 20.711 0 50.001 0 50.001 29.29 79.291z"></path><path fill="url(#prefix__g)" d="M58.58 50.001L29.29 20.711 0 50.001 0 50.001 29.29 79.291z" opacity=".7"></path></g></svg> 