<svg id="Layer_1" data-name="Layer 1" xmlns="http://www.w3.org/2000/svg" xmlns:xlink="http://www.w3.org/1999/xlink" viewBox="0 0 214.44 177.12"><defs><style>.cls-1{fill:#1a296d;}.cls-2{stroke:#fff;stroke-miterlimit:10;fill:url(#linear-gradient);}.cls-3{fill:#fff;}</style><linearGradient id="linear-gradient" x1="67.17" y1="174.62" x2="148.13" y2="67.19" gradientTransform="matrix(1, 0, 0, -1, -0.43, 188.66)" gradientUnits="userSpaceOnUse"><stop offset="0"/><stop offset="0" stop-color="#181c53"/><stop offset="0.31" stop-color="#125e8c"/><stop offset="0.57" stop-color="#1765ad"/><stop offset="1" stop-color="#181c53"/></linearGradient></defs><title>LOGO_classique</title><g id="JETDEV"><path class="cls-1" d="M2.23,228.25q-1.13,0-1.46-.66a4.43,4.43,0,0,1-.33-1.92,4.14,4.14,0,0,1,.33-1.86q.33-.63,1.46-.63H5.44q4.14,0,6-1.08a3.07,3.07,0,0,0,1.86-2.58V196.2a1.83,1.83,0,0,1,.8-1.79,5.16,5.16,0,0,1,2.34-.41,5,5,0,0,1,2.3.42,1.83,1.83,0,0,1,.8,1.79v23.31q0,8.74-14,8.74Z" transform="translate(-0.43 -51.34)"/><path class="cls-1" d="M29.3,217.68v2.4a2.87,2.87,0,0,0,1.79,2.42,12.19,12.19,0,0,0,5.73,1h5.41q1.08,0,1.39.59a4,4,0,0,1,.31,1.76,4.11,4.11,0,0,1-.31,1.79q-.31.61-1.39.61h-5.6q-13.3,0-13.3-8.18v-10.2q0-8.18,13.3-8.18H47.44q7.05,0,10.18,2a6.83,6.83,0,0,1,3.13,6.16v5.41a2.65,2.65,0,0,1-.52,1.88,3.47,3.47,0,0,1-2.3.52Zm0-4.65H54.82v-3.15a2.77,2.77,0,0,0-1.76-2.54,13.6,13.6,0,0,0-5.76-.89H36.82a12.47,12.47,0,0,0-5.73,1,2.85,2.85,0,0,0-1.79,2.44Z" transform="translate(-0.43 -51.34)"/><path class="cls-1" d="M66.33,201.7v-5.5a1.9,1.9,0,0,1,.73-1.79,4.57,4.57,0,0,1,2.23-.42,4.73,4.73,0,0,1,2.26.42,1.87,1.87,0,0,1,.75,1.79v5.5h9.92c.72,0,1.18.2,1.38.61a4.1,4.1,0,0,1,.31,1.79,3.93,3.93,0,0,1-.31,1.76c-.2.39-.67.59-1.38.59H72.3v19.79a1.87,1.87,0,0,1-.75,1.79,4.72,4.72,0,0,1-2.26.42,4.57,4.57,0,0,1-2.23-.42,1.9,1.9,0,0,1-.73-1.79v-19.8H63.65q-1.08,0-1.39-.59a3.94,3.94,0,0,1-.31-1.76,4.11,4.11,0,0,1,.31-1.79q.3-.61,1.39-.61Z" transform="translate(-0.43 -51.34)"/><path class="cls-1" d="M129.44,219.51q0,8.74-13.91,8.74H88.85A1.93,1.93,0,0,1,86.68,226V196.3a1.91,1.91,0,0,1,2.16-2.16h26.65q13.91,0,13.91,8.74Zm-36.5,3.66h22.37q4.14,0,6-1.08a3.07,3.07,0,0,0,1.9-2.58V202.92a3,3,0,0,0-1.9-2.61,13,13,0,0,0-6-1.06H92.94Z" transform="translate(-0.43 -51.34)"/><path class="cls-1" d="M138.95,217.68v2.4a2.87,2.87,0,0,0,1.79,2.42,12.19,12.19,0,0,0,5.73,1h5.4q1.08,0,1.39.59a4,4,0,0,1,.31,1.76,4.12,4.12,0,0,1-.31,1.79q-.31.61-1.39.61h-5.59q-13.3,0-13.3-8.18v-10.2q0-8.18,13.3-8.18h10.86q7,0,10.17,2a6.83,6.83,0,0,1,3.13,6.16v5.41a2.64,2.64,0,0,1-.52,1.88,3.47,3.47,0,0,1-2.3.52Zm0-4.65h25.49v-3.15a2.77,2.77,0,0,0-1.76-2.54,13.6,13.6,0,0,0-5.76-.89H146.44a12.46,12.46,0,0,0-5.73,1,2.85,2.85,0,0,0-1.79,2.44Z" transform="translate(-0.43 -51.34)"/><path class="cls-1" d="M192.9,228.44a5.52,5.52,0,0,1-2-.31,3,3,0,0,1-1.29-1l-18.47-22.85a1.36,1.36,0,0,1,.58-2.29,5.74,5.74,0,0,1,2.49-.49,6.48,6.48,0,0,1,1.62.21,2.42,2.42,0,0,1,1.34.87l15.75,19.74,15.79-19.79a2.28,2.28,0,0,1,1.25-.82,5.94,5.94,0,0,1,1.58-.21,5.47,5.47,0,0,1,2.33.47,1.43,1.43,0,0,1,1,1.27,1.78,1.78,0,0,1-.42,1l-18.28,22.89a3,3,0,0,1-1.29,1A5.53,5.53,0,0,1,192.9,228.44Z" transform="translate(-0.43 -51.34)"/></g><circle id="Background" class="cls-2" cx="107.22" cy="67.75" r="67.25"/><path class="cls-3" d="M152.71,77.11a4.49,4.49,0,0,0-1.56,0,15,15,0,0,0-3.78,1.18,54.41,54.41,0,0,0-7.23,3.87c-2.37,1.51-4.7,3-7,4.54L115.22,98.19l-8,5.15a1.14,1.14,0,0,1-.91.17c-.89-.17-1.8-.3-2.7-.44l-3.43-.54-4-.64-3.38-.53-3.9-.64-3.43-.54-3.78-.63a.89.89,0,0,0-.69.17c-.16.11-.3.24-.45.37l-7.52,6.37A.93.93,0,0,0,73,108c.45.54.92,1.07,1.38,1.6l4.93,5.66,6.95,8,1.31,1.51-4,3.44L82,129.59a.54.54,0,0,1-.39.17l-2.08-.32-3-.44-3-.43L69.84,128l-3.78-.57a1.26,1.26,0,0,0-1.13.32c-.88.8-1.78,1.56-2.66,2.32-.35.32-.76.64-1.1,1a.87.87,0,0,0,.23,1.51l.4.17,12.14,5.39a7.84,7.84,0,0,1,1.14.53l-5,4.36c-1.07.93-2.16,1.85-3.22,2.79a.54.54,0,0,1-.58.15,1.38,1.38,0,0,0-.82,0,1.83,1.83,0,0,0-1.38,2,1.85,1.85,0,0,0,2,1.63,1.79,1.79,0,0,0,1.63-1.82.85.85,0,0,1,.35-.76l3-2.57,4-3.5,2.15-1.87a.91.91,0,0,0-.21-1.59h-.09l-11.35-5-2.27-1,.08-.11c.81-.68,1.57-1.35,2.32-2a.45.45,0,0,1,.41-.09l1.31.2,3.68.53,3.82.57,3,.42c1.21.17,2.44.35,3.67.55a1.35,1.35,0,0,0,1.32-.41L83,131l3.56-3.09,2.66-2.32a1,1,0,0,0,.38-.76,1.1,1.1,0,0,0-.35-.76l-6.49-7.48-7.45-8.59a3.83,3.83,0,0,1-.54-.68l.2-.17L78.76,104l2.65-2.27c.28-.25.54-.42.92-.25h0l5.3.82,5.19.84,7.34,1.17c2.16.34,4.31.66,6.47,1a1.38,1.38,0,0,0,1.05-.21l14.1-9.08,10.08-6.49c2-1.29,4-2.58,6.05-3.9a77.12,77.12,0,0,1,9-5.21A19.67,19.67,0,0,1,150.78,79a4.33,4.33,0,0,1,1.32-.17c.55,0,.73.26.65.8a4.54,4.54,0,0,1-.23.89,14,14,0,0,1-1.2,2.46,59.9,59.9,0,0,1-5.72,7.7c-1.46,1.72-3,3.41-4.42,5.12l-6.34,7.35-4.34,5.06-5.61,6.55c-1.47,1.72-2.93,3.44-4.4,5.14a1.27,1.27,0,0,0-.33.93c.08,1.11,0,2.22.08,3.34.06,1.79,0,3.61.1,5.34s0,3.45.1,5.2,0,3.5.1,5.24,0,3.5.11,5.24a.9.9,0,0,1-.35.8c-1.33,1.17-2.66,2.37-4,3.56L113.52,152a1.1,1.1,0,0,1-.33-.31L111,149.16l-4.84-5.59-3.59-4.15q-1.78-2.06-3.57-4.1a.89.89,0,0,0-1.41-.11l-1.74,1.51-4.63,4a1,1,0,0,0-.39.86v3.68l0,11.92a.64.64,0,0,0,0,.1.48.48,0,0,1-.21.46l-1.63,1.41-.68.57c0-.08-.05-.13-.06-.16L87,155.65l-2.49-8.58c-.13-.47-.26-.95-.41-1.41l0-.07A.89.89,0,0,0,83,145a1.81,1.81,0,0,0-.56.39l-6.29,5.47q-4.29,3.71-8.55,7.42a.58.58,0,0,1-.65.14,2,2,0,0,0-2.22.63,2.08,2.08,0,0,0-.41,2.27,2.19,2.19,0,0,0,4.15-.22,2.36,2.36,0,0,0,0-1.26l14.3-12.34a.23.23,0,0,1,.15.17l1.69,5.81q1.16,4,2.33,8a.89.89,0,0,0,1.57.47c1.21-1,2.41-2.1,3.63-3.14a1.29,1.29,0,0,0,.48-1.07V142.29a.64.64,0,0,1,.21-.56c1.5-1.29,3-2.59,4.48-3.88l.86-.76,2.63,3,5.52,6.36,4.87,5.64c.48.56,1,1.1,1.45,1.67a.95.95,0,0,0,1.51.1l.29-.26,2.19-2,5.4-4.84a1.1,1.1,0,0,0,.39-.9q0-1.32-.07-2.64c-.05-1.73,0-3.42-.1-5.2s0-3.63-.1-5.34,0-3.43-.09-5.15c-.05-2.13-.05-4.24-.12-6.37a.58.58,0,0,1,.15-.44c.2-.23.4-.47.61-.7l8.41-9.84,6.81-7.92L146.76,92a73.28,73.28,0,0,0,4.89-6.27A23.78,23.78,0,0,0,154,81.63a6,6,0,0,0,.54-2.16A2.17,2.17,0,0,0,152.71,77.11ZM65.89,148.89a1,1,0,1,1,1-1A1,1,0,0,1,65.89,148.89Z" transform="translate(-0.43 -51.34)"/></svg>