<svg width="228" height="35" fill="none" xmlns="http://www.w3.org/2000/svg"><g clip-path="url(#clip0)"><path d="M107.393 2.444c-.321-1.025-1.044-1.774-2.008-2.168A3.252 3.252 0 0 0 104.02 0c-.522 0-.964.079-1.406.276-.924.394-1.647 1.143-1.928 2.128L88.758 30.191a3.35 3.35 0 0 0 0 2.641 3.493 3.493 0 0 0 1.727 1.813l.12.04h.04l.202.078c.401.119.803.198 1.204.198.442 0 .924-.08 1.326-.276a3.521 3.521 0 0 0 1.928-1.853l2.81-6.582 10.845-2.247 3.775 8.83c.361.866 1.044 1.497 1.928 1.852a3.462 3.462 0 0 0 2.731-.04c.883-.355 1.526-1.025 1.887-1.892a3.346 3.346 0 0 0 0-2.64l-11.888-27.67zm-1.164 15.214l-4.86 1.024 2.651-6.148 2.209 5.124zm74.581-10.76v13.598c0 3.665-2.731 6.779-6.185 7.134-2.249.236-4.298-.552-5.824-2.208-1.124-1.221-1.767-2.916-1.767-4.769V3.666c0-.946-.361-1.814-1.044-2.484-.683-.67-1.567-.985-2.53-.985-1.928.04-3.495 1.577-3.495 3.469v17.618c0 4.611 2.37 8.907 6.346 11.47A14.23 14.23 0 0 0 173.942 35c2.691 0 5.341-.788 7.631-2.247 3.976-2.562 6.345-6.818 6.345-11.47V.159h-.201c-3.815 0-6.907 3.035-6.907 6.74zM210.53.67c-9.639 0-17.471 7.686-17.471 17.145 0 9.46 7.832 17.146 17.471 17.146 9.638 0 17.47-7.686 17.47-17.146S220.168.67 210.53.67zm10.562 17.579c0 5.715-4.739 10.366-10.562 10.366-5.824 0-10.563-4.651-10.563-10.366s4.739-10.366 10.563-10.366c5.823 0 10.562 4.65 10.562 10.366zM137.153.67h-12.048V35h11.968c9.599 0 17.43-7.686 17.471-17.106 0-4.572-1.808-8.908-5.101-12.14-3.253-3.27-7.631-5.045-12.29-5.084zm10.483 17.224c0 5.676-4.739 10.327-10.563 10.327h-5.06V7.489h5.1c2.812 0 5.462 1.103 7.47 3.074 1.968 1.931 3.093 4.572 3.053 7.331zM85.344.236c-1.767-.709-3.775.158-4.498 1.892l-8.233 20.299L64.34 2.128C63.617.394 61.609-.473 59.842.236c-.844.355-1.527.986-1.888 1.814a3.433 3.433 0 0 0-.04 2.6L69.36 32.873c.08.236.24.473.361.67.201.276.402.473.643.67.04.04.08.078.12.078.08.08.201.119.282.198.08.039.16.078.2.118.08.04.12.079.201.079.04 0 .04.04.08.04.04.038.121.038.161.038.04 0 .08.04.16.04.121.04.282.079.402.079h.08c.161.04.322.04.483.04.482 0 .923-.08 1.365-.277.844-.355 1.526-1.025 1.848-1.852l11.446-28.22c.803-1.656-.08-3.627-1.848-4.337z" fill="#1B1464"/><path d="M26.537 33.305c-1.968 1.931-5.18 1.931-7.189 0L1.476 15.765c-1.968-1.93-1.968-5.084 0-7.054 1.968-1.932 5.18-1.932 7.189 0L26.537 26.25c1.968 1.97 1.968 5.124 0 7.055z" fill="#006396"/><path d="M17.782 20.85l.16.237v-.276l-.16.04zm26.627-1.852L26.497 1.458c-1.968-1.931-5.181-1.931-7.19 0-1.967 1.932-1.967 5.085 0 7.056l8.676 8.513v5.242c0-1.931 2.45-2.838 3.855-1.458l5.382 5.281c1.968 1.932 5.181 1.932 7.19 0a5 5 0 0 0 0-7.094z" fill="#9F96F4"/><path d="M22.922 0c-2.81 0-5.06 2.247-5.06 4.966V29.797c0 2.76 2.29 4.966 5.06 4.966 2.772 0 5.06-2.246 5.06-4.966V4.966C28.024 2.246 25.735 0 22.923 0z" fill="#00BAC9"/></g><defs><clipPath id="clip0"><path fill="#fff" d="M0 0H228V35H0z"/></clipPath></defs></svg>