<?xml version="1.0" encoding="UTF-8"?> <!-- Generator: Adobe Illustrator 23.0.1, SVG Export Plug-In . SVG Version: 6.00 Build 0) --> <svg xmlns="http://www.w3.org/2000/svg" xmlns:xlink="http://www.w3.org/1999/xlink" id="Calque_1" x="0px" y="0px" viewBox="0 0 288 100" style="enable-background:new 0 0 288 100;" xml:space="preserve"> <style type="text/css"> .st0{fill:#FFFFFF;} </style> <g id="Page-1_5_"> <g id="Group-54-Copy_5_" transform="translate(10.000000, 10.000000)"> <g id="Group-52_5_"> <g id="Stroke-1_5_"> <g> <path class="st0" d="M223.65,83.87h-35.33c-5.25,0-9.51-4.26-9.51-9.51c0-5.25,4.26-9.51,9.51-9.51h35.33 c15.91,0,27.02-10.24,27.02-24.91c0-14.9-11.11-25.3-27.02-25.3H204.4c-5.25,0-9.51-4.26-9.51-9.51s4.26-9.51,9.51-9.51h19.24 c26.24,0,46.03,19.05,46.03,44.32C269.68,64.99,249.89,83.87,223.65,83.87z"></path> </g> </g> <g id="Stroke-3_5_"> <g> <path class="st0" d="M37.75,84.37c-0.06,0-0.11,0-0.17,0c-4.03-0.07-7.57-2.67-8.85-6.49L6.7,11.97 c-1.66-4.98,1.02-10.37,6-12.03c4.98-1.67,10.37,1.02,12.03,6l13.51,40.43l15-40.08c1.39-3.71,4.94-6.18,8.9-6.18l0,0 c3.97,0,7.51,2.46,8.9,6.18l15.2,40.64l9.78-27.96C99.9,7.69,108.05-0.43,118.4-3.25c7.29-1.99,15.06-1.29,21.9,1.97 c1.06,0.51,2.09,1.07,3.08,1.68c4.98-3.07,10.76-4.75,16.63-4.75c8.44,0,16.7,3.48,22.65,9.55c6,6.11,9.31,14.24,9.31,22.88 c-0.01,8.64-3.33,16.76-9.35,22.87l-27.73,28.33c-3.09,3.14-7.19,4.86-11.55,4.86h0c-4.36,0-8.46-1.72-11.53-4.84l-6.79-6.95 l-11.35-11.6c-3.67-3.75-3.61-9.77,0.14-13.44c3.75-3.67,9.77-3.61,13.44,0.14l16.1,16.44l25.7-26.27c2.48-2.52,3.9-6,3.9-9.57 c0-3.56-1.41-7.04-3.86-9.54c-2.44-2.49-5.67-3.86-9.09-3.86c-3.42,0-6.64,1.37-9.08,3.85l-0.78,0.79 c-1.79,1.83-4.24,2.86-6.79,2.86c-2.56,0-5-1.03-6.79-2.86l-0.78-0.8c-1.08-1.1-2.31-1.99-3.68-2.64 c-2.72-1.3-5.81-1.58-8.7-0.79c-5.91,1.61-8.53,7.6-9.39,10.1L95.53,78c-1.32,3.78-4.87,6.32-8.87,6.37c-0.03,0-0.07,0-0.1,0 c-3.96,0-7.51-2.46-8.9-6.18l-15.5-41.43l-15.5,41.43C45.26,81.91,41.71,84.37,37.75,84.37z"></path> </g> </g> </g> </g> </g> </svg> 