<svg id="Calque_1" data-name="Calque 1" xmlns="http://www.w3.org/2000/svg" viewBox="0 0 265.7 52.1"><defs><style>.cls-1{opacity:0.2;}.cls-2{fill:#b21414;}</style></defs><title>bt-register</title><g class="cls-1"><path d="M4.55,6.3c84.84,0,170.09-2.61,254.88-.43a47.41,47.41,0,0,1-23.85,20q19.57,4.56,27.12,23.18C175.88,46.77,86.54,55.7.28,50.39a222.38,222.38,0,0,1,2.1-43.6" transform="translate(0 0)"/></g><path class="cls-2" d="M7.55,1.3c84.84,0,170.09-2.61,254.88-.43a47.41,47.41,0,0,1-23.85,20q19.57,4.56,27.12,23.18C178.88,41.77,89.54,50.7,3.28,45.39a222.38,222.38,0,0,1,2.1-43.6" transform="translate(0 0)"/></svg>