<svg id="04dee97e-027b-40f3-8f2a-1d2ad2924a0d" data-name="Calque 1" xmlns="http://www.w3.org/2000/svg" width="16" height="16" viewBox="0 0 16 16">
  <title>cat-web</title>
  <path d="M11.49,9.6A14.17,14.17,0,0,0,11.6,8a14.17,14.17,0,0,0-.11-1.6h2.7a6.2,6.2,0,0,1,0,3.2m-4.12,4.45a12.78,12.78,0,0,0,1.11-2.85h2.36a6.48,6.48,0,0,1-3.47,2.85M9.87,9.6H6.13A10.68,10.68,0,0,1,6,8a10.57,10.57,0,0,1,.13-1.6H9.87A12,12,0,0,1,10,8a12.18,12.18,0,0,1-.13,1.6M8,14.37A11.07,11.07,0,0,1,6.47,11.2H9.53A11.07,11.07,0,0,1,8,14.37M4.8,4.8H2.46A6.37,6.37,0,0,1,5.92,2,13.85,13.85,0,0,0,4.8,4.8M2.46,11.2H4.8a13.85,13.85,0,0,0,1.12,2.85A6.46,6.46,0,0,1,2.46,11.2M1.81,9.6a6.2,6.2,0,0,1,0-3.2h2.7A14.17,14.17,0,0,0,4.4,8a14.17,14.17,0,0,0,.11,1.6M8,1.62A11.13,11.13,0,0,1,9.53,4.8H6.47A11.13,11.13,0,0,1,8,1.62M13.54,4.8H11.18A12.78,12.78,0,0,0,10.07,2,6.44,6.44,0,0,1,13.54,4.8M8,0a8,8,0,1,0,8,8A8,8,0,0,0,8,0Z" style="fill: #99003e"/>
</svg>
