<svg id="Calque_2" data-name="Calque 2" xmlns="http://www.w3.org/2000/svg" viewBox="0 0 469 426"><defs><style>.cls-1{fill:#edeccc;}</style></defs><title>cloud</title><path class="cls-1" d="M469,215.5a46.4,46.4,0,0,0-16.79-35.77A59.47,59.47,0,0,0,411,81.11V81A81,81,0,0,0,260.09,40.1a81.91,81.91,0,0,0-98.37-1.36A91,91,0,1,0,22.78,156.21a80,80,0,0,0,55.67,133.7A75.49,75.49,0,1,0,180,400.51a157.26,157.26,0,0,0,137,5.32A36,36,0,0,0,379.1,374a44.5,44.5,0,1,0,47-75.45,28,28,0,0,0,8.77-38.25A46.52,46.52,0,0,0,469,215.5Z"/></svg>