<svg id="Calque_1" data-name="Calque 1" xmlns="http://www.w3.org/2000/svg" viewBox="0 0 24.49 24.49"><title>diamond</title><rect x="1.24" y="1.24" width="6" height="6" transform="translate(-1.76 4.24) rotate(-45)" fill="#fff"/><rect x="1.24" y="9.24" width="6" height="6" transform="translate(-7.41 6.59) rotate(-45)" fill="#fff"/><rect x="9.24" y="1.24" width="6" height="6" transform="translate(0.59 9.9) rotate(-45)" fill="#fff"/><rect x="17.24" y="1.24" width="6" height="6" transform="translate(2.93 15.56) rotate(-45)" fill="#fff"/><rect x="1.24" y="17.24" width="6" height="6" transform="translate(-13.07 8.93) rotate(-45)" fill="#fff"/><rect x="9.24" y="17.24" width="6" height="6" transform="translate(-10.73 14.59) rotate(-45)" fill="#fff"/><rect x="17.24" y="17.24" width="6" height="6" transform="translate(-8.38 20.24) rotate(-45)" fill="#fff"/><rect x="17.24" y="9.24" width="6" height="6" transform="translate(-2.73 17.9) rotate(-45)" fill="#fff"/><rect x="4.24" y="4.24" width="16" height="16" fill="#fff"/></svg>