<svg id="Calque_1" data-name="Calque 1" xmlns="http://www.w3.org/2000/svg" viewBox="0 0 270.1 367.55"><defs><style>.cls-1{fill:none;stroke:#71cc71;stroke-miterlimit:10;stroke-width:2px;stroke-dasharray:3;}.cls-2{fill:#ffc152;}.cls-3{opacity:0.18;}.cls-4{opacity:0.12;}.cls-5,.cls-6{fill:#3f140b;}.cls-5{opacity:0.42;}.cls-7{fill:#71cc71;}.cls-8{fill:#459945;}</style></defs><title>direction</title><path class="cls-1" d="M101.72,26.17C96.08,13.91,71.83,6.34,59.94,3.52,43.88-.29,23.47-1.34,11.46,11.89,4.1,20-7,42.85,9.73,48.17c18.72,6,17.2-25.21,4.4-19.71"/><path class="cls-2" d="M100.46,116.7V336.05s6.73,7,12.63,6.27,18.52-6.27,18.52-6.27V22.38S120.67,4.7,116,4.7s-15.57,19.37-15.57,19.37Z"/><path class="cls-3" d="M116,25.53v-11l-5.84-5.57c-4.69,5.78-9.73,13.14-9.73,13.14v314.8s6.73,7.1,12.63,6.32a24.61,24.61,0,0,0,2.94-.61Z"/><polygon class="cls-2" points="45.03 44.63 44.94 103.04 233.88 93.3 270.1 45.82 220.06 22.04 45.03 44.63"/><polygon class="cls-4" points="44.34 51.34 44.25 109.74 233.19 100 269.41 52.52 219.37 28.74 44.34 51.34"/><path class="cls-5" d="M108.23,323.89a3.89,3.89,0,0,0,1.48,5.19l-.12.05A49.09,49.09,0,0,0,111,316.58a80.33,80.33,0,0,0-1.3-12.57c-1.46-8.32-3.82-16.46-5.61-24.74a112.9,112.9,0,0,1-2.1-12.55,105.81,105.81,0,0,1-.57-12.71A101.43,101.43,0,0,1,105,228.89l0-.17.14.08a3,3,0,0,1,1.31,3.9l-.08,0a2.86,2.86,0,0,0-1.34-3.63l.19-.08A115.08,115.08,0,0,0,102.21,254a113.39,113.39,0,0,0,2.5,25.11c1.7,8.27,4,16.43,5.39,24.8a78.92,78.92,0,0,1,1.16,12.65,49.93,49.93,0,0,1-1.51,12.59l0,.1-.09,0a4,4,0,0,1-1.47-5.38Z"/><path class="cls-5" d="M122.71,97.9c.82,6.33,1.87,12.63,2.75,19A151.06,151.06,0,0,1,127,136a79.08,79.08,0,0,1-.46,9.61,57.5,57.5,0,0,1-1.89,9.45,9.36,9.36,0,0,1-2.26,4.38,3.26,3.26,0,0,1-2.4,1,2.49,2.49,0,0,1-1.29-.38,3.17,3.17,0,0,1-.93-.93,3.66,3.66,0,0,1-.56-2.47,3.1,3.1,0,0,1,1.33-2.12,4.4,4.4,0,0,1,4.67,0l0,.07a4.17,4.17,0,0,0-4.4.28,2.67,2.67,0,0,0-1.08,1.87,3.13,3.13,0,0,0,.56,2.08,2.14,2.14,0,0,0,1.76,1,2.55,2.55,0,0,0,1.87-.84,8.68,8.68,0,0,0,2-4.09l.6-2.3c.22-.77.32-1.55.49-2.33.35-1.55.55-3.12.78-4.69a77.47,77.47,0,0,0,.61-9.51A148.39,148.39,0,0,0,125,116.92c-.76-6.34-1.7-12.66-2.41-19Z"/><path class="cls-5" d="M120.91,229.56l-2.09,18.58a10.9,10.9,0,0,0-.15,2.22.83.83,0,0,0,.45.65,1.12,1.12,0,0,0,.84-.1,4.35,4.35,0,0,0,1.54-1.46,10.34,10.34,0,0,0,1.14-1.92,11.34,11.34,0,0,0,.36-8.78h.49a8.29,8.29,0,0,0-.69,4.33h-.09a7.84,7.84,0,0,1,.28-4.54l.22-.58.27.58a11,11,0,0,1,0,9.35,10.15,10.15,0,0,1-1.28,2.06,11.59,11.59,0,0,1-.81.92,4,4,0,0,1-1.08.72,1.78,1.78,0,0,1-1.42.07,1.51,1.51,0,0,1-.84-1.19,4.35,4.35,0,0,1,0-1.26l.16-1.15,2.62-18.51Z"/><path class="cls-5" d="M122.87,328.19,122.21,297c-.17-10.39-.52-20.78-.48-31.18V265l.59.56a12.31,12.31,0,0,1,3,13.15l-.08,0a12.21,12.21,0,0,0,.09-6.83,12,12,0,0,0-3.49-5.76l.6-.26c.32,10.38.25,20.77.34,31.16l.17,31.18Z"/><path class="cls-5" d="M107.12,173.34a119.84,119.84,0,0,1-1.39-33.47,111,111,0,0,1,2.82-16.57c.39-1.36.69-2.7,1.16-4.06a7.26,7.26,0,0,1,1-2,3.56,3.56,0,0,1,1.83-1.32,3.35,3.35,0,0,1,3.86,1.63,3.26,3.26,0,0,1-1,3.92l-.06-.06a3,3,0,0,0,.67-3.68,2.89,2.89,0,0,0-3.35-1.25,4.24,4.24,0,0,0-2.31,3c-.41,1.3-.69,2.69-1,4a145.16,145.16,0,0,0-3,16.44,124.41,124.41,0,0,0,.8,33.38Z"/><path class="cls-5" d="M118.93,232.58a27.58,27.58,0,0,1,0-11.12c.65-3.68,1.62-7.27,2.43-10.9a197.45,197.45,0,0,0,4.07-21.92,95.66,95.66,0,0,0,.66-11.09,73.19,73.19,0,0,0-.74-11.07c-.29-1.82-.56-3.66-1-5.45a28.06,28.06,0,0,0-1.8-5.2,14.9,14.9,0,0,0-3.16-4.46,5,5,0,0,0-2.23-1.46,1,1,0,0,0-1.08.48c-.21.36-.2,1,.25,1.11l0,.08a.69.69,0,0,1-.47-.54,1.18,1.18,0,0,1,.1-.72,1.05,1.05,0,0,1,.52-.54,1.57,1.57,0,0,1,.74-.1,5.19,5.19,0,0,1,2.46,1.41,15.13,15.13,0,0,1,3.42,4.48,36.11,36.11,0,0,1,3.12,10.79,72.22,72.22,0,0,1,.74,11.19,95.06,95.06,0,0,1-.82,11.18,196.58,196.58,0,0,1-4.33,21.92c-.87,3.62-1.89,7.21-2.59,10.86a27.42,27.42,0,0,0-.18,11.05Z"/><path class="cls-5" d="M59.55,90.14q7.5.56,15,.55t15-.58c2.5-.19,5-.45,7.46-.73l3.72-.47c1.23-.19,2.57-.18,3.44-.77a2.38,2.38,0,0,0,.65-2.91,3.85,3.85,0,0,0-2.33-2.38,6.69,6.69,0,0,0-3.58,0,21.58,21.58,0,0,0-3.52,1.22l0-.08a21.82,21.82,0,0,1,3.46-1.51,7,7,0,0,1,3.84-.17A4.37,4.37,0,0,1,105.49,85a3.81,3.81,0,0,1,.26,2,2.69,2.69,0,0,1-1.11,1.82,4.42,4.42,0,0,1-1.93.69c-.64.1-1.25.17-1.87.26-1.25.17-2.5.29-3.75.42-2.49.24-5,.45-7.5.59q-7.52.45-15,.32c-5-.1-10-.41-15-.89Z"/><path class="cls-5" d="M193.49,37.1c1.87-1,4-1.05,6.08-1.18l6.2-.32c2.06-.11,4.12-.27,6.19-.28s4.14,0,6.21.18v.08c-2,.31-4.12.43-6.18.58s-4.14.09-6.2.11l-6.2.07c-2.06,0-4.17,0-6.06.84Z"/><path class="cls-5" d="M215.6,41.31c3.87-.35,7.82-.72,11.74.06a7.28,7.28,0,0,1,2.81,1.21,4.09,4.09,0,0,1,1.6,2.73,3,3,0,0,1-.26,1.65,2.41,2.41,0,0,1-1.23,1.17,2.63,2.63,0,0,1-1.63.18,1.87,1.87,0,0,1-1.32-1l.15.1A.6.6,0,0,1,227,47a.93.93,0,0,1,0-.55.9.9,0,0,1,.28-.44.51.51,0,0,1,.5-.08l0,.09c-.29-.06-.47.23-.49.49a.61.61,0,0,0,.05.36.27.27,0,0,0,.22.13h.08l.07.09a1.78,1.78,0,0,0,2.27.33,1.94,1.94,0,0,0,.95-2.06,3.46,3.46,0,0,0-1.23-2.22,6.26,6.26,0,0,0-2.47-1.2,28.23,28.23,0,0,0-5.74-.68c-1.95-.06-3.9,0-5.85.09Z"/><path class="cls-6" d="M66.87,63.12c.47,1.89.83,3.81,1.15,5.74s.52,3.88.69,5.83A36,36,0,0,1,69,80.56a24.64,24.64,0,0,1-1,5.81h-.17a50.45,50.45,0,0,1-.46-5.83c-.09-1.93.11-3.85.1-5.78s-.07-3.87-.19-5.8-.27-3.87-.47-5.8Z"/><path class="cls-6" d="M69.19,72.81c.72-1,1.45-1.91,2.12-2.9s1.35-2,2-3,1.1-2.1,1.82-3a16.93,16.93,0,0,1,2.42-2.71l.15.07a10.83,10.83,0,0,1-1.14,3.53,15.45,15.45,0,0,1-2.16,2.94c-.77.93-1.58,1.84-2.41,2.72s-1.73,1.7-2.65,2.47Z"/><path class="cls-6" d="M69.93,72.11c1.17.87,2.28,1.81,3.39,2.76s2.16,2,3.2,3a24.51,24.51,0,0,1,3,3.21A15.68,15.68,0,0,1,81.6,85l-.14.1a24.22,24.22,0,0,1-3.25-3c-1-1-1.78-2.25-2.69-3.37s-1.83-2.23-2.79-3.3-1.93-2.17-2.91-3.24Z"/><path class="cls-6" d="M89.93,59.94c.14,1.88.23,3.76.34,5.64l.25,5.64a53.13,53.13,0,0,1,.17,5.64,30.43,30.43,0,0,1-.76,5.65h-.17A31.27,31.27,0,0,1,89,76.86a50.6,50.6,0,0,1,.17-5.64l.25-5.64c.11-1.88.2-3.76.33-5.64Z"/><path class="cls-6" d="M101.47,59.29a43.85,43.85,0,0,1,1.33,5.22,48.06,48.06,0,0,1,.69,5.37,25.94,25.94,0,0,1,0,5.43,18.27,18.27,0,0,1-1.47,5.25l-.17,0c-.12-1.83-.07-3.59,0-5.35s.28-3.5.3-5.27a49.21,49.21,0,0,0-.17-5.29c-.12-1.77-.37-3.53-.66-5.29Z"/><path class="cls-6" d="M102,58.93a4.19,4.19,0,0,1,2.87,1.32,12.44,12.44,0,0,1,1.93,2.54L110,68.18c1,1.8,2.19,3.53,3,5.42a37.9,37.9,0,0,1,2.24,5.86l-.15.08a37,37,0,0,1-3.57-5.15c-1.08-1.78-1.86-3.71-2.76-5.58l-2.69-5.62a11.63,11.63,0,0,0-1.57-2.58A3.93,3.93,0,0,0,102,59.1Z"/><path class="cls-6" d="M116.25,79.28c0-1.89,0-3.77,0-5.66l.09-5.66a53.23,53.23,0,0,1,.17-5.65,30.6,30.6,0,0,1,1.09-5.6h.17a31.28,31.28,0,0,1,.42,5.69,53,53,0,0,1-.51,5.63l-.59,5.63c-.22,1.87-.43,3.75-.67,5.62Z"/><path class="cls-6" d="M126.59,56.71c.4,1.85.69,3.73.94,5.61s.39,3.78.48,5.68a33,33,0,0,1,0,5.71,23.14,23.14,0,0,1-1.29,5.59l-.17,0a49.38,49.38,0,0,1-.22-5.67c0-1.87.25-3.73.32-5.6s.08-3.75,0-5.63-.13-3.76-.26-5.64Z"/><path class="cls-6" d="M126.61,56.07a18.94,18.94,0,0,1,2.32-1.42,19.43,19.43,0,0,1,2.53-1.08,8.65,8.65,0,0,1,2.68-.71,5.93,5.93,0,0,1,2.78.52v.17a11.57,11.57,0,0,1-2.55,1,24.25,24.25,0,0,1-2.58.34c-.85.15-1.71.34-2.56.56s-1.7.5-2.55.79Z"/><path class="cls-6" d="M129.14,66.9c.23-.22.47-.41.7-.61a9,9,0,0,1,.73-.53c.25-.17.45-.47.76-.46a1.69,1.69,0,0,1,1.07.42l.06.16a1.64,1.64,0,0,1-.56,1c-.23.21-.58.1-.87.13a6.8,6.8,0,0,1-.9.06c-.31,0-.62,0-.93,0Z"/><path class="cls-6" d="M127.24,78.61a20,20,0,0,1,2.38-1.26,18.54,18.54,0,0,1,2.56-.92,8.47,8.47,0,0,1,2.68-.54,5.8,5.8,0,0,1,2.71.69v.17a10.91,10.91,0,0,1-2.57.82,24.09,24.09,0,0,1-2.56.19c-.86.09-1.71.22-2.57.39s-1.71.38-2.56.61Z"/><path class="cls-6" d="M148,52.85c.05,2.1.08,4.2.17,6.29s.15,4.19.27,6.28.4,4.17.38,6.26a46.55,46.55,0,0,1-.36,6.32h-.17a33.7,33.7,0,0,1-1.16-6.25,53.29,53.29,0,0,1,0-6.32c0-2.1.12-4.21.23-6.31s.29-4.2.51-6.29Z"/><path class="cls-6" d="M148.49,52.13a5.59,5.59,0,0,1,3.37-.68,7.61,7.61,0,0,1,3.32,1.17,7.91,7.91,0,0,1,3.73,6,8.49,8.49,0,0,1-2.58,6.71,8.91,8.91,0,0,1-6.5,2.6l0-.17a12.81,12.81,0,0,0,5.3-3.59,8.77,8.77,0,0,0,2.45-5.51,6.83,6.83,0,0,0-2.86-5.33,6.17,6.17,0,0,0-6.14-1Z"/><path class="cls-6" d="M172,53.75a8,8,0,0,0-5.38,3.71,15.06,15.06,0,0,0-1.57,3,14.14,14.14,0,0,0-.92,3.21,10.35,10.35,0,0,0-.09,3.28,6.05,6.05,0,0,0,1.21,2.87,5.34,5.34,0,0,0,2.54,1.69,6.93,6.93,0,0,0,3.11.17,8.64,8.64,0,0,0,3-1.08,8.35,8.35,0,0,0,2.31-2.09,11.54,11.54,0,0,0,1.57-2.76,17.25,17.25,0,0,0,1-3.11c.45-2.16.88-4.43.25-6.4A4.35,4.35,0,0,0,177,53.82a3.78,3.78,0,0,0-3.09-.56l-.07-.15a4,4,0,0,1,3.53,0A5.27,5.27,0,0,1,180,55.78a8.47,8.47,0,0,1,.67,3.62,23.08,23.08,0,0,1-.36,3.54,18.36,18.36,0,0,1-1,3.45,12.44,12.44,0,0,1-1.89,3.14,9.65,9.65,0,0,1-2.87,2.36A10.12,10.12,0,0,1,171,73a8.33,8.33,0,0,1-3.67-.35,6.45,6.45,0,0,1-3-2.17A7.17,7.17,0,0,1,163,67a11.39,11.39,0,0,1,.22-3.55,16.84,16.84,0,0,1,2.91-6.33,10.31,10.31,0,0,1,2.52-2.41,7.21,7.21,0,0,1,3.25-1.17Z"/><path class="cls-6" d="M188.12,50.92l.09,8.87V72a8.66,8.66,0,0,0,0,1c.06.24.07.17.09.18a1.36,1.36,0,0,0,.61,0c.67-.14,1.48-.29,2.23-.37A18.43,18.43,0,0,1,200.14,74l0,.16a33.39,33.39,0,0,0-8.67.26c-.72.12-1.36.26-2.13.42a2.75,2.75,0,0,1-1.58-.09,1.81,1.81,0,0,1-.81-.69,2,2,0,0,1-.28-.86,6.89,6.89,0,0,1,0-1.24l.07-1.11.14-2.21.5-8.86.59-8.86Z"/><path class="cls-6" d="M204.28,49.62c.13,1.4.22,2.79.33,4.19l.26,4.19a31,31,0,0,1,.17,4.19,18.21,18.21,0,0,1-.76,4.2h-.17a17.21,17.21,0,0,1-.76-4.2,31,31,0,0,1,.17-4.19l.25-4.19c.12-1.4.2-2.79.34-4.19Z"/><path class="cls-6" d="M227.58,52.64a4.33,4.33,0,0,0-2.66-1.6,5.61,5.61,0,0,0-3.09.26,9.2,9.2,0,0,0-4.45,4.28,5.45,5.45,0,0,0-.61,1.35,1.07,1.07,0,0,0,.33,1,2.49,2.49,0,0,0,1.24.48,11.17,11.17,0,0,0,1.56.14c.53,0,1.07,0,1.68.09a6.88,6.88,0,0,1,1.72.48,7.8,7.8,0,0,1,2.83,2.09,8.1,8.1,0,0,1,1.69,3.12,7.44,7.44,0,0,1,.12,3.6,8.47,8.47,0,0,1-1.51,3.26,9.27,9.27,0,0,1-2.67,2.36,8.57,8.57,0,0,1-3.39,1.1,9.4,9.4,0,0,1-3.47-.34,9.54,9.54,0,0,1-5.33-4l.13-.1a10.39,10.39,0,0,0,5.48,2.91,7.9,7.9,0,0,0,7.86-3,7.12,7.12,0,0,0,1.27-2.59,6.12,6.12,0,0,0-1.22-5.47,6.42,6.42,0,0,0-2.29-1.85,6.18,6.18,0,0,0-1.4-.45c-.46-.08-1-.1-1.56-.14a12.58,12.58,0,0,1-1.69-.21,3.46,3.46,0,0,1-1.71-.79,2,2,0,0,1-.55-.92,2.2,2.2,0,0,1,0-1,6,6,0,0,1,.77-1.59,9.81,9.81,0,0,1,5-4.33,6.12,6.12,0,0,1,3.34-.11,4.6,4.6,0,0,1,2.72,1.83Z"/><path class="cls-7" d="M131.8,355.9a107.31,107.31,0,0,1,9.91-58.16A83.86,83.86,0,0,1,133,354.61"/><path class="cls-7" d="M111.89,360c-7.8-13.67-9.14-29.53-3.83-45.18,9.65,12.7,11.43,28.55,4.93,43.87"/><path class="cls-8" d="M127.86,356.47a69.06,69.06,0,0,1-1.45-47.71,54.12,54.12,0,0,1,2.45,46.44"/><path class="cls-8" d="M115.49,355.41c-5-19.44-1-39.24,11.49-56.42,7.73,18.91,4.26,38.86-9.6,55.21"/><path class="cls-7" d="M108.22,354.22a107.39,107.39,0,0,1,9.91-58.16,83.81,83.81,0,0,1-8.67,56.87"/><path class="cls-7" d="M103.16,356C90.57,346.53,83,332.52,81.68,316c13.9,7.81,21.84,21.65,22,38.29"/><path class="cls-8" d="M106.81,354.78a69,69,0,0,1-1.45-47.71,54.16,54.16,0,0,1,2.45,46.44"/><path class="cls-8" d="M99.05,354.54c-9.64-17.61-10.61-37.79-2.77-57.51,12.15,16.42,13.7,36.62,4.3,55.87"/><g class="cls-3"><path d="M140,305.32a107,107,0,0,0-9.23,29.73,53.27,53.27,0,0,0-1.48-7.38,52.56,52.56,0,0,0-4-21.1,75.82,75.82,0,0,0-7.21,12.15,81.31,81.31,0,0,0-1.64-15.08,106.46,106.46,0,0,0-7.74,22.09c-.31-.5-.64-1-1-1.48a54.66,54.66,0,0,0-4-9.6c-.51,1.54-.94,3.09-1.34,4.65a53.49,53.49,0,0,0-7.74-14.69,71.45,71.45,0,0,0-5.25,26,43.58,43.58,0,0,0-9.35-7c1.11,13.62,6.47,25.54,15.4,34.61.61,1.31,1.26,2.61,2,3.89l1-1.09c1,.87,2,1.72,3.09,2.52l.49-1.64a49.74,49.74,0,0,0-.59-7.21c.23-.64.46-1.28.67-1.91a68.71,68.71,0,0,0,3.07,9.57l1-1.27c.1-.24.18-.49.28-.74,0,.48.08,1,.13,1.45l.59-.62a53.34,53.34,0,0,0,3.09,6.37l1.1-1.31a51.77,51.77,0,0,0,2-5.5c.16.75.34,1.5.53,2.25l1.88-1.21a61.06,61.06,0,0,0,6.85-9.83A67.48,67.48,0,0,0,126.18,364l1-1.26a57.74,57.74,0,0,0,2.37-7.28q.14,4,.57,8l1.24-1.29A83.8,83.8,0,0,0,140,305.32Z"/></g><path class="cls-1" d="M146.37,196c5.48-8.2,17-6.86,23.25-.47s7,15.94,4,24.06c-6,16.29-31.59,35-49.13,31.49C78,241.87,72.88,187.15,98.24,154"/><path class="cls-1" d="M131.05,136.6c11.91-9.26,32.83-20.08,28.62-38.67"/></svg>