<svg id="Calque_1" data-name="Calque 1" xmlns="http://www.w3.org/2000/svg" viewBox="0 0 752.87 89.63"><defs><style>.cls-1,.cls-2{fill:none;stroke:#000;stroke-miterlimit:10;}.cls-2{stroke-dasharray:3.01 3.01;}</style></defs><title>dotted</title><path class="cls-1" d="M.07,40.23,1.56,40"/><path class="cls-2" d="M4.54,39.65c61.75-7.41,87.11,13.74,91.67,23.5,8.16,17.47-3,28.54-20.29,25.46C33.43,81,40.19,17,82.78,16.57c37.89-.38,69.6,40.32,107.1,47.82,50,10,76.21-24.15,121.37-31.69,53.44-8.91,39.82,46.53,13.9,29.6-16.8-11,3-38.48,15.49-46.64,16-10.38,35.92-8.39,53.34-3.32,42.9,12.49,77.2,39.14,122.67,46.2,16.55,2.56,38.62,6.57,54.2-2,13.16-7.2,20.22-45.35,2.68-42.09-22.46,5.74,31.54,38.74,84.64,2.16,24.72-17,64.52-23.88,92-4.07"/><path class="cls-1" d="M751.38,13.48c.39.3.79.6,1.18.92"/></svg>