<svg id="Calque_1" data-name="Calque 1" xmlns="http://www.w3.org/2000/svg" width="13.18" height="16" viewBox="0 0 13.18 16"><defs><style>.cls-1{fill:#e6147c;}.cls-2{fill:#03b7d5;}.cls-3{fill:#f07f25;}</style></defs><path class="cls-1" d="M8.6,8.84C9.16,6.15,11,.78,8,0V0C5.76,2.27,6.44,6.93,8.6,8.84" transform="translate(-1.41)"/><path class="cls-2" d="M9.54,9.16c-.39-4,6.64-6.69,4.72-1.61C13,6,10.61,8.2,9.54,9.16" transform="translate(-1.41)"/><path class="cls-2" d="M7,8.84C7.09,5.5,2,4,1.41,7.89,3.19,6.74,5.36,8,6.93,9" transform="translate(-1.41)"/><path class="cls-2" d="M8,11.14c-.31.85-2,4.21-2.51,2.6" transform="translate(-1.41)"/><path class="cls-2" d="M9.13,11.31c-.41.85.88,3.25,1.52,1.79" transform="translate(-1.41)"/><path class="cls-3" d="M6.09,9.87l-.33.89c.78,0,1.56,0,2.35-.11a16.63,16.63,0,0,1,2.54-.05.49.49,0,0,0,.21,0A.25.25,0,0,0,11,10.5a1.77,1.77,0,0,0,.27-.89s0,0,0-.06a.13.13,0,0,0-.11,0l-4.56.13a1.35,1.35,0,0,0-.29,0c-.09,0-.15.09-.12.14" transform="translate(-1.41)"/><path class="cls-1" d="M8.46,11.31s-.8,4-.12,4.54C9.69,17,8.46,11.31,8.46,11.31Z" transform="translate(-1.41)"/></svg>