<svg id="Calque_1" data-name="Calque 1" xmlns="http://www.w3.org/2000/svg" width="16" height="16" viewBox="0 0 16 16"><defs><style>.cls-1{fill:#e89c14;}.cls-2{fill:#87c278;}</style></defs><ellipse class="cls-1" cx="8" cy="8" rx="1.61" ry="1.6" transform="translate(-0.48 0.51) rotate(-3.55)"/><path class="cls-2" d="M9.84,11.59a1.61,1.61,0,0,0-3.22.2,1.7,1.7,0,0,0,.13.55c.6,1.78-.3,2.69-1.64,3.66,5.36-.33,4.73-4.41,4.73-4.41v0Z" transform="translate(0 0)"/><path class="cls-2" d="M6.17,4.41a1.62,1.62,0,0,0,3.23-.2,1.71,1.71,0,0,0-.14-.55C8.67,1.88,9.56,1,10.9,0,5.55.33,6.17,4.41,6.17,4.41v0Z" transform="translate(0 0)"/><path class="cls-2" d="M11.59,6.18a1.61,1.61,0,0,0,.2,3.22,1.7,1.7,0,0,0,.55-.13c1.78-.6,2.69.29,3.66,1.63-.33-5.35-4.41-4.72-4.41-4.72h0Z" transform="translate(0 0)"/><path class="cls-2" d="M4.41,9.86a1.61,1.61,0,0,0-.2-3.22,1.7,1.7,0,0,0-.55.13C1.88,7.37,1,6.47,0,5.13c.33,5.36,4.41,4.73,4.41,4.73h0Z" transform="translate(0 0)"/><path class="cls-1" d="M10.37,3.71a1.1,1.1,0,0,0,1.7,1.4,1.63,1.63,0,0,0,.19-.34c.53-1.16,1.39-1.19,2.51-1.06-2.82-2.31-4.4,0-4.4,0l.1-.1A.94.94,0,0,0,10.37,3.71Z" transform="translate(0 0)"/><path class="cls-1" d="M12.39,10.45A1.1,1.1,0,0,0,10.88,12a1.26,1.26,0,0,0,.32.21c1.12.61,1.1,1.48.88,2.58,2.51-2.64.31-4.38.31-4.38l.09.1Z" transform="translate(0 0)"/><path class="cls-1" d="M3.8,5.73A1.09,1.09,0,0,0,5,3.91a1,1,0,0,0-.35-.16c-1.21-.4-1.33-1.26-1.31-2.39-2,3,.45,4.37.45,4.37l-.11-.08Z" transform="translate(0 0)"/><path class="cls-1" d="M5.73,12.33a1.1,1.1,0,0,0-1.82-1.22,1,1,0,0,0-.15.35c-.42,1.21-1.28,1.33-2.4,1.31,3,2,4.37-.44,4.37-.44l-.08.11A.44.44,0,0,0,5.73,12.33Z" transform="translate(0 0)"/></svg>