<?xml version="1.0" encoding="UTF-8"?><svg id="Calque_1" xmlns="http://www.w3.org/2000/svg" width="16" height="16" viewBox="0 0 16 16"><rect width="16" height="16" style="fill:#fff; opacity:0; stroke-width:0px;"/><path d="M4.73,1.84v2.86C2.07,4.7-.07,6.89,0,9.56s2.25,4.6,4.83,4.6h0c2.56,0,4.63-2.07,4.63-4.63V1.84h-4.73ZM5.2,11.14c-1.2.2-2.23-.83-2.03-2.03.12-.73.71-1.32,1.44-1.44,1.2-.2,2.23.83,2.03,2.03-.12.73-.71,1.32-1.44,1.44Z" style="fill:#00a6e8; stroke-width:0px;"/><path d="M11.38,1.84h4.62v12.32h0c-2.55,0-4.62-2.07-4.62-4.62V1.84h0Z" style="fill:#ffb226; stroke-width:0px;"/></svg>