<svg id="Calque_1" data-name="Calque 1" xmlns="http://www.w3.org/2000/svg" viewBox="0 0 3000 795.58"><defs><style>.cls-3{fill:#459945}.cls-4{fill:#71cc71}.cls-5{opacity:.33}.cls-20,.cls-23,.cls-24,.cls-6{fill:none}.cls-24,.cls-25,.cls-6{stroke:#fff}.cls-20,.cls-23,.cls-24,.cls-25,.cls-29,.cls-6{stroke-miterlimit:10}.cls-7{opacity:.51}.cls-10,.cls-11,.cls-9{fill:#fff}.cls-9{opacity:.35}.cls-10{opacity:.72}.cls-13{opacity:.15}.cls-15{fill:#fce263}.cls-16{fill:#af0c0c}.cls-17{opacity:.24}.cls-18{opacity:.3}.cls-20,.cls-23,.cls-29{stroke:#000}.cls-20{stroke-width:.31px}.cls-23{stroke-width:.15px}.cls-24,.cls-25{stroke-width:.36px}.cls-25{fill:#007a57}.cls-29{fill:#85d353;stroke-width:.32px}.cls-31{opacity:.17}</style></defs><path fill="#006d6d" d="M0 0h2999.48v521H0z"/><path d="M2055.5 444.9S1460 410 1307.5 388 974 365 854.85 365 0 474.19 0 474.19V581h2734z" fill="#007a7a"/><path class="cls-3" d="M1157.48 481.22S1631 500 1792.66 488s592-56.6 747.71-57c179.26-.47 459.11 48 459.11 48v164H913.9z"/><path class="cls-4" d="M2999.48 642.15V638s-963.12-77.4-1134.18-84.14-792-90.67-1045.13-101.16S0 484.15 0 484.15V643h1.36c3.21 8.85 28.42 75 78.64 116 53.9 44 243.9-57.62 304.83-32.61S507.36 801.51 580 795s146.19-39.19 179-43 52.32 11.53 80.44 17.6S976.77 735 1033 731c56-4 136.23 44.67 204.5 44.67s159-26.86 210.5-30.67 115.18 17.46 158 14 144-29 185-28c38 .93 226.39 44.67 286.52 38.6s120-29.79 163.48-33.6 96 27.53 163.86 27.53 147.17-20.06 182.51-23.88 163.63 45.59 206.11 23.92 133.88-20.81 164.34 0S3000 759 3000 759V642.15z"/><g class="cls-5"><path class="cls-6" d="M1908.36 324.31l5.1 14.67M1915.96 324.86l-11.08 13.02M1910.85 323.08l-.43 14.8M1905.53 330.48l9.88 1.1"/></g><g class="cls-7"><path class="cls-6" d="M1845.02 151.93l10.06 22.9M1860 152.78l-21.83 20.34M1849.94 150l-.86 23.12M1839.45 161.56l19.48 1.71"/></g><g class="cls-7"><path class="cls-6" d="M87.02 345.93l10.06 22.9M102 346.78l-21.83 20.34M91.94 344l-.86 23.12M81.45 355.56l19.48 1.71"/></g><g class="cls-7"><path class="cls-6" d="M1223.02 151.93l10.06 22.9M1238 152.78l-21.83 20.34M1227.94 150l-.86 23.12M1217.45 161.56l19.48 1.71"/></g><g class="cls-7"><path class="cls-6" d="M213.02 130.93l10.06 22.9M228 131.78l-21.83 20.34M217.94 129l-.86 23.12M207.45 140.56l19.48 1.71"/></g><g class="cls-7"><path class="cls-6" d="M2730.02 189.93l10.06 22.9M2745 190.78l-21.83 20.34M2734.94 188l-.86 23.12M2724.45 199.56l19.48 1.71"/></g><g class="cls-7"><path class="cls-6" d="M1395.96 324.08l14.38 32.75M1417.38 325.31l-31.21 29.07M1403 321.33l-1.22 33.05M1388 337.85l27.85 2.45"/></g><g class="cls-7"><path class="cls-6" d="M972.96 114.08l14.38 32.75M994.38 115.31l-31.21 29.07M980 111.33l-1.22 33.05M965 127.85l27.85 2.45"/></g><g opacity=".32"><path class="cls-6" d="M2334.75 217.37l-5.85-13.09M2326.04 216.88l12.69-11.62M2331.89 218.47l.5-13.21M2337.99 211.86l-11.33-.97"/></g><g class="cls-7"><path class="cls-6" d="M2085.47 205.26l1.47 11.57M2082.17 214.81l8.63-9.55M2090.8 210.95l-8.63-.91"/></g><path class="cls-9" d="M1263.27 58.8l-5.33 15.19-20.25 1.34 17.32 6.39-4.26 18.39 12.52-16.26L1275 96.38l-4-17.06 15.19-7.99-18.12-.27-4.8-12.26zM333.27 257.48l-5.33 15.19-20.25 1.33 17.32 6.39-4.26 18.39 12.52-16.26L345 295.05 341 278l15.19-8-18.12-.27-4.8-12.25z"/><path class="cls-10" d="M2177.95 63.06l3.96 12.06 15.03 1.06-12.85 5.07 3.16 14.59-9.3-12.9-8.7 9.94 2.97-13.53-11.28-6.35 13.45-.21 3.56-9.73zM2860.95 288.06l3.96 12.06 15.03 1.05-12.85 5.08 3.16 14.59-9.3-12.9-8.7 9.94 2.97-13.53-11.28-6.35 13.45-.21 3.56-9.73zM823.96 277.06l3.95 12.06 15.03 1.05-12.85 5.08 3.16 14.59-9.29-12.9-8.71 9.94 2.97-13.53-11.28-6.35 13.45-.21 3.57-9.73z"/><path class="cls-11" d="M1695.82 150a25.13 25.13 0 00-10.82 2.44 26 26 0 10-49.72-2.23 32.25 32.25 0 00-3.56-.21c-13.92 0-25.21 9.2-25.21 20.55s11.29 20.55 25.21 20.55a28.45 28.45 0 0017.15-5.5 24.1 24.1 0 0032.14 10 25.2 25.2 0 1014.81-45.6z"/><path d="M1695.82 158.72a25.13 25.13 0 00-10.82 2.44 26 26 0 10-49.72-2.23 30 30 0 00-3.56-.21c-13.92 0-25.21 9.2-25.21 20.55s11.29 20.54 25.21 20.54a28.45 28.45 0 0017.15-5.5 24.1 24.1 0 0032.14 10 25.2 25.2 0 1014.81-45.59z" opacity=".2"/><path class="cls-11" d="M2103.59 282.51a12.59 12.59 0 015.09 2.26 13.07 13.07 0 1124.71 3.77 15.38 15.38 0 011.77.25c6.86 1.36 11.52 7 10.41 12.54s-7.56 9-14.41 7.61a14.25 14.25 0 01-7.91-4.38 12.14 12.14 0 01-16.81 1.76 12.62 12.62 0 11-2.85-23.81z"/><path class="cls-13" d="M2102.74 286.81a12.65 12.65 0 015.09 2.26 12.79 12.79 0 01.11-4.44 13.07 13.07 0 1124.6 8.21q.87.07 1.77.24c6.86 1.37 11.52 7 10.41 12.55s-7.56 9-14.42 7.61a14.38 14.38 0 01-7.91-4.38 12.13 12.13 0 01-16.8 1.76 12.62 12.62 0 11-2.85-23.81z"/><path class="cls-9" d="M1628 78.34l2.89 8.82 11 .77-9.4 3.72 2.31 10.67-6.8-9.44-6.37 7.28 2.17-9.91-8.25-4.64 9.84-.15 2.61-7.12zM2562 86.73l2.89 8.82 11 .77-9.4 3.71 2.31 10.68-6.8-9.44-6.37 7.28 2.17-9.91-8.25-4.64 9.84-.16 2.61-7.11z"/><g opacity=".76"><circle class="cls-15" cx="2149.38" cy="172.43" r="43.96"/><path class="cls-16" d="M2149.38 128.47s-27.07 44.43 0 87.92c0 0-29.57-14.26-29.57-43.49 0-30.35 29.57-44.43 29.57-44.43zM2149.38 128.47s27.06 44.43 0 87.92c0 0 29.56-14.26 29.56-43.49 0-30.35-29.56-44.43-29.56-44.43z"/><path class="cls-17" d="M2149.38 128.47s17 21.33 17 44-17 44-17 44 9.38-21.58 9.38-44c0-19.76-9.38-44-9.38-44z"/><path class="cls-17" d="M2149.38 128.47s32.46 10 32.46 44c0 40.19-32.46 44-32.46 44s27.4-22.44 27.4-44.82c0-19.8-27.4-43.18-27.4-43.18zM2148.84 128.6s-13.07 19.9-13.07 43 13.61 44.82 13.61 44.82-7.5-22-7.5-44.82c0-20.13 6.96-43 6.96-43z"/><path class="cls-17" d="M2149.38 128.47s-32.7 14.58-32.7 43.1c0 34.49 32.7 44.82 32.7 44.82s-26.58-22-26.58-44.82c0-20.1 26.58-43.1 26.58-43.1z"/><path class="cls-18" d="M2149.38 128.47s-44 0-44 43.1c0 44.82 44 44.82 44 44.82s-29.23-13.16-29.57-43.49c-.37-32.54 29.57-44.43 29.57-44.43z"/><path d="M2140.64 264.28l-33-77.93s7.85 4.71 15.2 2.36c7.65 6 15-.35 15-.35s6 10 22 .37c10.26 3.63 16.84-2.38 16.84-2.38s4.73 5.61 14.36 0l-25.47 77.93" stroke-width=".63" stroke="#000" stroke-miterlimit="10" fill="none"/><rect class="cls-16" x="2140.64" y="264.28" width="24.96" height="20.18" rx=".63" ry=".63"/><path class="cls-20" d="M2122.87 188.71l23.4 75.57M2137.9 188.36l11.48 75.92M2159.88 188.73l-4.69 75.55M2176.72 186.35l-16.84 77.93"/><path class="cls-17" d="M2144.93 264.28h-3.35a.63.63 0 00-.62.63v18.93a.62.62 0 00.62.62h23.71c-10.48-3.36-16.8-12.58-20.36-20.18z"/></g><g opacity=".43"><circle class="cls-15" cx="1756.87" cy="252.67" r="21.63"/><path class="cls-16" d="M1756.87 231s-13.32 21.87 0 43.27c0 0-14.56-7-14.56-21.4 0-14.87 14.56-21.87 14.56-21.87zM1756.87 231s13.32 21.87 0 43.27c0 0 14.55-7 14.55-21.4 0-14.87-14.55-21.87-14.55-21.87z"/><path class="cls-17" d="M1756.87 231s8.39 10.5 8.39 21.64-8.39 21.63-8.39 21.63 4.62-10.62 4.62-21.63c0-9.64-4.62-21.64-4.62-21.64z"/><path class="cls-17" d="M1756.87 231s16 4.95 16 21.64c0 19.78-16 21.63-16 21.63s13.48-11 13.48-22.05c0-9.68-13.48-21.22-13.48-21.22zM1756.6 231.1s-6.43 9.79-6.43 21.15 6.7 22.05 6.7 22.05a77.93 77.93 0 01-3.69-22.05c0-9.9 3.42-21.15 3.42-21.15z"/><path class="cls-17" d="M1756.87 231s-16.1 7.18-16.1 21.22c0 17 16.1 22.05 16.1 22.05s-13.08-10.82-13.08-22.05c0-9.87 13.08-21.22 13.08-21.22z"/><path class="cls-18" d="M1756.87 231s-21.65 0-21.64 21.22c0 22.05 21.64 22.05 21.64 22.05s-14.39-6.47-14.56-21.4c-.18-15.98 14.56-21.87 14.56-21.87z"/><path d="M1752.57 297.88l-16.23-38.36s3.87 2.32 7.48 1.16c3.77 2.95 7.4-.17 7.4-.17s3 4.92 10.82.18a8.38 8.38 0 008.29-1.17s2.32 2.76 7.06 0l-12.54 38.36" stroke-width=".31" stroke="#000" stroke-miterlimit="10" fill="none"/><rect class="cls-16" x="1752.57" y="297.88" width="12.29" height="9.93" rx=".31" ry=".31"/><path class="cls-23" d="M1743.82 260.68l11.52 37.2M1751.22 260.51l5.65 37.37M1762.04 260.69l-2.31 37.19M1770.33 259.52l-8.29 38.36"/><path class="cls-17" d="M1754.68 297.88H1753a.3.3 0 00-.31.3v9.32a.31.31 0 00.31.31h11.67c-5.13-1.66-8.24-6.2-9.99-9.93z"/></g><path class="cls-24" d="M2017.15 90.33v20.83"/><path class="cls-25" d="M2009.95 92.75l12.09 12.09M2026.86 92.75l-16.91 12.09"/><path class="cls-24" d="M2617.15 267.33v20.83"/><path class="cls-25" d="M2609.95 269.75l12.09 12.09M2626.86 269.75l-16.91 12.09"/><circle cx="2267.58" cy="105.71" r="56.5" fill="#dce0de"/><circle cx="2267.58" cy="105.71" r="67.71" opacity=".47" fill="#dce0de"/><circle cx="2267.58" cy="105.71" r="86.37" opacity=".11" fill="#dce0de"/><path class="cls-3" d="M1971 175.18v-.06H1968.61v.06c-34.7 1.47-55.88 34.83-55.88 55.48 0 50.78 36.12 51.46 40.55 69.52l4.43 18.06h24.19l4.43-18.06c4.43-18.06 40.55-18.74 40.55-69.52-.02-20.66-21.19-54.01-55.88-55.48z"/><g class="cls-5"><path d="M1968.7 318.24h-9.1v-.11l-3.6-18.06c-1.25-6.27-5.71-10.49-10.87-15.37-9.92-9.39-22.27-21.08-22.27-54.18 0-11 4.69-24.38 12.23-35 8.92-12.59 20.79-19.9 33.44-20.61v-.06h2.09v.29l-1 .16v-.15h-.9c-27.79 1.45-45.53 33.75-45.53 55.35 0 33 12.3 44.62 22.18 54 5.2 4.92 9.68 9.16 11 15.52l3.6 17.94h8.73l.08-.09.22.19z"/><path d="M1968.39 318.18h-5.78v-.1l-2.29-18.08c-.79-6.28-3.6-10.5-6.85-15.39-6.24-9.39-14-21.07-14-54.14a91.73 91.73 0 017.69-35c5.61-12.58 13.08-19.89 21.06-20.61v-.06h2.29l-1.58.38-.05-.14h-.43v.05h-.11c-7.92.66-15.37 7.93-21 20.49a91.59 91.59 0 00-7.67 34.89c0 33 7.74 44.65 14 54 3.27 4.91 6.09 9.16 6.89 15.49l2.26 18h5.44v-.08l.2.11z"/><path d="M1970.35 318.1h-2.58v-.1l-1-18.06a62.39 62.39 0 00-3-15.42c-2.72-9.38-6.11-21.05-6.11-54.1a196.9 196.9 0 013.34-34.92c2.45-12.56 5.71-19.86 9.2-20.6v-.07h.91l-.54.3-.08-.13h-.2c-3.44.65-6.69 7.92-9.14 20.49a196.56 196.56 0 00-3.35 34.92c0 33 3.39 44.69 6.11 54.06a62.64 62.64 0 013 15.45l1 18h2.32v-.08h.15z"/></g><g class="cls-5"><path d="M1979.34 318.24h-9.1l-.16-.19.22-.19.08.09h8.72l3.6-17.94c1.27-6.36 5.76-10.6 11-15.52 9.88-9.35 22.18-21 22.18-54 0-21.6-17.73-53.9-45.53-55.35h-.9v.15l-1-.16v-.29h2.09v.06c12.65.71 24.53 8 33.45 20.61 7.54 10.64 12.22 24.05 12.22 35 0 33.1-12.35 44.79-22.27 54.18-5.16 4.88-9.61 9.1-10.87 15.37z"/><path d="M1976.33 318.18h-5.78l-.11-.2.21-.11v.08h5.44l2.27-18c.8-6.33 3.62-10.58 6.88-15.49 6.23-9.36 14-21 14-54a91.58 91.58 0 00-7.66-34.89c-5.61-12.56-13-19.83-21-20.49h-.1v-.05h-.45v.14l-1.58-.38h2.3v.06c8 .72 15.44 8 21.06 20.61a91.91 91.91 0 017.68 35c0 33.07-7.76 44.75-14 54.14-3.26 4.89-6.06 9.11-6.86 15.39z"/><path d="M1971.18 318.1h-2.59v-.2h.14v.08h2.27l1-18a62.17 62.17 0 013-15.45c2.72-9.37 6.1-21 6.1-54.06a196.56 196.56 0 00-3.35-34.92c-2.45-12.57-5.69-19.84-9.14-20.49h-.2l-.07.13-.54-.3h.9v.07c3.49.74 6.75 8 9.2 20.6a196.9 196.9 0 013.36 34.95c0 33.05-3.39 44.72-6.12 54.1a62.39 62.39 0 00-3 15.42z"/></g><path class="cls-4" d="M1968.93 317.64v.14h2.45l1-18.06c1-18.06 9.11-18.74 9.11-69.51 0-19.82-4.49-51.39-11.73-55.22-7.32 3.55-11.74 35.29-11.74 55.22 0 50.77 8.11 51.45 9.11 69.51l1 18.06h2.45v-.14"/><path class="cls-4" d="M1976.12 318l2.27-18.06c2.28-18.06 20.86-18.74 20.86-69.51 0-20.66-10.89-54.08-28.74-55.55 28.36 1.47 45.66 34.83 45.66 55.49 0 50.77-29.51 51.45-33.13 69.52l-3.62 18.06z"/><path d="M1962.83 318l-2.28-18.06c-2.28-18.06-20.86-18.74-20.86-69.51 0-20.66 10.89-54.08 28.75-55.55-28.36 1.47-45.67 34.83-45.67 55.49 0 50.77 29.52 51.45 33.14 69.52l3.62 18.06z" fill="#85d353"/><g class="cls-31"><path d="M1969.54 175.45l1-.23v.14l-1 .08h-1l.19-.19v.22h-.2c-.9.14-1.81.26-2.71.41s-1.78.36-2.66.59l-1.31.38c-.43.12-.87.24-1.29.4l-1.28.47-.63.23-.62.27a41 41 0 00-9.28 5.41 46.53 46.53 0 00-4.07 3.49c-.66.61-1.27 1.26-1.9 1.89s-1.2 1.33-1.8 2a64.19 64.19 0 00-6.24 8.7 70 70 0 00-8.1 19.71 50.21 50.21 0 00-1.41 10.41v2.66l.06 2.7.15 2.7c.06.89.1 1.79.21 2.68l.27 2.68c.1.88.24 1.77.36 2.65l.19 1.33.24 1.31.25 1.32c.08.43.15.87.27 1.3l.61 2.6.72 2.55.18.64.22.63.42 1.25c.27.85.62 1.66.94 2.48a52.79 52.79 0 004.89 9.33c.23.38.49.74.75 1.1l.76 1.08q.8 1.06 1.62 2.1c1.13 1.37 2.29 2.72 3.54 4 2.43 2.65 5.13 5.12 7.71 7.84a43.77 43.77 0 013.72 4.36 22.76 22.76 0 012.89 5.12 4.54 4.54 0 01.26.7l.23.71c.07.24.16.47.21.71l.16.73c.24 1 .35 1.86.5 2.78.31 1.82.58 3.63.87 5.45l.86 5.45c.28 1.82.54 3.64.81 5.46l-.52-.42c1.49.08 3 .14 4.46.24s3 .17 4.45.27l.14-.14-.12.16c-1.48.11-3 .19-4.45.28l-4.46.24h-.4l-.12-.45c-.44-1.78-.91-3.56-1.35-5.35l-1.31-5.36c-.43-1.79-.88-3.57-1.3-5.36a23.24 23.24 0 00-1.56-5 19.73 19.73 0 00-2.79-4.29 42.48 42.48 0 00-3.66-3.84c-2.61-2.46-5.43-4.87-8.1-7.51a62.14 62.14 0 01-7.41-8.65 54.31 54.31 0 01-5.55-10c-.36-.88-.75-1.76-1.05-2.67l-.48-1.35-.24-.67-.21-.68c-.27-.92-.56-1.83-.81-2.74l-.67-2.77c-.12-.46-.2-.93-.29-1.4l-.27-1.39-.27-1.4-.2-1.4c-.13-.93-.29-1.87-.39-2.8l-.27-2.82c-.11-.93-.15-1.87-.2-2.81l-.15-2.81v-2.81-2.85a51.4 51.4 0 011.74-11.38c.22-.93.52-1.83.78-2.74s.59-1.81.89-2.71.66-1.78 1-2.65l.54-1.31.28-.66.3-.64a68.88 68.88 0 015.48-9.92 62 62 0 017.07-8.84l2-2c.71-.62 1.4-1.27 2.13-1.87a48.17 48.17 0 014.55-3.37 42.25 42.25 0 0110.17-4.86 36 36 0 0111-1.67l-.18.19v-.26h.17l1 .08h1v.14z"/><path d="M1968.89 175.42l.65-.21v.1l-.61.07h-.61l.14-.14v.18h-.14a17.2 17.2 0 00-8.61 4.18 32.38 32.38 0 00-6.17 7.37 71.65 71.65 0 00-7.68 17.78 100.44 100.44 0 00-3.66 19.05c-.14 1.61-.23 3.21-.28 4.81v4.85q.09 4.91.44 9.78c.28 3.24.56 6.49 1.07 9.68a90.88 90.88 0 001.91 9.48 64.64 64.64 0 007.43 17.66c1.65 2.79 3.52 5.53 5.18 8.53a32.12 32.12 0 012.2 4.71 27.34 27.34 0 011.33 5.08c.24 1.77.35 3.38.49 5l.39 5c.26 3.31.48 6.62.71 9.93l-.4-.35 2.81.19c.93.06 1.87.12 2.8.2l.09-.14-.07.15-2.8.2-2.81.19h-.33l-.06-.37c-.61-3.26-1.22-6.52-1.79-9.79l-.85-4.9c-.28-1.62-.53-3.31-.86-4.81a26.18 26.18 0 00-1.51-4.42 32.16 32.16 0 00-2.27-4.14c-.86-1.36-1.79-2.69-2.74-4s-1.91-2.72-2.85-4.13a63.46 63.46 0 01-8.53-18.56 102.29 102.29 0 01-3.3-20l-.15-2.52-.07-1.25v-1.26l-.09-2.52V231.05c0-.84 0-1.71.06-2.57.07-1.71.22-3.41.41-5.1a90.66 90.66 0 011.75-10 93.51 93.51 0 012.82-9.74 79.66 79.66 0 014-9.34 56.3 56.3 0 015.32-8.67 40.81 40.81 0 013.34-3.87 27.44 27.44 0 013.92-3.29 20.14 20.14 0 014.53-2.36 16.6 16.6 0 012.46-.67 16.29 16.29 0 012.51-.25l-.13.14v-.21h.13l.62.06h1.1l-.47.08z"/><path d="M1970.54 175.38l.27-.18v.05h-.54l.07-.08v.12h-.07a4 4 0 00-1 .47 5.16 5.16 0 00-.82.73 9.76 9.76 0 00-1.28 1.82 23.13 23.13 0 00-1.74 4.13c-.47 1.43-.88 2.88-1.22 4.35s-.67 2.95-1 4.44c-1.11 6-1.83 12-2.35 18s-.84 12.11-.9 18.15c0 3 .06 6 .12 9.09s.16 6.08.26 9.12c0 .76 0 1.52.09 2.28l.12 2.27c.09 1.51.16 3 .27 4.53l.36 4.53c0 .37 0 .75.09 1.13l.13 1.12.25 2.25c.13 1.51.36 3 .56 4.48s.47 3 .72 4.45l.19 1.11.22 1.1.45 2.21.52 2.2.25 1.1.28 1.1c.73 2.94 1.57 5.91 2.18 9a53.92 53.92 0 011 9.38c.08 6.13.05 12.26 0 18.4l-.21-.2c.82.06 1.63.12 2.45.2v-.15.15c-.82.07-1.63.14-2.45.19h-.18v-.21l-.29-2.28-.28-2.29c-.18-1.52-.37-3-.54-4.57-.34-3-.66-6.1-1-9.13a56.65 56.65 0 00-1.66-8.78c-.76-2.87-1.79-5.74-2.69-8.7l-.34-1.11-.33-1.12c-.21-.75-.43-1.49-.63-2.25l-.57-2.27-.28-1.13-.25-1.15c-.33-1.52-.66-3.05-.9-4.58s-.54-3.07-.72-4.61l-.3-2.31-.15-1.16c0-.38-.08-.77-.12-1.15l-.44-4.63c-.12-1.54-.2-3.08-.3-4.62s-.21-3.09-.23-4.63c-.08-3.08-.22-6.16-.2-9.24V232c0-1.53 0-3.1.09-4.65q.16-4.65.6-9.27c.28-3.08.65-6.15 1.09-9.2a137.86 137.86 0 013.76-18.17 61.58 61.58 0 013.18-8.76 25.45 25.45 0 012.37-4.06 9.48 9.48 0 011.63-1.72 5 5 0 011-.65 3.49 3.49 0 011.14-.34l-.07.07v-.14h.73l-.11.05z"/><path d="M1969.4 175.45l-1.05-.09v-.14h1l1-.08h.18v.26l-.18-.19a36.11 36.11 0 0111 1.67 42.18 42.18 0 0110.16 4.86 49.64 49.64 0 014.56 3.37c.72.6 1.41 1.25 2.12 1.87l2 2a62.07 62.07 0 017.08 8.84 70.87 70.87 0 015.48 9.92l.29.64.28.66.55 1.31c.36.87.68 1.76 1 2.65s.61 1.8.89 2.71.55 1.81.78 2.74a51.4 51.4 0 011.73 11.38v5.66l-.15 2.81c0 .94-.09 1.88-.2 2.81l-.27 2.82c-.1.93-.26 1.87-.39 2.8l-.2 1.4-.27 1.4-.27 1.39c-.09.47-.17.94-.29 1.4l-.67 2.77c-.25.91-.54 1.82-.81 2.74-.07.22-.13.45-.21.68l-.24.67-.48 1.35c-.3.91-.69 1.79-1 2.67a54.85 54.85 0 01-5.54 10 62.82 62.82 0 01-7.41 8.65c-2.68 2.64-5.49 5.05-8.11 7.51a42.48 42.48 0 00-3.66 3.84 19.73 19.73 0 00-2.79 4.29 23.82 23.82 0 00-1.56 5c-.42 1.79-.86 3.57-1.3 5.36l-1.31 5.36c-.44 1.79-.9 3.57-1.35 5.35l-.11.45h-.41l-4.46-.24c-1.48-.09-3-.17-4.45-.28l-.11-.16.13.14c1.48-.1 3-.18 4.45-.27s3-.16 4.46-.24l-.52.42c.27-1.82.53-3.64.82-5.46l.85-5.45c.29-1.82.57-3.63.87-5.45.16-.92.27-1.78.5-2.78l.16-.73c0-.24.14-.47.21-.71l.23-.71a5.89 5.89 0 01.26-.7 22.76 22.76 0 012.89-5.12 43.77 43.77 0 013.72-4.36c2.58-2.72 5.28-5.19 7.72-7.84 1.24-1.3 2.4-2.65 3.53-4q.82-1 1.62-2.1l.77-1.08c.26-.36.51-.72.74-1.1a52.19 52.19 0 004.9-9.33c.32-.82.66-1.63.93-2.48l.43-1.25.21-.63.18-.64.72-2.55.62-2.6c.11-.43.18-.87.27-1.3l.24-1.32.25-1.31.18-1.33c.12-.88.26-1.77.37-2.65l.27-2.68c.1-.89.15-1.79.2-2.68l.16-2.7v-2.7c0-.9.06-1.81 0-2.66a49.54 49.54 0 00-1.41-10.41 70.25 70.25 0 00-8.09-19.71 65.14 65.14 0 00-6.25-8.7c-.6-.66-1.19-1.33-1.8-2s-1.24-1.28-1.89-1.89a46.66 46.66 0 00-4.08-3.49 41.12 41.12 0 00-9.27-5.41l-.62-.27-.64-.23-1.27-.47c-.43-.16-.86-.28-1.3-.4l-1.31-.38c-.87-.23-1.77-.38-2.66-.59s-1.8-.27-2.71-.41h-.19v-.22l.19.19h-1l-1-.08v-.14z"/><path d="M1970.05 175.42l-.67-.11-.47-.08h1.1l.61-.06h.13v.21l-.14-.14a16.55 16.55 0 012.52.25 16.16 16.16 0 012.45.67 20.42 20.42 0 014.54 2.36 27.92 27.92 0 013.91 3.29 42.42 42.42 0 013.35 3.87 57.09 57.09 0 015.32 8.67 79.6 79.6 0 013.94 9.34 93.51 93.51 0 012.82 9.74 88.37 88.37 0 011.75 10c.2 1.69.34 3.39.41 5.1 0 .86.06 1.73.06 2.57V236.13l-.08 2.52v1.26l-.07 1.25-.15 2.52a102.29 102.29 0 01-3.3 20 62.78 62.78 0 01-8.53 18.56c-.93 1.41-1.9 2.78-2.84 4.13s-1.89 2.68-2.74 4a32.23 32.23 0 00-2.28 4.14 26.18 26.18 0 00-1.51 4.42c-.33 1.5-.58 3.19-.86 4.81l-.85 4.9c-.57 3.27-1.18 6.53-1.78 9.79l-.07.37h-.33l-2.8-.19-2.81-.2-.07-.15.09.14c.94-.08 1.87-.14 2.81-.2l2.8-.19-.39.35c.22-3.31.44-6.62.7-9.93l.39-5c.15-1.66.25-3.27.49-5a27.34 27.34 0 011.33-5.08 32.12 32.12 0 012.2-4.71c1.66-3 3.53-5.74 5.18-8.53a67.84 67.84 0 004.38-8.57 65.56 65.56 0 003-9.09 88.36 88.36 0 001.91-9.48c.51-3.19.79-6.44 1.07-9.68s.38-6.51.44-9.78v-2.45-2.4c0-1.6-.14-3.2-.28-4.81a101.21 101.21 0 00-3.65-19.05 71.65 71.65 0 00-7.68-17.8 32.63 32.63 0 00-6.17-7.37 17.28 17.28 0 00-8.62-4.18h-.14v-.18l.14.14h-.61l-.61-.07v-.1z"/><path d="M1968.4 175.38l-.3-.13-.1-.05h.72v.14l-.06-.07a3.51 3.51 0 011.13.34 5 5 0 011 .65 8.83 8.83 0 011.63 1.72 24.72 24.72 0 012.37 4.06 60.38 60.38 0 013.18 8.76 139.53 139.53 0 013.77 18.17q.66 4.58 1.08 9.2t.61 9.27c.06 1.55.09 3.12.08 4.65v4.62c0 3.08-.11 6.16-.2 9.24 0 1.54-.13 3.08-.23 4.63s-.17 3.08-.3 4.62l-.44 4.63c0 .38-.07.77-.12 1.15l-.15 1.16-.29 2.31c-.19 1.54-.47 3.07-.73 4.61s-.57 3.06-.9 4.58l-.24 1.15-.29 1.13-.56 2.27c-.21.76-.42 1.5-.64 2.25l-.33 1.12-.34 1.11c-.9 3-1.93 5.83-2.69 8.7a56.65 56.65 0 00-1.66 8.78c-.32 3-.64 6.09-1 9.13-.17 1.53-.36 3-.54 4.57l-.27 2.29-.3 2.28v.21h-.18c-.81-.05-1.63-.12-2.45-.19v-.15l.05.15c.82-.08 1.64-.14 2.45-.2l-.2.2c-.11-6.14-.14-12.27-.05-18.4a53.91 53.91 0 011-9.38c.61-3.09 1.45-6.06 2.18-9l.28-1.1.26-1.1.51-2.2.45-2.21.23-1.1.19-1.11c.24-1.48.53-2.95.71-4.45s.43-3 .57-4.48l.25-2.25.12-1.12c0-.38.06-.76.09-1.13l.36-4.53c.11-1.5.18-3 .27-4.53l.12-2.27c0-.76.06-1.52.09-2.28.11-3 .24-6.07.27-9.12s.14-6.09.11-9.09c-.05-6-.38-12.11-.89-18.15s-1.24-12.08-2.36-18c-.27-1.49-.59-3-.94-4.44s-.76-2.92-1.22-4.35a23.93 23.93 0 00-1.75-4.13 9.32 9.32 0 00-1.28-1.82 4.76 4.76 0 00-.82-.73 4 4 0 00-1-.47h-.07v-.12l.07.08h-.53v-.05z"/></g><path class="cls-15" d="M1919 208.1c-2.25.63-4.9 1.33-7.14 2a10.07 10.07 0 0011.57 2.23 10.91 10.91 0 004.89 7 15.64 15.64 0 011.11-6.16c2.1.16 2.56 3 3.77 4.73s2.57 3.88 3.41 1.78c.64-1.6 1.28-3.2 4.32-6.22 1.7-.81 3.81.45 4.59 2.16s.62 3.69.44 5.56a12 12 0 017-8 9.84 9.84 0 003.1 8.41l3.18-8.92a25.58 25.58 0 004.67 8l5.17-7.61a23.63 23.63 0 005.32 7.75 37.2 37.2 0 002.94-7.77 70.67 70.67 0 007.36 7.92 26.65 26.65 0 002.52-8.56 40.76 40.76 0 007.53 7.2l2.26-8.13a16.81 16.81 0 008.44 7.31l-.93-6.63a18.28 18.28 0 008.67 6.27 10.48 10.48 0 000-7.73 12.35 12.35 0 006.36 6.48 10.1 10.1 0 00-.9-6.87 9.51 9.51 0 007.94 5.46l-4.59-5.86a5.67 5.67 0 00-1.76-1.69 5.88 5.88 0 00-3.46-.25c-28 3.58-56.3 3.23-84.5 2.89-4.87-.06-9.14-.13-13.25-2.74"/><g class="cls-13"><path d="M1919 210.66c-2.25.63-1.28 4.82-3.52 5.45 2.82 3.12 4.16.58 8-1.27a10.91 10.91 0 004.89 7 15.64 15.64 0 011.11-6.16c2.1.16 2.56 3 3.77 4.73s2.57 3.88 3.41 1.78c.64-1.6 1.28-3.2 4.32-6.22 1.7-.81 3.81.45 4.59 2.16s.62 3.69.44 5.56a12 12 0 017-8 9.86 9.86 0 003.1 8.42l3.18-8.93a25.58 25.58 0 004.67 8l5.17-7.61a23.52 23.52 0 005.32 7.75 37.2 37.2 0 002.94-7.77 70.67 70.67 0 007.36 7.92 26.65 26.65 0 002.52-8.56 41.14 41.14 0 007.53 7.21l2.2-8.12a16.71 16.71 0 008.44 7.31l-.93-6.63a18.21 18.21 0 008.67 6.27 10.48 10.48 0 000-7.73 12.35 12.35 0 006.36 6.48 10.07 10.07 0 00-.9-6.86c1.39 3.07 3.32 6.57 6.69 6.77-1.53-1.95-1.81-5.22-3.34-7.18a5.79 5.79 0 00-1.76-1.69 5.88 5.88 0 00-3.46-.25c-28 3.58-56.3 3.24-84.5 2.89-4.87-.06-9.14-.13-13.25-2.74"/></g><path class="cls-11" d="M1955.45 221.83l-.17-.16a9.92 9.92 0 01-3.19-8.27 11.86 11.86 0 00-6.67 7.77h-.31c.16-1.68.37-3.77-.42-5.49a4.21 4.21 0 00-2.3-2.13 2.64 2.64 0 00-2.05 0c-3 3-3.65 4.59-4.27 6.15-.25.62-.55.94-.93 1-.81.09-1.67-1.16-2.58-2.48l-.18-.26a11.91 11.91 0 01-1-1.8c-.66-1.37-1.27-2.68-2.57-2.85a15.5 15.5 0 00-1 6v.3l-.25-.16a11.11 11.11 0 01-4.93-6.9c-.87.45-1.61.92-2.27 1.34-2.1 1.35-3.48 2.23-5.68-.2l-.18-.19.25-.07c1-.29 1.34-1.41 1.65-2.61s.67-2.5 1.88-2.83l.08.31c-1 .28-1.33 1.41-1.65 2.6s-.61 2.33-1.63 2.76c1.92 2 3.07 1.27 5.11 0a22.59 22.59 0 012.49-1.45l.18-.1v.21a10.8 10.8 0 004.58 6.73 15.8 15.8 0 011.12-5.92v-.11h.12c1.56.12 2.27 1.61 3 3a13.23 13.23 0 00.94 1.75l.18.26c.78 1.13 1.67 2.41 2.28 2.34.25 0 .48-.29.67-.79.64-1.59 1.3-3.23 4.36-6.28a3 3 0 012.33-.06 4.54 4.54 0 012.48 2.3 8.9 8.9 0 01.56 4.26 12.26 12.26 0 016.68-6.77l.26-.1v.27a9.62 9.62 0 002.87 8.11l3.25-9.12.15.43a25.55 25.55 0 004.5 7.82l5.22-7.69.12.27a23.32 23.32 0 005.12 7.55 36.26 36.26 0 002.83-7.54l.08-.31.2.25a70.29 70.29 0 007.19 7.75 26.13 26.13 0 002.41-8.31v-.37l.24.29a41 41 0 007.32 7l2.3-8.29.19.34a16.49 16.49 0 008.1 7.14l-1-7 .38.49a18.1 18.1 0 008.45 6.17 10.3 10.3 0 00-.1-7.47l.29-.12a12.18 12.18 0 006.11 6.31 10.07 10.07 0 00-.54-5.72l-.4-.85.29-.14c.14.28.28.56.4.86 1.34 2.79 3.1 5.43 5.81 5.79a14.28 14.28 0 01-1.48-3.34 12.28 12.28 0 00-1.65-3.54 5.58 5.58 0 00-1.7-1.65l.15-.28a6 6 0 011.81 1.73 12.68 12.68 0 011.69 3.64 12.41 12.41 0 001.65 3.54l.22.28h-.36c-2.53-.15-4.27-2.1-5.61-4.45a10.41 10.41 0 010 4.41v.19l-.18-.08a12.41 12.41 0 01-5.61-4.92 10.65 10.65 0 01-.5 6.09l-.06.14-.14-.05a18.45 18.45 0 01-8.38-5.85l.95 6.3-.25-.1a16.75 16.75 0 01-8.32-7l-2.23 8-.18-.14a40.84 40.84 0 01-7.33-6.94 26.46 26.46 0 01-2.49 8.24l-.09.19-.16-.14a72.54 72.54 0 01-7.18-7.69 37.12 37.12 0 01-2.87 7.49l-.1.2-.15-.15a23.78 23.78 0 01-5.24-7.54l-5.13 7.55-.14-.16a25.76 25.76 0 01-4.54-7.67z"/><path class="cls-15" d="M1969.94 174.8a48.25 48.25 0 0117.18 3.68 40.35 40.35 0 01-17 3.85 48.18 48.18 0 01-18.84-3.85 57.8 57.8 0 0118.66-3.68zM1958.13 318.24h23.8l-.32 9.61h-23.16l-.32-9.61z"/><path class="cls-3" d="M1958.78 354.76h21.12v17a2.23 2.23 0 01-2.23 2.23H1961a2.23 2.23 0 01-2.23-2.23v-17h.01z"/><path transform="rotate(-.7 1955.844 340.997)" d="M1958.45 327.85h.32v26.91h-.32z"/><path transform="rotate(-86.31 1980.65 341.377)" d="M1967.27 341.15h26.97v.32h-26.97z"/><path d="M1965.43 327.85h.32v26.91h-.32z"/><path transform="rotate(-87.2 1974.001 341.319)" d="M1960.55 341.15h26.94v.32h-26.94z"/><path d="M1963.78 294.91c-10.25-10.25-26.53-42.3-26.53-61.34s5.48-58.46 36.12-58.53c-.79-.07-1.59-.12-2.39-.16h-2.39c-34.7 1.48-55.88 34.83-55.88 55.49 0 50.78 37.15 51.24 40.55 69.52 5.19 28 4.43 18.06 4.43 18.06l.76 9.9H1970c.63-5.54 1-25.76-6.22-32.94z" opacity=".26"/><path class="cls-31" d="M1979.21 372.35a33.19 33.19 0 01-13-17.59h-8v17a2.23 2.23 0 002.23 2.24h16.65a2.24 2.24 0 002.12-1.65z"/><g opacity=".63"><path d="M2295.81 304.64h-.57c-8.18.35-13.18 8.22-13.18 13.1 0 12 8.52 12.13 9.57 16.4l1 4.26h5.71l1-4.26c1-4.27 9.56-4.43 9.56-16.4.1-4.88-4.9-12.74-13.09-13.1z" fill="#1c604e"/><g class="cls-5"><path d="M2295.27 338.4h-2.15l-.86-4.26c-.29-1.48-1.34-2.47-2.56-3.63-2.34-2.21-5.25-5-5.25-12.78a15.23 15.23 0 012.88-8.26c2.1-3 4.91-4.7 7.89-4.86h.49v.07H2295.25c-6.56.34-10.75 8-10.75 13.06 0 7.78 2.91 10.53 5.24 12.73 1.22 1.16 2.28 2.17 2.58 3.66l.85 4.24h2.06z"/><path d="M2295.2 338.38h-1.37l-.54-4.26a8 8 0 00-1.61-3.63c-1.48-2.22-3.31-5-3.31-12.78a21.83 21.83 0 011.81-8.25c1.33-3 3.09-4.69 5-4.86h.54l-.37.09h-.13c-1.87.15-3.62 1.87-4.95 4.83a21.72 21.72 0 00-1.8 8.23c0 7.79 1.82 10.54 3.29 12.75a8.14 8.14 0 011.63 3.65l.53 4.24h1.28z"/><path d="M2295.66 338.36h-.61l-.24-4.26a14.8 14.8 0 00-.7-3.64c-.65-2.22-1.45-5-1.45-12.77a46.21 46.21 0 01.8-8.24c.57-3 1.34-4.69 2.17-4.86h.21l-.13.07c-.82.15-1.58 1.87-2.16 4.83a46.38 46.38 0 00-.79 8.24c0 7.8.8 10.55 1.44 12.76a14.33 14.33 0 01.71 3.64l.23 4.25h.55z"/></g><g class="cls-5"><path d="M2297.78 338.4h-2.15 2.06l.85-4.24c.3-1.49 1.36-2.5 2.59-3.66 2.33-2.2 5.23-4.95 5.23-12.73 0-5.1-4.19-12.72-10.74-13.06h-.47v-.07h.49c3 .16 5.79 1.89 7.89 4.86a15.25 15.25 0 012.89 8.26c0 7.81-2.92 10.57-5.26 12.78-1.21 1.16-2.26 2.15-2.56 3.63z"/><path d="M2297.07 338.38h-1.36v-.05h1.29l.54-4.24a8.13 8.13 0 011.62-3.65c1.47-2.21 3.3-5 3.3-12.75a21.55 21.55 0 00-1.81-8.23c-1.32-3-3.08-4.68-5-4.83h-.13l-.37-.09h.54c1.88.17 3.64 1.89 5 4.86a21.65 21.65 0 011.81 8.25c0 7.81-1.83 10.56-3.3 12.78a8.05 8.05 0 00-1.62 3.63z"/><path d="M2295.85 338.36h-.61.55l.23-4.25a15.25 15.25 0 01.71-3.64c.64-2.21 1.44-5 1.44-12.76a46.38 46.38 0 00-.79-8.24c-.58-3-1.34-4.68-2.15-4.83h-.05l-.13-.07h.22c.82.17 1.59 1.9 2.17 4.86a46.2 46.2 0 01.79 8.24c0 7.8-.8 10.55-1.44 12.77a14.33 14.33 0 00-.71 3.64z"/></g><path d="M2295.56 304.55a11.36 11.36 0 014.05.87 9.46 9.46 0 01-4 .91 11.38 11.38 0 01-4.45-.91 13.61 13.61 0 014.4-.87z" fill="#3a3318"/><path d="M2292.78 338.4h5.61l-.07 2.26h-5.47l-.07-2.26z"/><path d="M2292.93 347h5v4a.53.53 0 01-.53.53h-3.93a.53.53 0 01-.53-.53v-4h-.01z" fill="#203a33"/><path transform="rotate(-.7 2289.793 343.037)" d="M2292.85 340.66h.08v6.35h-.08z"/><path transform="rotate(-86.31 2297.995 343.923)" d="M2294.93 343.8h6.36v.08h-6.36z"/><path class="cls-31" d="M2297.75 351.16a7.81 7.81 0 01-3.07-4.15h-1.89v4a.53.53 0 00.53.53h3.92a.53.53 0 00.51-.38z"/></g></svg>