<svg xmlns="http://www.w3.org/2000/svg" width="58.79" height="70.26"><path d="M10.55 0v5.28H5.28V10.55H0V64.8h48.35v-5.27H5.28V15.54H15.93V5.28h32.08V64.8h5.27V0" style="fill:#fff;stroke-width:0"/><path d="M12.61 22.37h28.06v5.28H12.61zM12.61 34.27h28.06v5.28H12.61zM12.61 46.18h21.92v5.28H12.61z" style="fill:#fff;stroke-width:0"/><path d="M8.52 64.8h5.46v5.46H8.52zM19.93 64.8h5.46v5.46h-5.46zM31.05 64.8h5.46v5.46h-5.46zM42.19 64.8h5.46v5.46h-5.46zM53.33 64.8h5.46v5.46h-5.46z" style="fill:#fff;opacity:.5;stroke-width:0"/><path d="M53.33 53.95h5.46v5.46h-5.46z" style="fill:#fff;opacity:.5;stroke-width:0" transform="rotate(-90 56.055 56.675)"/><path d="M53.33 42.53h5.46v5.46h-5.46z" style="fill:#fff;opacity:.5;stroke-width:0" transform="rotate(-90 56.055 45.265)"/><path d="M53.33 31.41h5.46v5.46h-5.46z" style="fill:#fff;opacity:.5;stroke-width:0" transform="rotate(-90 56.055 34.145)"/><path d="M53.33 20.27h5.46v5.46h-5.46z" style="fill:#fff;opacity:.5;stroke-width:0" transform="rotate(-90 56.055 23.005)"/><path d="M53.33 9.14h5.46v5.46h-5.46z" style="fill:#fff;opacity:.5;stroke-width:0" transform="rotate(-90 56.055 11.865)"/></svg>