<svg id="Calque_2" data-name="Calque 2" xmlns="http://www.w3.org/2000/svg" viewBox="0 0 90.25 33.15"><title>illum</title><path d="M35.58,12.61a11.86,11.86,0,0,0-9.33-.12,8.13,8.13,0,0,0-3.92,4A7.61,7.61,0,0,0,18.85,9.6c-1.1-.75-2.34-1.07-2.67.55-.52,2.51,2.45,3.94,4.26,4.65a.52.52,0,0,0,.58-.08s0,0,0,0c.49,2.57-.44,5.3-1,7.8v0a16.28,16.28,0,0,1-3.25,5.62C14.21,31,10.26,32.61,6.46,31.46,2.37,30.24-.33,25,2.59,21.29a8,8,0,0,1,6.48-2.55c2,.19,2.86,1,2.43,2.83a6.77,6.77,0,0,1-.36,1.16l-.49,1.08Q9,26.44,8.3,23.5c.84-.08.84-1.4,0-1.32a2.11,2.11,0,0,0-.88,3.94c2.81,1.56,4.85-2,5.36-4.2,1.7-7.3-9.73-4.62-11.9-.44-3.16,6.08,2.75,12,8.8,11.65a12.36,12.36,0,0,0,8.73-4.74,18,18,0,0,0,2.87-5.3.76.76,0,0,0,.06-.18h0c.52-1.4,1-2.85,1.51-4.3,1-2.81,2.72-4.88,5.8-5.48a10,10,0,0,1,8.58,2.1c2.22,2,3.26,5.51,1.63,8.21A5.62,5.62,0,0,1,35.52,26c-2.2.54-5.64-1-4.12-3.83.4-.75-.74-1.42-1.14-.67a3.87,3.87,0,0,0,1.83,5.45,6.09,6.09,0,0,0,6.66-1.29C43.1,21.57,40.48,14.82,35.58,12.61ZM17.77,11.53c0-.39-.07-.77-.11-1.15.33.22.65.45,1,.7a6.36,6.36,0,0,1,2,2.38C19.67,13.09,18.18,12.49,17.77,11.53Z"/><path d="M51.5,25.65a6.07,6.07,0,0,0,6.65,1.29A3.87,3.87,0,0,0,60,21.49c-.4-.75-1.54-.08-1.14.67C60.37,25,56.93,26.53,54.73,26a5.62,5.62,0,0,1-3.34-2.55c-1.63-2.7-.59-6.17,1.63-8.21a10,10,0,0,1,8.58-2.1c3.08.6,4.75,2.67,5.8,5.48.54,1.45,1,2.9,1.51,4.3h0a.76.76,0,0,0,.06.18,18,18,0,0,0,2.87,5.3,12.36,12.36,0,0,0,8.73,4.74c6.05.37,12-5.57,8.8-11.65-2.17-4.18-13.6-6.86-11.9.44.51,2.2,2.55,5.76,5.36,4.2A2.11,2.11,0,0,0,82,22.18c-.84-.08-.84,1.24,0,1.32q-.69,2.94-2.35.31l-.49-1.08a6.77,6.77,0,0,1-.36-1.16c-.43-1.86.4-2.64,2.43-2.83a8,8,0,0,1,6.48,2.55c2.92,3.68.22,9-3.87,10.17C80,32.61,76,31,73.43,28.2a16.28,16.28,0,0,1-3.25-5.62v0c-.52-2.5-1.45-5.23-1-7.8,0,0,0,0,0,0a.52.52,0,0,0,.58.08c1.81-.71,4.78-2.14,4.26-4.65-.33-1.62-1.57-1.3-2.67-.55a7.61,7.61,0,0,0-3.48,6.88,8.13,8.13,0,0,0-3.92-4,11.86,11.86,0,0,0-9.33.12C49.77,14.82,47.15,21.57,51.5,25.65ZM69.63,13.46a6.36,6.36,0,0,1,2-2.38c.31-.25.63-.48,1-.7,0,.38-.07.76-.11,1.15C72.07,12.49,70.58,13.09,69.63,13.46Z"/><path d="M44.82,13.34,42.3,11.52c-.68-.5-2.77-1.54-2.89-2.4C40.29,8,41.08,8,41.79,9.06c.31.3.61.6.91.91a4.89,4.89,0,0,1,1.55,3.4l1.3-.17a33.17,33.17,0,0,1-1.07-6c-.07-.82-.58-5.36.43-5.83,1.37-.65,1,4.86.94,5.18a22.85,22.85,0,0,1-1.75,5.65.66.66,0,0,0,1,.8c1.11-.94,2.09-3.76,3.34-4.19.5-.63.91-.4,1.23.7.94.48,1.11.95.5,1.42a4.33,4.33,0,0,1-1.52,1.29,9.09,9.09,0,0,1-3.26,1.23c-.84.16-.49,1.43.35,1.27,2.37-.46,8.57-3.48,6-6.85a2.78,2.78,0,0,0-3.38-.63c-2.05.92-2.61,3.44-4.25,4.83l1,.8a22,22,0,0,0,2.14-8.22c0-1.53-.31-4.2-2.2-4.59-4-.83-1.35,11.82-.9,13.51a.66.66,0,0,0,1.29-.18c0-2.55-3.56-8.06-6.62-6.45-4,2.1,4,6.67,5.21,7.57.69.5,1.35-.65.66-1.15Z"/></svg>