<svg id="Calque_1" data-name="Calque 1" xmlns="http://www.w3.org/2000/svg" viewBox="0 0 347.49 295.67"><defs><style>.cls-1,.cls-3{fill:#fff;}.cls-2{opacity:0.15;}.cls-10,.cls-11,.cls-3,.cls-8,.cls-9{stroke:#fff;}.cls-3,.cls-5{stroke-linecap:round;stroke-linejoin:round;stroke-width:3px;}.cls-4,.cls-5{fill:#140202;}.cls-5{stroke:#000;}.cls-6{opacity:0.3;}.cls-7{fill:#b21414;}.cls-10,.cls-11,.cls-8,.cls-9{fill:none;stroke-miterlimit:10;}.cls-9{stroke-dasharray:2.97 2.97;}.cls-10{stroke-dasharray:3.1 3.1;}.cls-11{stroke-dasharray:2.93 2.93;}</style></defs><title>logo-sml</title><path class="cls-1" d="M294.11,242.81a22.84,22.84,0,0,0-9.85,2.22A23.69,23.69,0,1,0,239,243a28.77,28.77,0,0,0-3.24-.19c-12.67,0-22.94,8.37-22.94,18.7s10.27,18.7,22.94,18.7a25.89,25.89,0,0,0,15.61-5,21.93,21.93,0,0,0,29.26,9.09,22.94,22.94,0,1,0,13.48-41.49Z"/><path class="cls-2" d="M287.63,249.79a22.92,22.92,0,0,0-9.86,2.22,23.69,23.69,0,1,0-45.25-2,28.77,28.77,0,0,0-3.24-.19c-12.67,0-22.94,8.37-22.94,18.7s10.27,18.7,22.94,18.7a25.92,25.92,0,0,0,15.61-5,21.94,21.94,0,0,0,29.25,9.1,22.94,22.94,0,1,0,13.49-41.5Z"/><path class="cls-3" d="M52.69,160.51l19.83-3.31s-8.26-3.3-9.91-5-9.92-109-9.92-112.35,6.61-5,6.61-5L39.48,38.24a16.5,16.5,0,0,1,6.61,1.65c2,1,5.33,43.48,7.55,76.67A27.67,27.67,0,0,0,30.39,103.5c-15.51,0-28.09,13.32-28.09,29.74S14.88,163,30.39,163c11,0,20.53-6.74,25.13-16.52.31,5.22.48,8.56.48,9.09C56,158.85,52.69,160.51,52.69,160.51Zm-11.9-8.21c-14,9.69-31.61,1.3-32.71-14.93,4.8-.23,7.14,2,9.92-5-22.09,0,10.65-43,31.39-13.22C51.16,132.29,51.79,144.71,40.79,152.3Z"/><path class="cls-3" d="M113.23,117.17a1.36,1.36,0,0,0-.23-.45Z"/><path class="cls-3" d="M113.23,117.17c.3.91.54,3.41-1.88,9.46-2.75,6.86-6.61,18.18-24.78,11.57a14.78,14.78,0,0,1-9.92-11.57l34.7-18.17S103.59,86.39,80,96.89c-14.87,6.61-13.22,26.44-8.26,36.35s24.78,21.48,43,0h6.61Zm-11-14.49L75.83,119.2S74.17,91.11,102.26,102.68Z"/><path class="cls-3" d="M96.72,77.34c-.08-.09-.16-.17-.24-.27S96.56,77.17,96.72,77.34Z"/><path class="cls-3" d="M156.93,80.25a4.69,4.69,0,0,0-1.36-2.59,4.82,4.82,0,0,0-1.32-.8,5.59,5.59,0,0,0-1.12-.32,6.12,6.12,0,0,0-2.3,0,7.66,7.66,0,0,0-3.35,1.8,17.79,17.79,0,0,0-3.71,4.89,35.65,35.65,0,0,0-2.36,5.4,13.22,13.22,0,0,1-2.44-3c-.21-.37-.44-.73-.64-1.1l-.48-1.11a10.24,10.24,0,0,1-.72-2.3c-.72-3.19.18-6.64,1.73-9.72A28.78,28.78,0,0,1,145.35,63a33.33,33.33,0,0,1,9-5.92l-.16-.47a32.24,32.24,0,0,0-9.86,5.22,30.78,30.78,0,0,0-7.68,8.34L136,71.47l-.61,1.34a17.38,17.38,0,0,0-1,2.79,24.26,24.26,0,0,0-.53,3,19.66,19.66,0,0,0,.11,3.07,13.16,13.16,0,0,0,.71,3l.53,1.46c.2.45.43.88.65,1.33a17.55,17.55,0,0,0,2.95,4.13l-6,26.82L118,78.72l-5-1.65c-10.1,5.77-15.16,1.46-16.28.27,8,9.52,9.72,4.7,14.63,6.34s19.83,46.26,19.83,51.22-5,8.26-5,8.26,9.91-5,16.52-3.31a30.86,30.86,0,0,0-5-6.61l8.12-38.93c.19,0,.39,0,.58-.09A11.88,11.88,0,0,0,152.42,91a16.42,16.42,0,0,0,3.65-5.25,12.8,12.8,0,0,0,.93-3.33A7.07,7.07,0,0,0,156.93,80.25Zm-5.61,3.43a14.71,14.71,0,0,1-2.42,3.87,7.51,7.51,0,0,1-3.34,2.38,3.43,3.43,0,0,1-1.74.07,3.74,3.74,0,0,1-.54-.17c1.08-1.61,2.2-3.17,3.38-4.62a17.37,17.37,0,0,1,3.51-3.39,3.67,3.67,0,0,1,1.53-.64,1,1,0,0,1,.27,0,3.75,3.75,0,0,1,0,.51A8.9,8.9,0,0,1,151.32,83.68Zm.86-2.41c.12,0,.26.2,0,0Z"/><path class="cls-3" d="M174.36,118.57c3.36.44,6.94,2,9.89,3.11-.74-2.23-1-4-2.58-5.21-1-.81-4.49-1.67-7.45-2.07C173.38,88.78,173,66.05,173,66.05S171,42.37,176,42.37c8.43,0,9.92,26.44,8.26,29.74l-1.65,3.3,11.57-3.3s-3.31,0-5-1.65-1.43-35.29-14.87-33c-9.91,1.66-11,13.5-9.91,29.74.24,3.54,1.49,25,2.71,48.82-2,1.68-3.8,3.8-6.39,2.84s-4-6.52-4.58-8.7l.92,8.29c.44,4-.63,6,2.93,6.31s5.24-2.1,7.36-4c1.53,30.37,2.9,62.75,2,65.44-1.65,5-4.95,6.61-4.95,6.61l23-4.19s-6.52-1.59-8.17-3.24C177.06,183.05,175.41,149.51,174.36,118.57Z"/><path class="cls-3" d="M236.77,110.37l-7.71-8.8s.16,17-7.83,22.79-16.95,2.68-24.38-7l31.39-28.72s-16.8-15.84-31.39-1.47-8.54,30.51-3,37.84,19.31,12.16,31.66,1.47a26.7,26.7,0,0,0,9.09-15.84ZM201.55,91.65c5.23-5.07,15.12-3,15.12-3l1.17.48-21.27,19S196.32,96.72,201.55,91.65Z"/><path class="cls-3" d="M261.15,50.86,240.5,59.13c5.2-3.62,9.12-7.2,8-13.82-1.31-7.67-7-11.4-13.8-6.54-6,4.29-8.24,12.15-7.83,19.19.36,6.31,3.55,9.6,7.6,13.87,11.38,12,24.9,26.44,26.56,43.19,1.54,15.56,0,36.89-9.81,50.13-8.52,11.51-34.93,17.72-38.06-2.1C210.67,147.27,237,121,246,136s-22.72,26.54-40.45,24.16c-17.22-2.31-33.85-7.76-51.05-3.81-16.87,3.88-22.86,8.34-33,22.5-2.94,4.1-15.6,23.21-23.69,23.21-11.19,0-15.83-8.45-18-10.71-1.32-.83,6.3-1.19,6.3-1.19,2.31,3.63,5.2,9.24,9.83,9.77,6,.7,10.2-6.79,13.19-10.94,7.27-10.1,14.92-21.9,25.62-28.78,12.86-8.29,32.54-9.44,47.34-7.64,11.61,1.41,23.79,4.17,35.5,4.15,7.33,0,21.52-5.69,25.05-13.29,1.88-4,1.9-6-1.9-8.15-4.41-2.51-10,.18-13.25,3.42-4.53,4.57-12.23,15.64-11.73,22.5.6,8.35,10.23,11.33,17.11,9.66,8.66-2.08,13.1-10.49,15.6-18.36,2.67-8.41,4.45-18.65,4-27.48-.16-3.18-2.4-13.61-7.88-9.73,8.09-7.41,2.43-21.94-3.82-28.87-9-9.95-20.26-11.9-21.3-27.52-.81-12.21,7.06-30,22.14-27.13,8,1.53,8.35,6.89,11,13.15C254.37,49.09,256.55,49.52,261.15,50.86Z"/><path class="cls-3" d="M299.7,80.3s-.82,24.86-12.94,24.45c-7.77.19-10.61-55.33-11.18-68.49,6.85-1.54,14.25-3,15.59-2.43,2.48,1.1,4.68,2.34,4.68,2.34L292,28.33s-9.92,2.32-16.76,3.44c-.75-5.51-2.88-22.73-.86-26.58C276.16,1.8,278,1.5,278,1.5L260.6,4.32s3.69.08,5.43,2.1c3.25,3.8,1.69,9.09,2.24,12.63.14.87.49,6,1,13.28-.12,0,1.17,0,1.06,0-5,.11-5.27,2.31-13-4L260.6,44s.83-4.68,2.76-5c.64-.1,2.29-.84,6.17-1.74,1.4,22.94,4.84,59.17,4.84,59.17S274.09,107,278.23,110s16.79-.53,22-8.19l4.13,2.34Z"/><polygon class="cls-4" points="274.64 128.35 280.22 127.23 281.37 156.64 297.41 153.18 298.04 158.93 275.39 164.07 274.64 128.35"/><polygon class="cls-4" points="291.18 148.79 296.21 148.18 294.85 130.66 289.83 131.15 291.18 148.79"/><path class="cls-4" d="M294.58,124.82A2.72,2.72,0,0,1,291.8,128a2.16,2.16,0,0,1-2-2.54,2.29,2.29,0,0,1,2.6-1.91C293.68,123.68,294.3,123.91,294.58,124.82Z"/><polygon class="cls-4" points="300.95 129.16 302.69 157.71 318.73 154.84 318.05 150.49 307.53 151.65 305.09 128.88 300.95 129.16"/><polygon class="cls-4" points="318.73 122.6 323.35 154.13 339.17 150.53 338.68 145.63 327.91 148.44 323.18 121.09 318.73 122.6"/><polygon class="cls-4" points="330.84 115.09 333.2 142.54 347.49 138.13 347.25 133 336.8 135.71 336.55 130.2 342.1 129.25 341.9 125.57 335.83 126.86 335.06 118.73 345.16 115.64 344.28 111.75 330.84 115.09"/><g class="cls-2"><path class="cls-5" d="M51.89,166.11l19.83-3.3s-8.26-3.31-9.91-5S51.89,48.8,51.89,45.5s6.61-5,6.61-5L38.68,43.85a16.44,16.44,0,0,1,6.6,1.65c2,1,5.33,43.47,7.56,76.67a27.67,27.67,0,0,0-23.25-13.06c-15.51,0-28.09,13.32-28.09,29.74s12.58,29.74,28.09,29.74c11,0,20.53-6.74,25.13-16.52.3,5.21.48,8.55.48,9.09C55.2,164.46,51.89,166.11,51.89,166.11ZM40,157.9c-14,9.69-31.61,1.31-32.71-14.92,4.8-.23,7.14,2,9.92-4.95-22.09,0,10.65-43,31.39-13.22C50.36,137.9,51,150.32,40,157.9Z"/><path class="cls-5" d="M112.43,122.78a1.22,1.22,0,0,0-.23-.45Z"/><path class="cls-5" d="M112.43,122.78c.3.91.54,3.4-1.88,9.46-2.75,6.86-6.61,18.18-24.79,11.57a14.78,14.78,0,0,1-9.91-11.57l34.7-18.17S102.79,92,79.16,102.5c-14.87,6.61-13.22,26.44-8.27,36.35s24.79,21.48,43,0h6.61Zm-11-14.49L75,124.81S73.37,96.72,101.46,108.29Z"/><path class="cls-5" d="M95.92,83c-.08-.1-.16-.17-.24-.27Z"/><path class="cls-5" d="M156.13,85.86a4.69,4.69,0,0,0-1.36-2.59,4.58,4.58,0,0,0-1.32-.8,5,5,0,0,0-1.12-.32,5.92,5.92,0,0,0-2.3,0A7.86,7.86,0,0,0,146.67,84,18.51,18.51,0,0,0,143,88.87a37.89,37.89,0,0,0-2.36,5.41,13.69,13.69,0,0,1-2.43-3c-.21-.37-.44-.73-.64-1.1l-.48-1.11a10.16,10.16,0,0,1-.72-2.31c-.73-3.18.18-6.63,1.73-9.72a28.7,28.7,0,0,1,6.49-8.37,33.33,33.33,0,0,1,9-5.92l-.17-.47a31.88,31.88,0,0,0-9.85,5.22,30.78,30.78,0,0,0-7.68,8.34l-.73,1.26-.61,1.34a17.38,17.38,0,0,0-1,2.79,24.26,24.26,0,0,0-.53,3,19.53,19.53,0,0,0,.11,3.06,12.85,12.85,0,0,0,.71,3l.53,1.46c.2.45.43.88.65,1.33a17.29,17.29,0,0,0,3,4.12L132,124,117.16,84.33l-5-1.65C102.1,88.45,97,84.14,95.92,83c8,9.51,9.72,4.7,14.63,6.33s19.82,46.27,19.82,51.22-5,8.26-5,8.26,9.91-4.95,16.52-3.3a30.86,30.86,0,0,0-5-6.61l8.12-38.94a5.77,5.77,0,0,0,.58-.08,11.93,11.93,0,0,0,5.94-3.26,16.58,16.58,0,0,0,3.65-5.25A12.77,12.77,0,0,0,156.2,88,7.35,7.35,0,0,0,156.13,85.86Zm-5.61,3.43a14.71,14.71,0,0,1-2.42,3.87,7.41,7.41,0,0,1-3.34,2.37,3.44,3.44,0,0,1-1.74.08,3.74,3.74,0,0,1-.54-.17c1.08-1.62,2.2-3.17,3.38-4.62a17.12,17.12,0,0,1,3.51-3.39,3.62,3.62,0,0,1,1.53-.64,1,1,0,0,1,.27,0,2.61,2.61,0,0,1,0,.5A8.24,8.24,0,0,1,150.52,89.29Zm.86-2.41c.12.05.26.2,0,0Z"/><path class="cls-5" d="M173.56,124.18c3.36.44,6.94,2,9.89,3.11-.74-2.23-1-4-2.58-5.21-1-.81-4.49-1.67-7.45-2.07-.84-25.62-1.26-48.35-1.26-48.35S170.24,48,175.19,48c8.43,0,9.92,26.43,8.26,29.74L181.8,81l11.57-3.3s-3.31,0-5-1.65S187,40.78,173.54,43c-9.91,1.65-11,13.49-9.91,29.74.24,3.54,1.49,25,2.71,48.82-2,1.68-3.8,3.8-6.39,2.84s-4-6.52-4.59-8.7l.93,8.29c.44,4-.63,6,2.93,6.3s5.24-2.1,7.36-4c1.53,30.37,2.9,62.75,2,65.44-1.65,5-5,6.61-5,6.61l23-4.19s-6.52-1.59-8.17-3.24C176.26,188.66,174.61,155.12,173.56,124.18Z"/><path class="cls-5" d="M236,116l-7.71-8.8s.16,16.95-7.83,22.78-17,2.68-24.39-7l31.4-28.72S210.64,78.43,196,92.8s-8.53,30.51-3,37.84,19.31,12.16,31.66,1.47a26.76,26.76,0,0,0,9.09-15.84ZM200.75,97.26c5.23-5.08,15.12-3,15.12-3l1.17.47-21.27,19S195.51,102.33,200.75,97.26Z"/><path class="cls-5" d="M260.35,56.47,239.7,64.73c5.2-3.61,9.12-7.19,8-13.82-1.3-7.66-7-11.39-13.79-6.53-6,4.29-8.24,12.14-7.83,19.18.36,6.31,3.55,9.61,7.6,13.88,11.37,12,24.9,26.44,26.56,43.18,1.54,15.56,0,36.9-9.81,50.14-8.52,11.51-34.93,17.72-38.06-2.1-2.49-15.79,23.79-42.09,32.85-27.1s-22.72,26.55-40.46,24.17c-17.21-2.31-33.85-7.76-51-3.81-16.87,3.88-22.86,8.34-33,22.5-2.94,4.1-15.6,23.21-23.69,23.21-11.19,0-15.83-8.45-18-10.71-1.31-.83,6.31-1.19,6.31-1.19,2.31,3.62,5.2,9.24,9.82,9.77,6,.7,10.2-6.79,13.2-10.95,7.27-10.09,14.92-21.89,25.62-28.77,12.86-8.29,32.54-9.44,47.34-7.64,11.61,1.41,23.79,4.17,35.5,4.15,7.33,0,21.52-5.69,25-13.29,1.88-4,1.9-6-1.9-8.15-4.41-2.51-10,.18-13.25,3.42-4.53,4.57-12.23,15.64-11.73,22.5.6,8.35,10.23,11.32,17.11,9.66,8.66-2.09,13.1-10.49,15.6-18.36,2.66-8.41,4.45-18.65,4-27.49-.16-3.17-2.4-13.61-7.88-9.72,8.09-7.41,2.42-21.94-3.82-28.87-9-10-20.26-11.9-21.3-27.53-.81-12.2,7.06-30,22.14-27.12,8,1.53,8.35,6.89,11,13.15C253.57,54.7,255.75,55.13,260.35,56.47Z"/><path class="cls-5" d="M298.9,85.91s-.82,24.85-12.94,24.44c-7.77.2-10.61-55.32-11.18-68.48,6.85-1.54,14.25-3,15.59-2.43,2.48,1.1,4.68,2.34,4.68,2.34l-3.86-7.85s-9.92,2.33-16.76,3.45c-.75-5.52-2.88-22.73-.86-26.58,1.79-3.4,3.61-3.69,3.61-3.69L259.8,9.93s3.69.08,5.43,2.1c3.25,3.8,1.69,9.09,2.24,12.63.14.87.49,6,.95,13.28-.12,0,1.17,0,1.06,0-5,.1-5.27,2.31-13-4l3.3,15.7s.83-4.68,2.75-5c.65-.09,2.3-.83,6.18-1.74,1.4,22.95,4.84,59.18,4.84,59.18s-.28,10.49,3.85,13.49,16.8-.53,22-8.19l4.13,2.33Z"/></g><g class="cls-2"><polygon class="cls-4" points="273.84 133.96 279.42 132.84 280.57 162.25 296.61 158.79 297.24 164.54 274.59 169.68 273.84 133.96"/><polygon class="cls-4" points="290.37 154.4 295.41 153.79 294.05 136.27 289.02 136.76 290.37 154.4"/><path class="cls-4" d="M293.77,130.43a2.72,2.72,0,0,1-2.77,3.14,2.16,2.16,0,0,1-2-2.54,2.28,2.28,0,0,1,2.6-1.91C292.88,129.29,293.5,129.52,293.77,130.43Z"/><polygon class="cls-4" points="300.15 134.77 301.88 163.31 317.92 160.45 317.25 156.1 306.73 157.26 304.29 134.49 300.15 134.77"/><polygon class="cls-4" points="317.92 128.21 322.55 159.74 338.37 156.13 337.87 151.23 327.11 154.05 322.38 126.7 317.92 128.21"/><polygon class="cls-4" points="330.04 120.7 332.4 148.15 346.69 143.74 346.45 138.61 336 141.31 335.75 135.81 341.3 134.86 341.1 131.18 335.03 132.47 334.26 124.34 344.35 121.25 343.48 117.35 330.04 120.7"/></g><g class="cls-6"><path d="M185.53,272.06l-.3-3.55c-1.19-13.67,7.11-22.61,13.17-29.14a46.34,46.34,0,0,0,4.31-5c.84-1.25,1.47-2.08,2-2.76a9.51,9.51,0,0,0,1.94-3.74,8,8,0,0,0-1.77-5.85,5.74,5.74,0,0,0-4.66-1.66c-2.29,0-3.92.63-5,1.75-2.18,2.32-2,6.65-1.71,8.12l-8.06,1.17c-.16-.86-1.46-8.61,3.46-13.86,1.8-1.92,5.19-4.25,11.09-4.38s9.54,2.41,11.42,4.56c3.5,4,3.89,9.63,3.06,12.16a16.21,16.21,0,0,1-3,5.72c-.48.63-1,1.36-1.76,2.45a53,53,0,0,1-5,5.92c-4.85,5.22-10.76,11.58-11.38,20.48,15.83-.76,21.35-.14,21.59-.11l-1.08,7.14s-6.22-.65-24.29.38Z"/><path d="M231.8,271.84a13.85,13.85,0,0,1-9.18-3c-5.84-4.91-5.94-14.53-6-23.83l0-2.66c-.15-12-.33-25.67,12.13-26.42a14.77,14.77,0,0,1,10.62,3.3c7,5.86,7.58,17.81,7.5,22.68,0,1.17,0,2.67.12,4.26.39,8.79,1.13,25.15-14.39,25.7Zm-2.56-48.76c-4.42.26-4.66,8.1-4.52,19.15l0,2.67c.08,7.44.17,15.88,3.51,18.68a5.36,5.36,0,0,0,3.94,1.05c6.19-.22,7.08-6.57,6.55-18.22-.07-1.69-.15-3.29-.12-4.65.1-6-1.13-14.15-4.95-17.35a5.91,5.91,0,0,0-4.44-1.33Z"/><path d="M123,272.06l-.31-3.55c-1.19-13.67,7.11-22.61,13.18-29.14a48.72,48.72,0,0,0,4.31-5c.84-1.25,1.47-2.08,2-2.76a9.38,9.38,0,0,0,1.94-3.74A7.88,7.88,0,0,0,142.3,222a5.73,5.73,0,0,0-4.65-1.66c-2.29,0-3.92.63-5,1.75-2.18,2.32-2,6.65-1.71,8.12l-8.06,1.17c-.16-.86-1.46-8.61,3.46-13.86,1.8-1.92,5.19-4.25,11.09-4.38s9.54,2.4,11.42,4.56c3.5,4,3.89,9.62,3.06,12.16a16.21,16.21,0,0,1-3,5.72c-.48.63-1,1.36-1.76,2.45a52.86,52.86,0,0,1-5,5.92c-4.86,5.22-10.76,11.58-11.39,20.48,15.83-.76,21.35-.14,21.6-.11l-1.08,7.14s-6.23-.65-24.3.38Z"/><path d="M169.25,271.84a13.83,13.83,0,0,1-9.18-3c-5.85-4.91-5.95-14.53-6-23.83l0-2.66c-.16-12-.33-25.67,12.13-26.42a14.74,14.74,0,0,1,10.61,3.3c7,5.86,7.58,17.81,7.5,22.68,0,1.17,0,2.67.12,4.26.39,8.79,1.13,25.15-14.39,25.7Zm-2.57-48.76c-4.42.26-4.66,8.1-4.52,19.15l0,2.67c.08,7.44.17,15.88,3.51,18.68a5.36,5.36,0,0,0,3.94,1.05c6.19-.22,7.08-6.57,6.56-18.22-.08-1.69-.15-3.29-.13-4.65.1-6-1.13-14.15-4.95-17.35a5.89,5.89,0,0,0-4.44-1.33Z"/></g><path class="cls-7" d="M186.2,268.4l-.3-3.49c-1.17-13.44,7-22.22,13-28.64a46.9,46.9,0,0,0,4.23-4.94c.83-1.23,1.45-2.05,1.95-2.71a9.56,9.56,0,0,0,1.91-3.68,7.81,7.81,0,0,0-1.74-5.75,5.66,5.66,0,0,0-4.59-1.63c-2.25.05-3.85.61-4.9,1.72-2.14,2.27-1.94,6.53-1.68,8l-7.92,1.16c-.16-.85-1.44-8.46,3.4-13.62,1.77-1.9,5.1-4.18,10.9-4.31s9.38,2.36,11.24,4.48c3.44,3.94,3.82,9.46,3,11.95a15.82,15.82,0,0,1-2.93,5.62c-.47.63-1,1.34-1.73,2.41a51.33,51.33,0,0,1-4.93,5.82c-4.77,5.13-10.58,11.38-11.2,20.12,15.57-.74,21-.13,21.24-.1l-1.06,7s-6.12-.63-23.89.38Z"/><path class="cls-7" d="M231.7,268.17a13.19,13.19,0,0,1-9-3.14c-5.75-5-5.84-15-5.94-24.56l0-2.74c-.15-12.4-.32-26.45,11.93-27.22a14.11,14.11,0,0,1,10.44,3.4c6.9,6,7.46,18.36,7.37,23.37,0,1.2.05,2.75.12,4.39.39,9.06,1.11,25.92-14.15,26.49Zm-2.52-50.26c-4.35.28-4.58,8.36-4.44,19.74l0,2.76c.07,7.67.16,16.36,3.44,19.25a5.16,5.16,0,0,0,3.88,1.08c6.09-.23,7-6.77,6.44-18.77-.07-1.75-.14-3.39-.12-4.8.1-6.19-1.11-14.59-4.86-17.88a5.71,5.71,0,0,0-4.37-1.38Z"/><path class="cls-7" d="M124.68,268.4l-.3-3.49c-1.17-13.44,7-22.22,13-28.64a48.4,48.4,0,0,0,4.24-4.94c.82-1.23,1.44-2.05,1.94-2.72a9.43,9.43,0,0,0,1.91-3.67,7.81,7.81,0,0,0-1.74-5.75,5.65,5.65,0,0,0-4.58-1.63c-2.25.05-3.86.61-4.9,1.72-2.15,2.27-1.94,6.53-1.68,8l-7.93,1.16c-.16-.85-1.43-8.46,3.4-13.62,1.77-1.9,5.1-4.18,10.9-4.31s9.38,2.36,11.24,4.48c3.44,3.93,3.83,9.46,3,11.95a15.66,15.66,0,0,1-2.93,5.62c-.47.62-1,1.33-1.73,2.41a50.31,50.31,0,0,1-4.93,5.82c-4.77,5.13-10.58,11.38-11.19,20.12,15.56-.74,21-.13,21.23-.1l-1.06,7s-6.12-.63-23.89.38Z"/><path class="cls-7" d="M170.18,268.17a13.16,13.16,0,0,1-9-3.14c-5.75-5-5.85-15-5.94-24.56l0-2.74c-.15-12.4-.33-26.45,11.93-27.22a14.13,14.13,0,0,1,10.44,3.4c6.89,6,7.45,18.36,7.37,23.37,0,1.2,0,2.75.11,4.39.39,9.06,1.12,25.92-14.14,26.49Zm-2.52-50.26c-4.34.28-4.58,8.36-4.44,19.74l0,2.76c.07,7.67.16,16.36,3.45,19.25a5.13,5.13,0,0,0,3.87,1.08c6.09-.23,7-6.77,6.45-18.77-.08-1.75-.15-3.39-.13-4.8.11-6.19-1.11-14.59-4.86-17.88a5.69,5.69,0,0,0-4.37-1.38Z"/><path class="cls-8" d="M189.78,227.41a13.66,13.66,0,0,1-.17-1.49"/><path class="cls-9" d="M189.67,223c.44-3.93,2.55-9.08,10.55-9.25,10-.23,11.09,9.39,10.28,11.82-1.2,3.64-1.71,3.41-4.26,7.16C202,238.88,189.93,247,189.51,261"/><path class="cls-8" d="M189.51,262.47c0,.49,0,1,.09,1.49l1.5-.08"/><path class="cls-10" d="M194.19,263.73c8.73-.41,14.09-.38,17.05-.29"/><path class="cls-8" d="M212.78,263.5c1,.06,1.5.11,1.5.11"/><path class="cls-11" d="M228.6,213.72c11.78-.74,13.66,14.85,13.52,23S245.34,263.46,232,264c-11.61.43-11.38-12.63-11.52-25.12S219.75,214.28,228.6,213.72Z"/><path class="cls-8" d="M128.26,227.41a13.66,13.66,0,0,1-.17-1.49"/><path class="cls-9" d="M128.15,223c.44-3.93,2.55-9.08,10.55-9.25,10-.23,11.09,9.39,10.28,11.82-1.2,3.64-1.71,3.41-4.25,7.16C140.52,238.88,128.42,247,128,261"/><path class="cls-8" d="M128,262.47c0,.49,0,1,.09,1.49l1.5-.08"/><path class="cls-10" d="M132.67,263.73c8.73-.41,14.09-.38,17.05-.29"/><path class="cls-8" d="M151.27,263.5c1,.06,1.49.11,1.49.11"/><path class="cls-11" d="M167.08,213.72c11.79-.74,13.66,14.85,13.53,23s3.21,26.73-10.18,27.22c-11.61.43-11.38-12.63-11.51-25.12S158.23,214.28,167.08,213.72Z"/></svg>