<svg id="Calque_1" data-name="Calque 1" xmlns="http://www.w3.org/2000/svg" width="100" height="100.01" viewBox="0 0 100 100.01"><defs><style>.cls-1{fill:#f07f25;}.cls-1,.cls-2{isolation:isolate;}.cls-2{fill:#13aa93;}</style></defs><ellipse class="cls-1" cx="49.99" cy="50" rx="10.09" ry="10.02" transform="translate(-3 3.2) rotate(-3.55)"/><path class="cls-2" d="M61.49,72.44a10.09,10.09,0,0,0-20.14,1.25,10.16,10.16,0,0,0,.83,3.41c3.73,11.14-1.86,16.82-10.24,22.9,33.47-2.07,29.55-27.56,29.55-27.56v1.23A8.42,8.42,0,0,0,61.49,72.44Z" transform="translate(0 0)"/><path class="cls-2" d="M38.59,27.56a10.09,10.09,0,0,0,20.14-1.25,9.93,9.93,0,0,0-.83-3.41C54.17,11.76,59.77,6.08,68.15,0,34.68,2.07,38.59,27.56,38.59,27.56V26.33A10.09,10.09,0,0,0,38.59,27.56Z" transform="translate(0 0)"/><path class="cls-2" d="M72.43,38.6a10.09,10.09,0,0,0,1.26,20.14,9.93,9.93,0,0,0,3.41-.83c11.14-3.73,16.82,1.87,22.9,10.25C97.92,34.69,72.43,38.6,72.43,38.6h1.24A10.26,10.26,0,0,0,72.43,38.6Z" transform="translate(0 0)"/><path class="cls-2" d="M27.57,61.63a10.09,10.09,0,0,0-1.26-20.14,9.7,9.7,0,0,0-3.41.83C11.76,46.05,6.08,40.45,0,32.07,2.08,65.54,27.57,61.63,27.57,61.63H26.33A10.26,10.26,0,0,0,27.57,61.63Z" transform="translate(0 0)"/><path class="cls-1" d="M64.84,23.2a6.85,6.85,0,0,0,10.58,8.71,6.43,6.43,0,0,0,1.17-2.08c3.32-7.26,8.73-7.48,15.71-6.62-17.58-14.48-27.46,0-27.46,0l.58-.61A6.72,6.72,0,0,0,64.84,23.2Z" transform="translate(0 0)"/><path class="cls-1" d="M77.44,65.32a6.85,6.85,0,0,0-9.43,10,6.67,6.67,0,0,0,2,1.31c7,3.81,6.87,9.23,5.52,16.13,15.67-16.54,1.92-27.39,1.92-27.39l.57.62A6.64,6.64,0,0,0,77.44,65.32Z" transform="translate(0 0)"/><path class="cls-1" d="M23.75,35.83a6.85,6.85,0,0,0,7.58-11.42,6.94,6.94,0,0,0-2.19-.95C21.58,20.91,20.8,15.55,21,8.52c-12.61,19,2.8,27.31,2.8,27.31l-.67-.51A6.94,6.94,0,0,0,23.75,35.83Z" transform="translate(0 0)"/><path class="cls-1" d="M35.82,77.09a6.85,6.85,0,0,0-11.39-7.63,6.75,6.75,0,0,0-1,2.19c-2.58,7.55-7.94,8.3-15,8.13,18.92,12.68,27.32-2.69,27.32-2.69l-.51.67A6.94,6.94,0,0,0,35.82,77.09Z" transform="translate(0 0)"/></svg>