<svg id="Calque_1" data-name="Calque 1" xmlns="http://www.w3.org/2000/svg" width="397.85" height="90.38" viewBox="0 0 397.85 90.38"><defs><style>.cls-1,.cls-5{fill:#f07f25;}.cls-1,.cls-2,.cls-4{isolation:isolate;}.cls-2{fill:#13aa93;}.cls-3{fill:#fff;}</style></defs><ellipse class="cls-1" cx="45.18" cy="45.19" rx="9.12" ry="9.06" transform="translate(-2.71 2.89) rotate(-3.55)"/><path class="cls-2" d="M55.57,65.47a9.12,9.12,0,1,0-17.45,4.21c3.37,10.07-1.69,15.2-9.26,20.7C59.11,88.5,55.57,65.47,55.57,65.47v1.11A8.22,8.22,0,0,0,55.57,65.47Z"/><path class="cls-2" d="M34.87,24.91a9.12,9.12,0,0,0,18.2-1.13,8.76,8.76,0,0,0-.75-3.08C49,10.63,54,5.5,61.58,0,31.34,1.88,34.87,24.91,34.87,24.91V23.79A8.36,8.36,0,0,0,34.87,24.91Z"/><path class="cls-2" d="M65.46,34.89a9.12,9.12,0,0,0,1.13,18.2,9,9,0,0,0,3.08-.75C79.74,49,84.87,54,90.37,61.6,88.49,31.35,65.46,34.89,65.46,34.89h1.12A8.37,8.37,0,0,0,65.46,34.89Z"/><path class="cls-2" d="M24.91,55.7a9.12,9.12,0,0,0-1.13-18.2,9,9,0,0,0-3.08.75C10.63,41.62,5.5,36.56,0,29,1.88,59.23,24.91,55.7,24.91,55.7H23.79A10.46,10.46,0,0,0,24.91,55.7Z"/><path class="cls-1" d="M58.6,21a6.19,6.19,0,0,0,9.56,7.87A5.87,5.87,0,0,0,69.22,27c3-6.56,7.88-6.76,14.19-6C67.52,7.89,58.6,21,58.6,21l.52-.56A6.89,6.89,0,0,0,58.6,21Z"/><path class="cls-1" d="M70,59a6.2,6.2,0,1,0-6.72,10.18c6.34,3.44,6.2,8.34,5,14.57C82.41,68.84,70,59,70,59l.52.56A6.77,6.77,0,0,0,70,59Z"/><path class="cls-1" d="M21.46,32.38a6.19,6.19,0,0,0,6.85-10.32,6.1,6.1,0,0,0-2-.85C19.5,18.9,18.8,14.06,18.93,7.7,7.54,24.85,21.46,32.38,21.46,32.38l-.6-.46A5.3,5.3,0,0,0,21.46,32.38Z"/><path class="cls-1" d="M32.37,69.67a6.19,6.19,0,1,0-11.16-4.92C18.88,71.58,14,72.26,7.68,72.1c17.1,11.46,24.69-2.43,24.69-2.43l-.46.61A5.72,5.72,0,0,0,32.37,69.67Z"/><path class="cls-3" d="M135.11,25.46A13.15,13.15,0,0,1,129.9,31a15.48,15.48,0,0,1-8,2H107.34v-.88c0-.48.29-.74.89-.8l2.87-.09V3.34l-2.87-.08c-.6-.06-.89-.33-.89-.8V1.62H122a15.39,15.39,0,0,1,8,2,13.32,13.32,0,0,1,5.21,5.56,17.62,17.62,0,0,1,1.81,8.12A17.74,17.74,0,0,1,135.11,25.46Zm-2-15.41a11.22,11.22,0,0,0-4.34-4.87A12.81,12.81,0,0,0,122,3.43h-8.59V31.15H122a12.94,12.94,0,0,0,6.85-1.74,11.06,11.06,0,0,0,4.31-4.9,16.84,16.84,0,0,0,1.46-7.22A16.69,16.69,0,0,0,133.09,10.05Z"/><path class="cls-3" d="M156.78,13.26a10.36,10.36,0,0,1,2.33,7c0,.56-.21.84-.62.84h-15.9q0,4.92,2,7.71a7.06,7.06,0,0,0,6.11,2.79,11,11,0,0,0,3.43-.58A7.87,7.87,0,0,0,157,29.56a1,1,0,0,1,.71-.35.46.46,0,0,1,.44.22l.58.71a7.78,7.78,0,0,1-3.52,2.25,13.57,13.57,0,0,1-4.63.85A9,9,0,0,1,143.05,30a13.26,13.26,0,0,1-2.59-8.48,12.58,12.58,0,0,1,1.22-5.62,9.28,9.28,0,0,1,3.48-3.9,9.73,9.73,0,0,1,5.27-1.42A8,8,0,0,1,156.78,13.26Zm-11.69.91a9,9,0,0,0-2.41,5.56H157.2a8,8,0,0,0-1.83-5.52,6.26,6.26,0,0,0-4.9-2.05A7.28,7.28,0,0,0,145.09,14.17Z"/><path class="cls-3" d="M185.33,11.76c0,.47-.3.74-.89.8l-1.55,0L174.34,33h-1.86L163.89,12.6l-1.46,0c-.56,0-.84-.3-.84-.8v-.84h7.7v.84c0,.47-.29.74-.88.8l-2.3.08,6.77,16.21a8.88,8.88,0,0,1,.53,1.91c.3-1.07.49-1.7.58-1.91l6.77-16.21-2.3-.08c-.59-.06-.88-.33-.88-.8v-.84h7.75Z"/><path class="cls-3" d="M188.51,32.09c0-.48.3-.74.89-.8l2.79-.09V13.26L189.05,13a1,1,0,0,1-.49-.15.47.47,0,0,1-.13-.38v-.88h3.76V8.84a8.31,8.31,0,0,1,1.73-5.52,6.17,6.17,0,0,1,5-2.06,7.79,7.79,0,0,1,2.61.45l0,1c0,.12-.07.21-.22.27a.78.78,0,0,1-.45,0l-1.63-.13q-5,0-5,6v2.71h7.13v1.59h-7.09v18l2.84.09c.59.06.88.32.88.8V33h-9.48Z"/><path class="cls-3" d="M221.39,13.26a10.36,10.36,0,0,1,2.33,7c0,.56-.21.84-.62.84H207.2q0,4.92,2,7.71a7.06,7.06,0,0,0,6.11,2.79,11,11,0,0,0,3.43-.58,7.87,7.87,0,0,0,2.81-1.46,1,1,0,0,1,.71-.35.45.45,0,0,1,.44.22l.58.71a7.78,7.78,0,0,1-3.52,2.25,13.57,13.57,0,0,1-4.63.85,9,9,0,0,1-7.5-3.26,13.2,13.2,0,0,1-2.6-8.48,12.58,12.58,0,0,1,1.22-5.62,9.28,9.28,0,0,1,3.48-3.9A9.73,9.73,0,0,1,215,10.56,8,8,0,0,1,221.39,13.26Zm-11.69.91a9.08,9.08,0,0,0-2.41,5.56h14.52A8,8,0,0,0,220,14.21a6.26,6.26,0,0,0-4.9-2.05A7.3,7.3,0,0,0,209.7,14.17Z"/><path class="cls-3" d="M240.39,31.47a8.33,8.33,0,0,1-5.56,1.85,18.72,18.72,0,0,1-6.51-1.23V26.73h1.07c.62,0,.94.35,1,1.06l.27,3.28a11.38,11.38,0,0,0,4.29.71A6.22,6.22,0,0,0,239,30.45a4.44,4.44,0,0,0,1.61-3.59,3.09,3.09,0,0,0-1.48-2.77,19.2,19.2,0,0,0-4.67-1.88,12.61,12.61,0,0,1-4.56-2.1,4.34,4.34,0,0,1-1.56-3.57,5.14,5.14,0,0,1,1-3.12A6.43,6.43,0,0,1,232,11.34a8.82,8.82,0,0,1,3.61-.73,18.08,18.08,0,0,1,5.84,1.15V17h-1.06c-.59,0-.91-.36-1-1.06l-.27-3.19a10.84,10.84,0,0,0-3.5-.58,6.22,6.22,0,0,0-3.74,1.15,3.61,3.61,0,0,0-1.57,3.06,2.78,2.78,0,0,0,.75,2,5.7,5.7,0,0,0,2,1.31,33.08,33.08,0,0,0,3.39,1.13A12.89,12.89,0,0,1,241,23a4.3,4.3,0,0,1,1.61,3.52A6.2,6.2,0,0,1,240.39,31.47Z"/><path class="cls-3" d="M250,32a5.34,5.34,0,0,1-1.2-3.74V13.22h-3.14a.66.66,0,0,1-.42-.13.48.48,0,0,1-.16-.4v-.8l3.77-.26.53-7.89a.56.56,0,0,1,.15-.35.49.49,0,0,1,.38-.18h1v8.42h7v1.59h-7V28.14a3.64,3.64,0,0,0,.82,2.55,2.87,2.87,0,0,0,2.24.91,5.3,5.3,0,0,0,3-1.24,1,1,0,0,1,.39-.13.55.55,0,0,1,.49.26l.49.8a5.92,5.92,0,0,1-2.19,1.48,6.91,6.91,0,0,1-2.64.55A4.57,4.57,0,0,1,250,32Z"/><g class="cls-4"><path class="cls-5" d="M138.09,89.12H107.15V85.63a1.73,1.73,0,0,1,1.47-1.83l.36-.06.88-.17,1.78-.3v-31L109.86,52l-.5-.12a1.36,1.36,0,0,0-.38-.06l-.36-.06a1.73,1.73,0,0,1-1.47-1.83V46.43H124v3.48a1.73,1.73,0,0,1-1.48,1.83l-.35.06-.89.18-1.77.29V82.56h13.76c.11-1.57.19-2.42.23-2.54a1.32,1.32,0,0,1,1.36-1.12h3.19Z"/><path class="cls-5" d="M155.57,51.8a1.43,1.43,0,0,0-.39.06l-.5.12-1.71.29v31l1.71.3.5.11a1.43,1.43,0,0,0,.39.06l.35.06a1.73,1.73,0,0,1,1.48,1.83v3.49H140.51V85.63A1.73,1.73,0,0,1,142,83.8l.36-.06.88-.17,1.78-.3v-31L143.22,52l-.49-.12a1.48,1.48,0,0,0-.39-.06l-.36-.06a1.73,1.73,0,0,1-1.47-1.83V46.43H157.4v3.48a1.73,1.73,0,0,1-1.48,1.83Z"/><path class="cls-5" d="M190.7,89.12H159.76V85.63a1.73,1.73,0,0,1,1.47-1.83l.36-.06.88-.17,1.77-.3v-31L162.47,52l-.5-.12a1.36,1.36,0,0,0-.38-.06l-.36-.06a1.73,1.73,0,0,1-1.47-1.83V46.43h16.88v3.48a1.73,1.73,0,0,1-1.47,1.83l-.36.06-.88.18-1.77.29V82.56h13.75c.12-1.57.2-2.42.24-2.54a1.32,1.32,0,0,1,1.36-1.12h3.19Z"/><path class="cls-5" d="M224.06,89.12H193.12V85.63a1.73,1.73,0,0,1,1.47-1.83l.36-.06.88-.17,1.78-.3v-31L195.83,52l-.5-.12a1.36,1.36,0,0,0-.38-.06l-.36-.06a1.73,1.73,0,0,1-1.47-1.83V46.43H210v3.48a1.73,1.73,0,0,1-1.48,1.83l-.35.06-.89.18-1.77.29V82.56h13.76c.11-1.57.19-2.42.23-2.54a1.32,1.32,0,0,1,1.36-1.12h3.19Z"/><path class="cls-5" d="M257.89,57.65h-3.42a1.32,1.32,0,0,1-1.36-1.13c-.2-1.53-.34-2.79-.41-3.78H238.94V64.55H253.4v6.14H238.94v12H252.7c.07-1,.21-2.24.41-3.78a1.31,1.31,0,0,1,1.36-1.12h3.42V89.12H226.48V85.63A1.73,1.73,0,0,1,228,83.8l.36-.06a1.36,1.36,0,0,0,.38-.06l.5-.11,1.78-.3v-31L229.19,52l-.5-.12a1.36,1.36,0,0,0-.38-.06l-.36-.06a1.73,1.73,0,0,1-1.47-1.83V46.43h31.41Z"/></g><path class="cls-3" d="M279.23,86.52V81.88a9.44,9.44,0,0,1,.57-2.94,8.94,8.94,0,0,1,1.92-2.82l24.77-24.88,2-2c2.34-2.56,3.54-3.88,3.62-4a51.67,51.67,0,0,0,4.07-5.77,25.42,25.42,0,0,0,2.6-5.77,21.68,21.68,0,0,0,.79-6.1,14.54,14.54,0,0,0-.79-5.21,10.9,10.9,0,0,0-2.49-3.73,9.06,9.06,0,0,0-3.73-2.26,16.62,16.62,0,0,0-4.86-.79,12.91,12.91,0,0,0-8.26,2.6A13.6,13.6,0,0,0,295,25,5.75,5.75,0,0,1,293,28.06a4.84,4.84,0,0,1-3.17,1,14.43,14.43,0,0,1-1.81-.23l-7.35-1.24A29.67,29.67,0,0,1,284,17.2a24,24,0,0,1,6-7.35,23.53,23.53,0,0,1,8.36-4.52,32.88,32.88,0,0,1,10.18-1.47,30.7,30.7,0,0,1,10.4,1.7,23.58,23.58,0,0,1,7.92,4.75,20.88,20.88,0,0,1,5.2,7.35A23.47,23.47,0,0,1,334,27.15a25.76,25.76,0,0,1-1.35,8.37,39,39,0,0,1-3.51,7.35,38.76,38.76,0,0,1-5.2,6.79l-6.33,6.67L299.14,75.21q1.58-.45,5.31-1.24a42.25,42.25,0,0,1,5-.45h18.09c.22-3.17.37-4.87.45-5.09a2.49,2.49,0,0,1,2.6-2h6V86.52Z"/><path class="cls-3" d="M340.52,86.52V81.88a9.44,9.44,0,0,1,.57-2.94A8.94,8.94,0,0,1,343,76.12l24.76-24.88,2-2c2.33-2.56,3.54-3.88,3.61-4a50.54,50.54,0,0,0,4.08-5.77,25.87,25.87,0,0,0,2.6-5.77,22.05,22.05,0,0,0,.79-6.1,14.76,14.76,0,0,0-.79-5.21,10.9,10.9,0,0,0-2.49-3.73,9.13,9.13,0,0,0-3.73-2.26,16.74,16.74,0,0,0-4.87-.79,12.9,12.9,0,0,0-8.25,2.6A13.54,13.54,0,0,0,356.24,25a5.8,5.8,0,0,1-1.92,3.06,4.86,4.86,0,0,1-3.17,1,14.22,14.22,0,0,1-1.81-.23L342,27.61a29.67,29.67,0,0,1,3.28-10.41,24,24,0,0,1,6-7.35,23.49,23.49,0,0,1,8.37-4.52,32.83,32.83,0,0,1,10.18-1.47,30.74,30.74,0,0,1,10.4,1.7,23.58,23.58,0,0,1,7.92,4.75,21.14,21.14,0,0,1,5.2,7.35,23.47,23.47,0,0,1,1.92,9.49,25.5,25.5,0,0,1-1.36,8.37,38.37,38.37,0,0,1-3.5,7.35,38.76,38.76,0,0,1-5.2,6.79l-6.34,6.67L360.42,75.21q1.59-.45,5.32-1.24a42.13,42.13,0,0,1,5-.45H388.8c.23-3.17.38-4.87.46-5.09a2.48,2.48,0,0,1,2.6-2h6V86.52Z"/></svg>