<?xml version="1.0" encoding="utf-8"?>
<!-- Generator: Adobe Illustrator 26.2.1, SVG Export Plug-In . SVG Version: 6.00 Build 0)  -->
<svg version="1.1" id="Calque_1" xmlns="http://www.w3.org/2000/svg" xmlns:xlink="http://www.w3.org/1999/xlink" x="0px" y="0px"
	 viewBox="0 0 416.88 135.6" style="enable-background:new 0 0 416.88 135.6;" xml:space="preserve">
<style type="text/css">
	.st0{fill:#03B7D5;}
	.st1{fill:#EF7918;}
	.st2{fill:#E6147C;}
	.st3{fill:#F07F25;}
</style>
<g>
	<g>
		<path class="st0" d="M133.74,26.97h9.03c12.31,0,17.26,4.85,17.26,16.97c0,12.12-4.94,16.97-17.26,16.97h-9.03V26.97z
			 M142.78,57.59c9.75,0,13.65-3.9,13.65-13.65s-3.9-13.65-13.65-13.65h-5.56v27.29H142.78z"/>
		<path class="st0" d="M185.28,51.98h-18.21c0.67,3.47,3.66,6.32,7.37,6.32c2.42,0,4.47-1.19,5.8-2.9h3.95
			c-1.76,3.61-5.52,6.04-9.75,6.04c-5.94,0-10.84-5.09-10.84-10.94c0-5.94,4.9-10.84,10.84-10.84c5.94,0,10.84,4.9,10.84,10.84
			V51.98z M167.07,48.94h14.74c-0.71-3.47-3.71-6.13-7.37-6.13C170.73,42.8,167.78,45.47,167.07,48.94z"/>
		<path class="st0" d="M186.23,40h3.47l6.89,16.69L203.44,40h3.47l-8.61,20.92h-3.47L186.23,40z"/>
		<path class="st0" d="M211.9,60.92V42.9h-2.81V40h2.81v-2.85c0-5.13,0.14-11.22,7.66-10.17v2.95c-4.9-0.62-4.47,4.14-4.47,7.23V40
			h4.23v2.9h-4.23v18.02H211.9z"/>
		<path class="st0" d="M242.33,51.98h-18.21c0.67,3.47,3.66,6.32,7.37,6.32c2.42,0,4.47-1.19,5.8-2.9h3.95
			c-1.76,3.61-5.52,6.04-9.75,6.04c-5.94,0-10.84-5.09-10.84-10.94c0-5.94,4.9-10.84,10.84-10.84s10.84,4.9,10.84,10.84V51.98z
			 M224.12,48.94h14.74c-0.71-3.47-3.71-6.13-7.37-6.13C227.78,42.8,224.83,45.47,224.12,48.94z"/>
		<path class="st0" d="M258.25,45.14c-0.29-1.43-1.85-2.47-4.33-2.47c-2.52,0-4.28,1.19-4.28,2.76s1.38,2.47,4.8,3.14
			c5.37,1.09,7.51,2.95,7.51,6.42c0,3.66-2.81,6.28-8.04,6.28c-4.71,0-7.85-2.62-8.04-6.28h2.9c0.29,1.76,2.43,3.28,5.14,3.28
			c3.09,0,5.13-1.38,5.13-3.28c0-2-1.33-2.66-5.13-3.42c-4.99-1-7.23-2.81-7.23-6.13c0-3.19,2.47-5.75,7.23-5.75
			c4.14,0,6.89,2.28,7.23,5.47H258.25z"/>
		<path class="st0" d="M271.61,42.9v18.02h-3.19V42.9h-3.14V40h3.14v-8.23h3.19V40h4.71v2.9H271.61z"/>
	</g>
	<g>
		<path class="st1" d="M133.74,72.71h4.77v42.06H160v4.57h-26.25V72.71z"/>
		<path class="st1" d="M167.18,72.71h4.77v46.63h-4.77V72.71z"/>
		<path class="st1" d="M182.4,72.71h4.77v42.06h21.49v4.57H182.4V72.71z"/>
		<path class="st1" d="M215.84,72.71h4.77v42.06h21.49v4.57h-26.25V72.71z"/>
		<path class="st1" d="M249.28,72.71h27.04v4.57h-22.27v13.06h20.96v4.57h-20.96v19.85h22.27v4.57h-27.04V72.71z"/>
	</g>
</g>
<g>
	<g>
		<path class="st2" d="M60.93,74.89c4.77-22.73,21.53-62.26-5.12-74.66L55.69,0C36.85,19.22,42.68,58.73,60.93,74.89"/>
	</g>
	<g>
		<path class="st0" d="M68.93,77.65c-3.33-34.14,56.24-56.69,40-13.65C97.89,50.49,77.98,69.52,68.93,77.65"/>
	</g>
	<g>
		<path class="st0" d="M47.01,74.95C48.15,46.6,4.58,34.03,0,66.9c15.13-9.82,33.46,0.74,46.81,9.25"/>
	</g>
	<g>
		<path class="st0" d="M55.75,94.37c-2.62,7.24-17.05,35.73-21.27,22.04"/>
	</g>
	<g>
		<path class="st0" d="M65.43,95.87c-3.42,7.16,7.51,27.52,12.92,15.18"/>
	</g>
	<g>
		<path class="st3" d="M39.67,83.65c-0.94,2.51-1.88,5.02-2.81,7.53c6.63-0.14,13.28-0.43,19.91-0.88
			c7.22-0.49,14.56-1.15,21.58-0.46c0.58,0.06,1.23,0.12,1.76-0.07c0.48-0.17,0.71-0.49,0.9-0.79c1.51-2.43,2.31-4.99,2.35-7.51
			c0-0.19-0.01-0.41-0.25-0.54c-0.24-0.13-0.63-0.13-0.98-0.12c-12.88,0.39-25.76,0.78-38.64,1.17c-0.83,0.03-1.69,0.06-2.44,0.29
			s-1.32,0.75-1.07,1.18"/>
	</g>
	<path class="st2" d="M59.75,95.84c0,0-6.78,33.71-1.01,38.51C70.22,143.89,59.75,95.84,59.75,95.84z"/>
</g>
<g>
	<path class="st2" d="M297.92,106.47c0-30.57,45.85-30.57,45.85-52.35c0-10.32-5.86-18.47-17.45-18.47
		c-11.34,0-18.21,7.9-18.21,18.47h-9.68c-0.38-15.79,10.44-27.77,27.89-27.77c14.9,0,27.51,8.92,27.51,27.77
		c0,29.55-45.47,29.55-45.47,52.35v3.95h44.96v8.92h-55.4V106.47z"/>
	<path class="st2" d="M392.81,63.3c14.65,2.29,24.07,12.61,24.07,27.77c0,16.94-11.59,28.27-29.04,28.27h-23.82v-8.92h23.82
		c11.59,0,19.36-7.77,19.36-19.36c0-11.59-7.77-19.36-19.36-19.36h-10.06l20.38-34.39h-34.13V28.4h49.54L392.81,63.3z"/>
</g>
</svg>
