<svg id="Calque_1" data-name="Calque 1" xmlns="http://www.w3.org/2000/svg" viewBox="0 0 38 73"><defs><style>.cls-1{fill:#fff;}.cls-2{fill:#086491;}.cls-3{fill:#c41718;}.cls-4{fill:#f39700;}.cls-5{fill:#1d1d1b;}</style></defs><title>logo-gdglille</title><rect class="cls-1" width="38" height="73" rx="2" ry="2"/><circle class="cls-2" cx="30.27" cy="12.89" r="2.13"/><circle class="cls-3" cx="30.27" cy="19.38" r="2.13"/><circle class="cls-4" cx="30.27" cy="25.87" r="2.13"/><rect class="cls-2" x="9.68" y="10.73" width="4.2" height="26.03" rx="1.01" ry="1.01"/><rect class="cls-3" x="15.88" y="10.73" width="4.2" height="26.03" rx="1.01" ry="1.01"/><rect class="cls-4" x="22.08" y="10.73" width="4.2" height="26.03" rx="1.01" ry="1.01"/><path class="cls-5" d="M5.6,46a4.44,4.44,0,0,1,4.47-4.34,4.39,4.39,0,0,1,3.52,1.77c.19.26.06.47-.26.47H13.2a.57.57,0,0,1-.46-.21,3.65,3.65,0,0,0-2.67-1.16,3.52,3.52,0,1,0,3,5.4V46.33a.34.34,0,0,1,.38-.38h.11a.35.35,0,0,1,.39.38V49.9a.35.35,0,0,1-.39.38h-.11a.34.34,0,0,1-.38-.38v-.66A4.48,4.48,0,0,1,5.6,46Z"/><path class="cls-5" d="M16.13,50.28a.34.34,0,0,1-.38-.38V42.1a.34.34,0,0,1,.38-.38H18c3.11,0,4.36,1.22,4.36,4.28S21.13,50.28,18,50.28ZM18,49.44c2.46,0,3.45-1,3.45-3.44s-1-3.44-3.45-3.44h-1.4v6.88Z"/><path class="cls-5" d="M23.46,46a4.44,4.44,0,0,1,4.47-4.34,4.37,4.37,0,0,1,3.51,1.77c.2.26.06.47-.25.47h-.13a.59.59,0,0,1-.47-.21,3.65,3.65,0,0,0-2.66-1.16,3.52,3.52,0,1,0,0,7,3.57,3.57,0,0,0,3-1.63V46.33a.34.34,0,0,1,.38-.38h.11a.34.34,0,0,1,.38.38V49.9a.34.34,0,0,1-.38.38h-.11a.34.34,0,0,1-.38-.38v-.66A4.48,4.48,0,0,1,23.46,46Z"/><path class="cls-5" d="M6.3,62.27a.34.34,0,0,1-.39-.38v-7.8a.34.34,0,0,1,.39-.38h.1a.34.34,0,0,1,.39.38v7.34h3.56a.34.34,0,0,1,.38.39v.07a.34.34,0,0,1-.38.38Z"/><path class="cls-5" d="M12.44,62.27a.34.34,0,0,1-.39-.38v-7.8a.34.34,0,0,1,.39-.38h.1a.34.34,0,0,1,.39.38v7.8a.34.34,0,0,1-.39.38Z"/><path class="cls-5" d="M15.23,62.27a.34.34,0,0,1-.38-.38v-7.8a.34.34,0,0,1,.38-.38h.11a.34.34,0,0,1,.38.38v7.34h3.56a.35.35,0,0,1,.39.39v.07a.35.35,0,0,1-.39.38Z"/><path class="cls-5" d="M21.37,62.27a.34.34,0,0,1-.38-.38v-7.8a.34.34,0,0,1,.38-.38h.11a.34.34,0,0,1,.38.38v7.34h3.56a.35.35,0,0,1,.39.39v.07a.35.35,0,0,1-.39.38Z"/><path class="cls-5" d="M27.51,62.27a.34.34,0,0,1-.38-.38v-7.8a.34.34,0,0,1,.38-.38h4.2a.34.34,0,0,1,.38.38v.07a.34.34,0,0,1-.38.39H28V57h3.48a.34.34,0,0,1,.38.38v.07a.35.35,0,0,1-.38.39H28v3.64h3.71a.34.34,0,0,1,.38.39v.07a.34.34,0,0,1-.38.38Z"/></svg>