<svg xmlns="http://www.w3.org/2000/svg" width="791.35" height="611.85"><path d="m633.83 136.47 40.15-40.43c1.6-1.6 2.9-3.09 3.89-4.45.99-1.37 1.7-2.66 2.12-3.89.42-1.22.64-2.5.64-3.82 0-3.3-1.06-5.91-3.18-7.85-2.12-1.93-4.97-2.9-8.55-2.9-3.21 0-6.17.97-8.91 2.9-2.73 1.93-5.66 5.21-8.77 9.83l-18.38-16.54c4.15-6.6 9.49-11.59 16.05-14.99 6.55-3.39 14.02-5.09 22.41-5.09 7.63 0 14.21 1.34 19.72 4.03 5.51 2.69 9.75 6.53 12.72 11.52 2.97 5 4.45 10.93 4.45 17.81 0 3.87-.52 7.49-1.56 10.89-1.04 3.39-2.69 6.72-4.95 9.97-2.26 3.25-5.18 6.57-8.77 9.97l-25.31 24.03-33.79-.99Zm0 15.13v-15.13l23.47-8.06h53.02v23.19h-76.48ZM750.07 153.29c-6.88 0-13.6-1.2-20.15-3.6-6.55-2.4-11.95-5.82-16.19-10.25l17.81-17.39c1.6 2.26 4.03 4.12 7.28 5.58s6.62 2.19 10.11 2.19c3.02 0 5.61-.52 7.78-1.56s3.86-2.52 5.09-4.45c1.22-1.93 1.84-4.17 1.84-6.72s-.64-4.83-1.91-6.86c-1.27-2.03-3.13-3.63-5.58-4.81-2.45-1.18-5.47-1.77-9.05-1.77-3.02 0-5.84.47-8.48 1.41-2.64.94-4.9 2.12-6.79 3.53l3.11-18.1c2.83-1.41 5.23-2.59 7.21-3.53 1.98-.94 4-1.63 6.08-2.05 2.07-.42 4.52-.64 7.35-.64 7.82 0 14.37 1.56 19.65 4.67 5.28 3.11 9.28 7.23 12.02 12.37 2.73 5.14 4.1 10.72 4.1 16.75 0 6.88-1.67 12.98-5.02 18.31-3.35 5.33-8.08 9.47-14.21 12.44-6.13 2.97-13.48 4.45-22.05 4.45Zm-18.24-44.67-10.32-9.05 5.23-48.63h25.17l-5.23 45.95-14.84 11.73Zm-1.98-34.5-3.11-23.19h59.1v23.19h-55.99Z" style="fill:#53bced;stroke-width:0"/><path d="M49.83 48.85h506.02v514.14H49.83z" style="fill:#ffb226;stroke-width:0" transform="rotate(12.56 302.76 305.822)"/><path d="M48.07 48.85h506.02v514.14H48.07z" style="fill:#00a6e8;stroke-width:0"/><path d="M236.08 121.28v64.34c-59.76 0-108.02 49.27-106.37 109.4 1.59 57.96 50.6 103.42 108.59 103.42 57.55 0 104.2-46.65 104.2-104.2V121.28H236.09Zm10.59 209.22c-27.1 4.44-50.19-18.65-45.75-45.75 2.69-16.41 15.93-29.65 32.34-32.34 27.1-4.45 50.2 18.65 45.75 45.75-2.69 16.41-15.93 29.65-32.34 32.34Z" style="fill:#fff;stroke-width:0"/><path d="M364.5 121.28h103.94v277.17c-57.36 0-103.94-46.57-103.94-103.94V121.28ZM160.37 427.66v14.6c-13.34 0-24.15 10.81-24.15 24.15s10.81 24.15 24.15 24.15h24.15v-62.91h-24.15Zm.88 47.61c-4.96 0-8.99-4.02-8.99-8.99s4.02-8.99 8.99-8.99 8.99 4.02 8.99 8.99-4.02 8.99-8.99 8.99ZM232.82 442.13h23.27l7.8 13.83 7.57-13.83h23.5l-31.07 48.44-31.07-48.44zM213.41 468.66h24.05v-5.39c-1.54-11.85-11.67-21.01-23.94-21.01-13.34 0-24.15 10.81-24.15 24.15s10.81 24.15 24.15 24.15c5.06 0 9.76-1.56 13.64-4.22l-7.94-12.14-.2-.7a8.964 8.964 0 0 1-5.51 1.9c-4.96 0-8.99-4.02-8.99-8.99s4.02-8.99 8.99-8.99c3.86 0 7.13 2.43 8.41 5.84h-8.52v5.39Z" style="fill:#ffb226;stroke-width:0"/><path d="M444.9 468.66h24.05v-5.39c-1.54-11.85-11.67-21.01-23.94-21.01-13.34 0-24.15 10.81-24.15 24.15s10.81 24.15 24.15 24.15c5.06 0 9.76-1.56 13.64-4.22l-7.94-12.14-.2-.7a8.964 8.964 0 0 1-5.51 1.9c-4.96 0-8.99-4.02-8.99-8.99s4.02-8.99 8.99-8.99c3.86 0 7.13 2.43 8.41 5.84h-8.52v5.39ZM330.6 451.66h23.82v38.91H330.6z" style="fill:#fff;stroke-width:0"/><circle cx="342.51" cy="436.65" r="8.99" style="fill:#fff;stroke-width:0"/><path d="M360.42 427.66h23.59v62.91c-13.02 0-23.59-10.57-23.59-23.59v-39.32ZM300.15 427.66h23.59v62.91c-13.02 0-23.59-10.57-23.59-23.59v-39.32ZM390.82 427.66h23.59v62.91c-13.02 0-23.59-10.57-23.59-23.59v-39.32Z" style="fill:#fff;stroke-width:0"/></svg>