<svg id="Calque_1" data-name="Calque 1" xmlns="http://www.w3.org/2000/svg" width="415.62" height="135.6" viewBox="0 0 415.62 135.6"><defs><style>.cls-1{fill:#04b6d4;}.cls-2{fill:#ee7918;}.cls-3{fill:#e5137d;}.cls-4{fill:#ef7f24;}</style></defs><path class="cls-1" d="M133.74,27.11h9c12.31,0,17.26,4.85,17.26,17s-4.95,17-17.26,17h-9Zm9,30.62c9.74,0,13.64-3.9,13.64-13.65s-3.9-13.65-13.64-13.65h-5.57v27.3Z"/><path class="cls-1" d="M185.28,52.12H167.07a7.68,7.68,0,0,0,7.37,6.32,7.32,7.32,0,0,0,5.8-2.9h3.95a10.85,10.85,0,0,1-9.75,6A11,11,0,0,1,163.6,50.64a10.84,10.84,0,0,1,21.68,0Zm-18.21-3h14.74a7.5,7.5,0,0,0-14.74,0Z"/><path class="cls-1" d="M186.23,40.13h3.47l6.89,16.69,6.85-16.69h3.47L198.3,61.05h-3.47Z"/><path class="cls-1" d="M211.9,61.05V43h-2.81v-2.9h2.81V37.28c0-5.13.14-11.22,7.66-10.17v2.94c-4.9-.61-4.47,4.14-4.47,7.23v2.85h4.23V43h-4.23v18Z"/><path class="cls-1" d="M242.33,52.12H224.12a7.67,7.67,0,0,0,7.37,6.32,7.32,7.32,0,0,0,5.8-2.9h3.94a10.84,10.84,0,0,1-9.74,6,11,11,0,0,1-10.84-10.94,10.84,10.84,0,0,1,21.68,0Zm-18.21-3h14.74a7.5,7.5,0,0,0-14.74,0Z"/><path class="cls-1" d="M258.25,45.27c-.28-1.43-1.85-2.47-4.32-2.47s-4.28,1.19-4.28,2.75,1.38,2.48,4.8,3.14c5.37,1.1,7.51,3,7.51,6.42,0,3.66-2.8,6.28-8,6.28-4.71,0-7.85-2.62-8-6.28h2.9c.29,1.76,2.43,3.28,5.14,3.28,3.09,0,5.13-1.38,5.13-3.28s-1.33-2.66-5.13-3.42c-5-1-7.23-2.81-7.23-6.14,0-3.18,2.47-5.75,7.23-5.75,4.13,0,6.89,2.28,7.22,5.47Z"/><path class="cls-1" d="M271.61,43v18h-3.18V43h-3.14v-2.9h3.14V31.91h3.18v8.22h4.71V43Z"/><path class="cls-2" d="M133.74,72.84h4.77V114.9H160v4.57H133.74Z"/><path class="cls-2" d="M167.18,72.84H172v46.63h-4.77Z"/><path class="cls-2" d="M182.4,72.84h4.77V114.9h21.48v4.57H182.4Z"/><path class="cls-2" d="M215.84,72.84h4.77V114.9h21.48v4.57H215.84Z"/><path class="cls-2" d="M249.28,72.84h27v4.57H254.05V90.48h21v4.57h-21V114.9h22.27v4.57h-27Z"/><path class="cls-3" d="M292.83,108.91c0-30.76,46.14-30.76,46.14-52.68,0-10.38-5.89-18.58-17.56-18.58-11.41,0-18.33,8-18.33,18.58h-9.74c-.38-15.89,10.51-27.94,28.07-27.94,15,0,27.69,9,27.69,27.94,0,29.74-45.76,29.74-45.76,52.68v4h45.24v9H292.83Z"/><path class="cls-3" d="M359.35,108.91c0-30.76,46.15-30.76,46.15-52.68,0-10.38-5.9-18.58-17.57-18.58-11.4,0-18.32,8-18.32,18.58h-9.75c-.38-15.89,10.51-27.94,28.07-27.94,15,0,27.69,9,27.69,27.94,0,29.74-45.76,29.74-45.76,52.68v4h45.25v9H359.35Z"/><path class="cls-3" d="M60.93,74.89C65.7,52.16,81.05,6.57,55.81.23L55.69,0c-18.84,19.22-13,58.73,5.24,74.89"/><path class="cls-1" d="M68.93,77.65C65.6,43.51,125.17,21,108.93,64c-11-13.5-30.95,5.53-40,13.66"/><path class="cls-1" d="M47,75C48.15,46.6,4.58,34,0,66.9c15.13-9.82,33.46.74,46.81,9.25"/><path class="cls-1" d="M55.75,94.37c-2.62,7.24-17,35.73-21.27,22"/><path class="cls-1" d="M65.43,95.87C62,103,72.93,123.39,78.35,111"/><path class="cls-4" d="M39.67,83.65l-2.81,7.53q10-.21,19.91-.88c7.22-.48,14.56-1.15,21.58-.46a4.15,4.15,0,0,0,1.76-.07A1.7,1.7,0,0,0,81,89a14.66,14.66,0,0,0,2.35-7.51.53.53,0,0,0-.25-.54,2.15,2.15,0,0,0-1-.12L43.49,82a9.71,9.71,0,0,0-2.44.29c-.74.24-1.31.75-1.07,1.19"/><path class="cls-3" d="M59.75,95.84s-6.78,33.71-1,38.51C70.22,143.89,59.75,95.84,59.75,95.84Z"/></svg>