<svg id="Calque_2" data-name="Calque 2" xmlns="http://www.w3.org/2000/svg" viewBox="0 0 19 13.29"><title>readmore</title><path d="M11.06,1.72a.77.77,0,0,0,1-.73c-.24-2.15-3.7-.45-3.25,1.8.63,3.2,6.09,3.49,8.54,3.77-1.9.73-8,1.38-7.91,4.8.07,1.69,3.81,2.81,3.8,1,0-.89-1.47-.88-1.8-.25C9.11,8.64,18.31,8,19,6.58c.18-.39-10-2.11-8.77-5.4.26-.68.73.17.72.48"/><path d="M12.24,7a13.08,13.08,0,0,1-1.51.32c-.51.09-1,.16-1.52.22s-1,.08-1.53.1l-1.54,0-1.54,0H3.07c-1,0-2,0-3.07-.07V7.56l3.06-.19,1.53-.11,1.52-.11L7.64,7c.5,0,1-.09,1.52-.11l1.53,0c.52,0,1,0,1.55.06Z"/></svg>