<!-- SVG DEFINITIONS -->
<svg xmlns="http://www.w3.org/2000/svg" class="svg-library">
  <defs>
    <g id="ic-home">
      <rect width="20" height="20" style="opacity:0;"/>
      <polygon points=".89 5.43 19.11 5.43 10 0 .89 5.43"/>
      <polygon points="17.53 6.67 2.47 6.67 2.47 18.75 7.33 18.75 7.33 10.86 12.67 10.86 12.67 18.75 17.53 18.75 17.53 6.67"/>
      <rect x="7.33" y="18.75" width="5.34" height="1.25"/>
    </g>
    <g id="ic-agenda">
      <rect width="20" height="20" style="opacity:0;"/>
      <polygon points="15.84 2.36 15.84 3.87 14.05 3.87 14.05 2.36 5.95 2.36 5.95 3.87 4.16 3.87 4.16 2.36 .74 2.36 .74 5.39 19.26 5.39 19.26 2.36 15.84 2.36"/>
      <rect x="4.16" width="1.8" height="2.36"/>
      <rect x="14.05" width="1.8" height="2.36"/>
      <path d="M.74,6.51v13.49h18.51V6.51H.74ZM5.95,16.35h-2.43v-2.43h2.43v2.43ZM5.95,11.74h-2.43v-2.43h2.43v2.43ZM16.32,16.35h-8.18v-2.43h8.18v2.43ZM16.32,11.74h-8.18v-2.43h8.18v2.43Z"/>
    </g>
    <g id="ic-faq">
      <rect width="20" height="20" style="opacity:0;"/>
      <path d="M8.53,12.33l-.4-5.03h1.53c.3,0,.56-.05.79-.15.23-.1.41-.24.53-.44.12-.19.19-.42.19-.69s-.06-.49-.19-.67c-.12-.19-.29-.33-.49-.42-.2-.1-.45-.15-.73-.15-.55,0-1.06.18-1.55.53s-.89.77-1.2,1.24l-3.07-3.09c.53-.95,1.3-1.77,2.31-2.45,1.01-.68,2.26-1.02,3.74-1.02,1.18,0,2.23.26,3.13.78.91.52,1.62,1.21,2.13,2.06.51.86.77,1.79.77,2.82,0,1.13-.22,2.06-.65,2.8-.43.74-1,1.33-1.69,1.76-.7.43-1.44.75-2.24.94l1.14-1.83-.21,2.99h-3.86ZM10.46,20c-.83,0-1.52-.28-2.06-.85-.55-.56-.82-1.25-.82-2.06s.27-1.53.82-2.09c.55-.56,1.23-.85,2.06-.85s1.51.28,2.05.85.81,1.26.81,2.09-.27,1.5-.81,2.06c-.54.56-1.22.85-2.05.85Z"/>
    </g>
    <g id="ic-twitter">
      <rect width="20" height="20" style="opacity:0;"/>
      <path d="M18.2048 2.25H21.5128L14.2858 10.51L22.7878 21.75H16.1308L10.9168 14.933L4.95084 21.75H1.64084L9.37084 12.915L1.21484 2.25H8.04084L12.7538 8.481L18.2048 2.25ZM17.0438 19.77H18.8768L7.04484 4.126H5.07784L17.0438 19.77Z"></path>
    </g>
    <g id="ic-linkedin">
      <rect width="20" height="20" style="opacity:0;"/>
      <path d="M6.94048 4.99993C6.94011 5.81424 6.44608 6.54702 5.69134 6.85273C4.9366 7.15845 4.07187 6.97605 3.5049 6.39155C2.93793 5.80704 2.78195 4.93715 3.1105 4.19207C3.43906 3.44699 4.18654 2.9755 5.00048 2.99993C6.08155 3.03238 6.94097 3.91837 6.94048 4.99993ZM7.00048 8.47993H3.00048V20.9999H7.00048V8.47993ZM13.3205 8.47993H9.34048V20.9999H13.2805V14.4299C13.2805 10.7699 18.0505 10.4299 18.0505 14.4299V20.9999H22.0005V13.0699C22.0005 6.89993 14.9405 7.12993 13.2805 10.1599L13.3205 8.47993Z"></path>
    </g>
  </defs>
</svg>
