<svg xmlns="http://www.w3.org/2000/svg" viewBox="0 0 36 6.25"><title>stamp</title><path d="M0,.13c3.6,0,3.6,2,7.2,2s3.59-2,7.19-2,3.6,2,7.2,2,3.6-2,7.21-2,3.6,2,7.2,2" fill="none" stroke="#4d5984" stroke-miterlimit="10" stroke-width="0.25"/><path d="M0,1.13c3.6,0,3.6,2,7.2,2s3.59-2,7.19-2,3.6,2,7.2,2,3.6-2,7.21-2,3.6,2,7.2,2" fill="none" stroke="#4d5984" stroke-miterlimit="10" stroke-width="0.25"/><path d="M0,2.13c3.6,0,3.6,2,7.2,2s3.59-2,7.19-2,3.6,2,7.2,2,3.6-2,7.21-2,3.6,2,7.2,2" fill="none" stroke="#4d5984" stroke-miterlimit="10" stroke-width="0.25"/><path d="M0,3.13c3.6,0,3.6,2,7.2,2s3.59-2,7.19-2,3.6,2,7.2,2,3.6-2,7.21-2,3.6,2,7.2,2" fill="none" stroke="#4d5984" stroke-miterlimit="10" stroke-width="0.25"/><path d="M0,4.13c3.6,0,3.6,2,7.2,2s3.59-2,7.19-2,3.6,2,7.2,2,3.6-2,7.21-2,3.6,2,7.2,2" fill="none" stroke="#4d5984" stroke-miterlimit="10" stroke-width="0.25"/></svg>
